{
.appVersion = "3134";
.formatVersion = 3;
axes = (
{
name = Weight;
tag = wght;
},
{
name = Width;
tag = wdth;
}
);
classes = (
{
automatic = 1;
code = "A Aacute Abreve Acaron Acircumflex Adieresis Adotaccent Agrave Aogonek Aring Atilde B Bdotaccent C Cacute Ccaron Ccedilla Ccircumflex Cdotaccent D Dcaron Dcroat Ddotaccent E Eacute Ebreve Ecaron Ecedilla Ecircumflex Edieresis Edotaccent Egrave Eogonek Etilde F Fdotaccent G Gacute Gbreve Gcaron Gcircumflex Gdotaccent H Hcedilla Hcircumflex Hdotaccent I Iacute Ibreve Icaron Icircumflex Idieresis Idotaccent Igrave Iogonek Itilde J Jacute Jcircumflex K Kacute Kcaron L Lacute Lcaron Lslash M Macute Mdotaccent N Nacute Ncaron Ndotaccent Ngrave Ntilde O Oacute Obreve Ocaron Ocircumflex Odieresis Odotaccent Ograve Oogonek Otilde P Pdotaccent Q R Racute Rcaron Rdotaccent S Sacute Scaron Scedilla Scircumflex Sdotaccent T Tcaron Tcedilla Tdotaccent U Uacute Ubreve Ucaron Ucircumflex Udieresis Ugrave Uogonek Uring Utilde V Vtilde W Wacute Wcircumflex Wdieresis Wdotaccent Wgrave X Xdotaccent Y Yacute Ycircumflex Ydieresis Ydotaccent Ygrave Ytilde Z Zacute Zcaron Zdotaccent G.ss06 Gacute.ss06 Gbreve.ss06 Gcaron.ss06 Gcircumflex.ss06 Gdotaccent.ss06 J.ss07 Jacute.ss07 Jcircumflex.ss07 R.ss08 Racute.ss08 Rcaron.ss08 Rdotaccent.ss08";
name = Uppercase;
}
);
customParameters = (
{
name = fsType;
value = (
);
},
{
name = versionString;
value = "Version %d.%03d";
},
{
name = "Family Alignment Zones";
value = (
{
pos = 1100;
size = 0;
},
{
pos = 720;
size = 12;
},
{
pos = 520;
size = 12;
},
{
pos = 0;
size = "-12";
},
{
pos = "-200";
size = "-12";
},
{
pos = "-330";
size = 0;
}
);
}
);
date = "2022-07-05 01:03:03 +0000";
familyName = Aspekta;
featurePrefixes = (
{
automatic = 1;
code = "languagesystem DFLT dflt;

languagesystem latn dflt;
languagesystem latn NLD;
";
name = Languagesystems;
}
);
features = (
{
automatic = 1;
code = "feature locl;
feature case;
feature ss01;
feature ss02;
feature ss03;
feature ss04;
feature ss05;

glyphs = (
{
color = 4;
glyphname = A;
lastChange = "2022-09-08 15:00:40 +0000";
layers = (
{
anchors = (
{
name = ogonek;
pos = (646,0);
},
{
name = top;
pos = (330,720);
}
);
layerId = m01;
shapes = (
{
closed = 1;
nodes = (
(646,0,l),
(347,720,l),
(315,720,l),
(610,0,l)
);
},
{
closed = 1;
nodes = (
(50,0,l),
(345,720,l),
(313,720,l),
(14,0,l)
);
},
{
closed = 1;
nodes = (
(535,222,l),
(535,252,l),
(125,252,l),
(125,222,l)
);
}
);
width = 660;
},
{
anchors = (
{
name = ogonek;
pos = (702,0);
},
{
name = top;
pos = (360,720);
}
);
layerId = m002;
shapes = (
{
closed = 1;
nodes = (
(702,0,l),
(408,720,l),
(324,720,l),
(608,0,l)
);
},
{
closed = 1;
nodes = (
(112,0,l),
(396,720,l),
(312,720,l),
(18,0,l)
);
},
{
closed = 1;
nodes = (
(564,206,l),
(564,286,l),
(156,286,l),
(156,206,l)
);
}
);
width = 720;
},
{
anchors = (
{
name = ogonek;
pos = (760,0);
},
{
name = top;
pos = (374,720);
}
);
layerId = m003;
shapes = (
{
closed = 1;
nodes = (
(760,0,l),
(497,720,l),
(313,720,l),
(544,0,l)
);
},
{
closed = 1;
nodes = (
(204,0,l),
(435,720,l),
(251,720,l),
(-2,0,l)
);
},
{
closed = 1;
nodes = (
(578,100,l),
(578,268,l),
(170,268,l),
(170,100,l)
);
}
);
width = 758;
}
);
locked = 1;
unicode = 65;
},
{
color = 4;
glyphname = B;
lastChange = "2022-09-09 14:05:17 +0000";
layers = (
{
anchors = (
{
name = top;
pos = (300,720);
}
);
guides = (
{
angle = 270;
pos = (532,539);
},
{
angle = 270;
pos = (68,539);
}
);
layerId = m01;
shapes = (
{
closed = 1;
nodes = (
(362,0,ls),
(510,0,o),
(592,78,o),
(592,194,cs),
(592,310,o),
(510,384,o),
(362,384,cs),
(90,384,l),
(90,358,l),
(362,358,ls),
(488,358,o),
(559,294,o),
(559,194,cs),
(559,94,o),
(488,30,o),
(362,30,cs),
(90,30,l),
(90,0,l)
);
},
{
closed = 1;
nodes = (
(100,0,l),
(100,720,l),
(68,720,l),
(68,0,l)
);
},
{
closed = 1;
nodes = (
(344,362,ls),
(492,362,o),
(564,436,o),
(564,539,cs),
(564,642,o),
(492,720,o),
(344,720,cs),
(90,720,l),
(90,690,l),
(345,690,ls),
(471,690,o),
(532,626,o),
(532,539,cs),
(532,452,o),
(471,388,o),
(345,388,cs),
(90,388,l),
(90,362,l)
);
}
);
width = 616;
},
{
anchors = (
{
name = top;
pos = (305,720);
}
);
guides = (
{
angle = 270;
pos = (68,514);
},
{
angle = 270;
pos = (542,514);
}
);
layerId = m002;
shapes = (
{
closed = 1;
nodes = (
(366,0,ls),
(536,0,o),
(614,87,o),
(614,204,cs),
(614,321,o),
(536,396,o),
(366,396,cs),
(136,396,l),
(136,328,l),
(369,328,ls),
(479,328,o),
(526,281,o),
(526,204,cs),
(526,127,o),
(479,80,o),
(369,80,cs),
(136,80,l),
(136,0,l)
);
},
{
closed = 1;
nodes = (
(156,0,l),
(156,720,l),
(68,720,l),
(68,0,l)
);
},
{
closed = 1;
nodes = (
(336,340,ls),
(506,340,o),
(584,415,o),
(584,524,cs),
(584,633,o),
(506,720,o),
(336,720,cs),
(136,720,l),
(136,640,l),
(341,640,ls),
(451,640,o),
(498,593,o),
(498,524,cs),
(498,455,o),
(451,408,o),
(341,408,cs),
(136,408,l),
(136,340,l)
);
}
);
width = 642;
},
{
anchors = (
{
name = top;
pos = (349,720);
}
);
guides = (
{
angle = 270;
pos = (256,514);
},
{
angle = 270;
pos = (442,514);
}
);
layerId = m003;
shapes = (
{
closed = 1;
nodes = (
(401,0,ls),
(585,0,o),
(686,67,o),
(686,215,cs),
(686,323,o),
(585,416,o),
(401,416,cs),
(206,416,l),
(206,288,l),
(396,288,ls),
(446,288,o),
(474,271,o),
(474,225,cs),
(474,179,o),
(446,162,o),
(396,162,cs),
(206,162,l),
(206,0,l)
);
},
{
closed = 1;
nodes = (
(256,0,l),
(256,720,l),
(52,720,l),
(52,0,l)
);
},
{
closed = 1;
nodes = (
(371,348,ls),
(555,348,o),
(656,413,o),
(656,535,cs),
(656,657,o),
(555,720,o),
(371,720,cs),
(206,720,l),
(206,558,l),
(374,558,ls),
(424,558,o),
(452,541,o),
(452,499,cs),
(452,457,o),
(424,440,o),
(374,440,cs),
(206,440,l),
(206,348,l)
);
}
);
width = 704;
}
);
unicode = 66;
},
{
color = 4;
glyphname = C;
lastChange = "2022-09-07 10:19:17 +0000";
layers = (
{
anchors = (
{
name = bottom;
pos = (367,-12);
},
{
name = cedilla;
pos = (367,-12);
},
{
name = top;
pos = (367,732);
}
);
guides = (
{
angle = 180;
pos = (367,468);
},
{
pos = (367,264);
}
);
layerId = m01;
shapes = (
{
closed = 1;
nodes = (
(534,-12,o),
(638,111,o),
(654,264,c),
(622,264,l),
(607,127,o),
(514,18,o),
(367,18,cs),
(167,18,o),
(75,180,o),
(75,360,cs),
(75,540,o),
(167,702,o),
(367,702,cs),
(510,702,o),
(602,600,o),
(620,468,c),
(652,468,l),
(633,616,o),
(529,732,o),
(367,732,cs),
(147,732,o),
(42,556,o),
(42,360,cs),
(42,164,o),
(147,-12,o),
(367,-12,cs)
);
}
);
width = 696;
},
{
anchors = (
{
name = bottom;
pos = (381,-12);
},
{
name = cedilla;
pos = (381,-12);
},
{
name = top;
pos = (381,732);
}
);
guides = (
{
angle = 180;
pos = (381,482);
},
{
pos = (381,262);
}
);
layerId = m002;
shapes = (
{
closed = 1;
nodes = (
(554,-12,o),
(663,107,o),
(682,262,c),
(593,262,l),
(579,151,o),
(500,70,o),
(381,70,cs),
(209,70,o),
(130,202,o),
(130,360,cs),
(130,518,o),
(209,650,o),
(381,650,cs),
(491,650,o),
(569,581,o),
(587,482,c),
(677,482,l),
(652,625,o),
(545,732,o),
(381,732,cs),
(153,732,o),
(38,560,o),
(38,360,cs),
(38,160,o),
(153,-12,o),
(381,-12,cs)
);
}
);
width = 720;
},
{
anchors = (
{
name = bottom;
pos = (398,-12);
},
{
name = cedilla;
pos = (398,-12);
},
{
name = top;
pos = (398,732);
}
);
guides = (
{
angle = 180;
pos = (398,448);
},
{
pos = (398,284);
}
);
layerId = m003;
shapes = (
{
closed = 1;
nodes = (
(601,-12,o),
(729,115,o),
(748,284,c),
(542,284,l),
(524,216,o),
(480,166,o),
(398,166,cs),
(278,166,o),
(234,256,o),
(234,360,cs),
(234,464,o),
(278,554,o),
(398,554,cs),
(475,554,o),
(523,510,o),
(542,448,c),
(748,448,l),
(725,611,o),
(596,732,o),
(398,732,cs),
(156,732,o),
(22,566,o),
(22,360,cs),
(22,154,o),
(156,-12,o),
(398,-12,cs)
);
}
);
width = 770;
}
);
unicode = 67;
},
{
color = 4;
glyphname = D;
lastChange = "2022-09-07 13:19:55 +0000";
layers = (
{
anchors = (
{
name = top;
pos = (294,720);
}
);
guides = (
{
angle = 90;
pos = (270,720);
}
);
layerId = m01;
shapes = (
{
closed = 1;
nodes = (
(270,0,ls),
(511,0,o),
(626,164,o),
(626,360,cs),
(626,556,o),
(511,720,o),
(270,720,cs),
(90,720,l),
(90,690,l),
(270,690,ls),
(491,690,o),
(593,540,o),
(593,360,cs),
(593,180,o),
(491,30,o),
(270,30,cs),
(90,30,l),
(90,0,l)
);
},
{
closed = 1;
nodes = (
(100,0,l),
(100,720,l),
(68,720,l),
(68,0,l)
);
}
);
width = 666;
},
{
anchors = (
{
name = top;
pos = (327,720);
}
);
guides = (
{
angle = 90;
pos = (305,720);
}
);
layerId = m002;
shapes = (
{
closed = 1;
nodes = (
(305,0,ls),
(543,0,o),
(658,160,o),
(658,360,cs),
(658,560,o),
(543,720,o),
(305,720,cs),
(126,720,l),
(126,640,l),
(305,640,ls),
(487,640,o),
(566,518,o),
(566,360,cs),
(566,202,o),
(487,80,o),
(305,80,cs),
(126,80,l),
(126,0,l)
);
},
{
closed = 1;
nodes = (
(156,0,l),
(156,720,l),
(68,720,l),
(68,0,l)
);
}
);
width = 696;
},
{
anchors = (
{
name = top;
pos = (362,720);
}
);
layerId = m003;
shapes = (
{
closed = 1;
nodes = (
(362,0,ls),
(624,0,o),
(738,154,o),
(738,360,cs),
(738,566,o),
(624,720,o),
(362,720,cs),
(196,720,l),
(196,548,l),
(362,548,ls),
(482,548,o),
(526,464,o),
(526,360,cs),
(526,256,o),
(482,172,o),
(362,172,cs),
(196,172,l),
(196,0,l)
);
},
{
closed = 1;
nodes = (
(256,0,l),
(256,720,l),
(52,720,l),
(52,0,l)
);
}
);
width = 760;
}
);
unicode = 68;
},
{
glyphname = Dcroat;
lastChange = "2022-09-08 19:13:19 +0000";
layers = (
{
guides = (
{
angle = 270;
pos = (92,390);
},
{
angle = 270;
pos = (124,390);
}
);
layerId = m01;
shapes = (
{
closed = 1;
nodes = (
(344,362,l),
(344,390,l),
(0,390,l),
(0,362,l)
);
},
{
pos = (24,0);
ref = D;
}
);
width = 690;
},
{
guides = (
{
angle = 90;
pos = (86,405);
},
{
angle = 90;
pos = (174,405);
}
);
layerId = m002;
shapes = (
{
closed = 1;
nodes = (
(374,335,l),
(374,405,l),
(0,405,l),
(0,335,l)
);
},
{
pos = (18,10);
ref = D;
}
);
width = 714;
},
{
guides = (
{
angle = 90;
pos = (74,415);
},
{
angle = 90;
pos = (278,415);
}
);
layerId = m003;
shapes = (
{
closed = 1;
nodes = (
(418,317,l),
(418,415,l),
(0,415,l),
(0,317,l)
);
},
{
pos = (22,0);
ref = D;
}
);
width = 782;
}
);
unicode = 272;
},
{
color = 4;
glyphname = E;
lastChange = "2022-09-08 14:50:05 +0000";
layers = (
{
anchors = (
{
name = cedilla;
pos = (301,0);
},
{
name = ogonek;
pos = (542,0);
},
{
name = top;
pos = (301,720);
}
);
guides = (
{
angle = 90;
pos = (68,720);
},
{
angle = 90;
pos = (534,720);
}
);
layerId = m01;
shapes = (
{
closed = 1;
nodes = (
(100,0,l),
(100,720,l),
(68,720,l),
(68,0,l)
);
},
{
closed = 1;
nodes = (
(542,0,l),
(542,30,l),
(90,30,l),
(90,0,l)
);
},
{
closed = 1;
nodes = (
(504,360,l),
(504,390,l),
(90,390,l),
(90,360,l)
);
},
{
closed = 1;
nodes = (
(534,690,l),
(534,720,l),
(90,720,l),
(90,690,l)
);
}
);
width = 574;
},
{
anchors = (
{
name = cedilla;
pos = (319,0);
},
{
name = ogonek;
pos = (566,0);
},
{
name = top;
pos = (319,720);
}
);
guides = (
{
angle = 90;
pos = (68,720);
},
{
angle = 90;
pos = (570,720);
}
);
layerId = m002;
shapes = (
{
closed = 1;
nodes = (
(156,0,l),
(156,720,l),
(68,720,l),
(68,0,l)
);
},
{
closed = 1;
nodes = (
(566,0,l),
(566,80,l),
(136,80,l),
(136,0,l)
);
},
{
closed = 1;
nodes = (
(540,336,l),
(540,416,l),
(136,416,l),
(136,336,l)
);
},
{
closed = 1;
nodes = (
(570,640,l),
(570,720,l),
(136,720,l),
(136,640,l)
);
}
);
width = 598;
},
{
anchors = (
{
name = cedilla;
pos = (336,0);
},
{
name = ogonek;
pos = (620,0);
},
{
name = top;
pos = (336,720);
}
);
guides = (
{
angle = 90;
pos = (52,720);
},
{
angle = 90;
pos = (620,720);
}
);
layerId = m003;
shapes = (
{
closed = 1;
nodes = (
(256,0,l),
(256,720,l),
(52,720,l),
(52,0,l)
);
},
{
closed = 1;
nodes = (
(620,0,l),
(620,182,l),
(226,182,l),
(226,0,l)
);
},
{
closed = 1;
nodes = (
(592,276,l),
(592,446,l),
(226,446,l),
(226,276,l)
);
},
{
closed = 1;
nodes = (
(620,538,l),
(620,720,l),
(226,720,l),
(226,538,l)
);
}
);
width = 648;
}
);
unicode = 69;
},
{
color = 4;
glyphname = F;
lastChange = "2022-09-10 10:43:55 +0000";
layers = (
{
anchors = (
{
name = top;
pos = (291,720);
}
);
guides = (
{
angle = 90;
pos = (68,720);
},
{
angle = 90;
pos = (514,720);
}
);
layerId = m01;
shapes = (
{
closed = 1;
nodes = (
(100,0,l),
(100,720,l),
(68,720,l),
(68,0,l)
);
},
{
closed = 1;
nodes = (
(494,360,l),
(494,390,l),
(90,390,l),
(90,360,l)
);
},
{
closed = 1;
nodes = (
(514,690,l),
(514,720,l),
(90,720,l),
(90,690,l)
);
}
);
width = 540;
},
{
anchors = (
{
name = top;
pos = (309,720);
}
);
guides = (
{
angle = 90;
pos = (68,720);
},
{
angle = 90;
pos = (550,720);
}
);
layerId = m002;
shapes = (
{
closed = 1;
nodes = (
(156,0,l),
(156,720,l),
(68,720,l),
(68,0,l)
);
},
{
closed = 1;
nodes = (
(530,336,l),
(530,416,l),
(136,416,l),
(136,336,l)
);
},
{
closed = 1;
nodes = (
(550,640,l),
(550,720,l),
(136,720,l),
(136,640,l)
);
}
);
width = 572;
},
{
anchors = (
{
name = top;
pos = (326,720);
}
);
guides = (
{
angle = 90;
pos = (52,720);
},
{
angle = 90;
pos = (600,720);
}
);
layerId = m003;
shapes = (
{
closed = 1;
nodes = (
(256,0,l),
(256,720,l),
(52,720,l),
(52,0,l)
);
},
{
closed = 1;
nodes = (
(582,276,l),
(582,446,l),
(226,446,l),
(226,276,l)
);
},
{
closed = 1;
nodes = (
(600,538,l),
(600,720,l),
(226,720,l),
(226,538,l)
);
}
);
width = 612;
}
);
unicode = 70;
},
{
color = 4;
glyphname = G;
lastChange = "2022-09-07 15:27:43 +0000";
layers = (
{
anchors = (
{
name = top;
pos = (367,732);
}
);
guides = (
{
pos = (367,478);
},
{
pos = (367,358);
}
);
layerId = m01;
shapes = (
{
closed = 1;
nodes = (
(586,-12,o),
(673,163,o),
(674,358,c),
(649,358,l),
(648,179,o),
(566,18,o),
(367,18,cs),
(167,18,o),
(75,180,o),
(75,360,cs),
(75,540,o),
(167,702,o),
(367,702,cs),
(522,702,o),
(616,605,o),
(636,478,c),
(669,478,l),
(647,621,o),
(541,732,o),
(367,732,cs),
(147,732,o),
(42,556,o),
(42,360,cs),
(42,164,o),
(147,-12,o),
(367,-12,cs)
);
},
{
closed = 1;
nodes = (
(659,328,l),
(659,358,l),
(337,358,l),
(337,328,l)
);
},
{
closed = 1;
nodes = (
(681,0,l),
(681,358,l),
(649,358,l),
(649,0,l)
);
}
);
width = 739;
},
{
anchors = (
{
name = top;
pos = (381,732);
}
);
guides = (
{
pos = (381,477);
},
{
pos = (381,371);
}
);
layerId = m002;
shapes = (
{
closed = 1;
nodes = (
(609,-12,o),
(681,160,o),
(681,371,c),
(627,371,l),
(627,202,o),
(553,70,o),
(381,70,cs),
(209,70,o),
(130,202,o),
(130,360,cs),
(130,518,o),
(209,650,o),
(381,650,cs),
(508,650,o),
(593,578,o),
(611,477,c),
(701,477,l),
(676,623,o),
(563,732,o),
(381,732,cs),
(153,732,o),
(38,560,o),
(38,360,cs),
(38,160,o),
(153,-12,o),
(381,-12,cs)
);
},
{
closed = 1;
nodes = (
(661,291,l),
(661,371,l),
(351,371,l),
(351,291,l)
);
},
{
closed = 1;
nodes = (
(709,0,l),
(709,371,l),
(633,371,l),
(633,0,l)
);
}
);
width = 767;
},
{
anchors = (
{
name = top;
pos = (398,732);
}
);
guides = (
{
pos = (398,412);
},
{
angle = 180;
pos = (398,469);
}
);
layerId = m003;
shapes = (
{
closed = 1;
nodes = (
(600,-12,o),
(678,154,o),
(675,412,c),
(570,412,l),
(570,256,o),
(518,163,o),
(398,163,cs),
(278,163,o),
(234,256,o),
(234,360,cs),
(234,464,o),
(278,557,o),
(398,557,cs),
(473,557,o),
(519,520,o),
(542,469,c),
(750,469,l),
(725,621,o),
(596,732,o),
(398,732,cs),
(156,732,o),
(22,566,o),
(22,360,cs),
(22,154,o),
(156,-12,o),
(358,-12,cs)
);
},
{
closed = 1;
nodes = (
(645,256,l),
(645,412,l),
(368,412,l),
(368,256,l)
);
},
{
closed = 1;
nodes = (
(760,0,l),
(760,412,l),
(620,412,l),
(620,0,l)
);
}
);
width = 802;
}
);
locked = 1;
unicode = 71;
},
{
color = 4;
glyphname = H;
lastChange = "2022-09-10 13:17:16 +0000";
layers = (
{
anchors = (
{
name = cedilla;
pos = (84,0);
},
{
name = top;
pos = (337,720);
}
);
guides = (
{
angle = 90;
pos = (68,720);
},
{
angle = 90;
pos = (606,720);
},
{
angle = 90;
pos = (100,720);
},
{
angle = 90;
pos = (574,720);
}
);
layerId = m01;
shapes = (
{
closed = 1;
nodes = (
(606,0,l),
(606,720,l),
(574,720,l),
(574,0,l)
);
},
{
closed = 1;
nodes = (
(100,0,l),
(100,720,l),
(68,720,l),
(68,0,l)
);
},
{
closed = 1;
nodes = (
(584,360,l),
(584,390,l),
(90,390,l),
(90,360,l)
);
}
);
width = 674;
},
{
anchors = (
{
name = cedilla;
pos = (112,0);
},
{
name = top;
pos = (354,720);
}
);
guides = (
{
angle = 90;
pos = (68,720);
},
{
angle = 90;
pos = (640,720);
},
{
angle = 90;
pos = (156,720);
},
{
angle = 90;
pos = (552,720);
}
);
layerId = m002;
shapes = (
{
closed = 1;
nodes = (
(640,0,l),
(640,720,l),
(552,720,l),
(552,0,l)
);
},
{
closed = 1;
nodes = (
(156,0,l),
(156,720,l),
(68,720,l),
(68,0,l)
);
},
{
closed = 1;
nodes = (
(572,330,l),
(572,412,l),
(136,412,l),
(136,330,l)
);
}
);
width = 708;
},
{
anchors = (
{
name = cedilla;
pos = (154,0);
},
{
name = top;
pos = (378,720);
}
);
guides = (
{
angle = 90;
pos = (52,720);
},
{
angle = 90;
pos = (704,720);
},
{
angle = 90;
pos = (256,720);
},
{
angle = 90;
pos = (500,720);
}
);
layerId = m003;
shapes = (
{
closed = 1;
nodes = (
(704,0,l),
(704,720,l),
(500,720,l),
(500,0,l)
);
},
{
closed = 1;
nodes = (
(256,0,l),
(256,720,l),
(52,720,l),
(52,0,l)
);
},
{
closed = 1;
nodes = (
(530,276,l),
(530,458,l),
(226,458,l),
(226,276,l)
);
}
);
width = 756;
}
);
unicode = 72;
},
{
color = 4;
glyphname = I;
lastChange = "2022-09-08 14:47:32 +0000";
layers = (
{
anchors = (
{
name = ogonek;
pos = (100,0);
},
{
name = top;
pos = (84,720);
}
);
layerId = m01;
shapes = (
{
closed = 1;
nodes = (
(100,0,l),
(100,720,l),
(68,720,l),
(68,0,l)
);
}
);
width = 168;
},
{
anchors = (
{
name = ogonek;
pos = (156,0);
},
{
name = top;
pos = (112,720);
}
);
layerId = m002;
shapes = (
{
closed = 1;
nodes = (
(156,0,l),
(156,720,l),
(68,720,l),
(68,0,l)
);
}
);
width = 224;
},
{
anchors = (
{
name = ogonek;
pos = (256,0);
},
{
name = top;
pos = (154,720);
}
);
layerId = m003;
shapes = (
{
closed = 1;
nodes = (
(256,0,l),
(256,720,l),
(52,720,l),
(52,0,l)
);
}
);
width = 308;
}
);
unicode = 73;
},
{
color = 4;
glyphname = J;
lastChange = "2022-09-02 09:01:36 +0000";
layers = (
{
anchors = (
{
name = top;
pos = (460,720);
}
);
guides = (
{
angle = 90;
pos = (444,720);
},
{
angle = 90;
pos = (476,720);
}
);
layerId = m01;
shapes = (
{
closed = 1;
nodes = (
(388,-12,o),
(476,72,o),
(476,228,cs),
(476,720,l),
(444,720,l),
(444,228,ls),
(444,88,o),
(368,18,o),
(262,18,cs),
(156,18,o),
(80,88,o),
(80,228,cs),
(80,258,l),
(48,258,l),
(48,228,ls),
(48,72,o),
(136,-12,o),
(262,-12,cs)
);
}
);
width = 534;
},
{
anchors = (
{
name = top;
pos = (432,720);
}
);
guides = (
{
angle = 90;
pos = (388,720);
},
{
angle = 90;
pos = (476,720);
}
);
layerId = m002;
shapes = (
{
closed = 1;
nodes = (
(404,-12,o),
(476,85,o),
(476,225,cs),
(476,720,l),
(388,720,l),
(388,225,ls),
(388,125,o),
(348,68,o),
(254,68,cs),
(160,68,o),
(120,125,o),
(120,225,cs),
(120,265,l),
(32,265,l),
(32,225,ls),
(32,85,o),
(104,-12,o),
(254,-12,cs)
);
}
);
width = 534;
},
{
anchors = (
{
name = top;
pos = (454,720);
}
);
guides = (
{
angle = 90;
pos = (352,720);
},
{
angle = 90;
pos = (556,720);
}
);
layerId = m003;
shapes = (
{
closed = 1;
nodes = (
(454,-12,o),
(556,85,o),
(556,239,cs),
(556,720,l),
(352,720,l),
(352,239,ls),
(352,189,o),
(336,160,o),
(284,160,cs),
(232,160,o),
(216,189,o),
(216,239,cs),
(216,279,l),
(22,279,l),
(22,239,ls),
(22,85,o),
(114,-12,o),
(284,-12,cs)
);
}
);
width = 598;
}
);
unicode = 74;
},
{
color = 4;
glyphname = K;
lastChange = "2022-09-07 15:15:19 +0000";
layers = (
{
anchors = (
{
name = top;
pos = (329,720);
}
);
guides = (
{
angle = 90;
pos = (100,720);
},
{
angle = 90;
pos = (559,720);
}
);
layerId = m01;
shapes = (
{
closed = 1;
nodes = (
(613,720,l),
(569,720,l),
(89,256,l),
(89,216,l)
);
},
{
closed = 1;
nodes = (
(100,0,l),
(100,720,l),
(68,720,l),
(68,0,l)
);
},
{
closed = 1;
nodes = (
(621,0,l),
(285,425,l),
(261,403,l),
(581,0,l)
);
}
);
width = 635;
},
{
anchors = (
{
name = top;
pos = (351,720);
}
);
guides = (
{
angle = 90;
pos = (156,720);
},
{
angle = 90;
pos = (545,720);
}
);
layerId = m002;
shapes = (
{
closed = 1;
nodes = (
(662,720,l),
(545,720,l),
(145,317,l),
(145,209,l)
);
},
{
closed = 1;
nodes = (
(156,0,l),
(156,720,l),
(68,720,l),
(68,0,l)
);
},
{
closed = 1;
nodes = (
(662,0,l),
(345,457,l),
(282,395,l),
(554,0,l)
);
}
);
width = 680;
},
{
anchors = (
{
name = top;
pos = (388,720);
}
);
guides = (
{
angle = 90;
pos = (256,720);
},
{
angle = 90;
pos = (520,720);
}
);
layerId = m003;
shapes = (
{
closed = 1;
nodes = (
(768,720,l),
(520,720,l),
(226,394,l),
(226,160,l)
);
},
{
closed = 1;
nodes = (
(256,0,l),
(256,720,l),
(52,720,l),
(52,0,l)
);
},
{
closed = 1;
nodes = (
(768,0,l),
(448,487,l),
(310,346,l),
(526,0,l)
);
}
);
width = 766;
}
);
unicode = 75;
},
{
color = 4;
glyphname = L;
lastChange = "2022-09-10 12:06:01 +0000";
layers = (
{
anchors = (
{
name = caron.alt;
pos = (236,520);
},
{
name = top;
pos = (84,720);
}
);
guides = (
{
pos = (100,520);
},
{
angle = 90;
pos = (68,0);
},
{
angle = 90;
pos = (100,0);
}
);
layerId = m01;
shapes = (
{
closed = 1;
nodes = (
(100,0,l),
(100,720,l),
(68,720,l),
(68,0,l)
);
},
{
closed = 1;
nodes = (
(482,0,l),
(482,30,l),
(90,30,l),
(90,0,l)
);
}
);
width = 508;
},
{
anchors = (
{
name = caron.alt;
pos = (236,520);
},
{
name = top;
pos = (112,720);
}
);
guides = (
{
pos = (156,520);
},
{
angle = 90;
pos = (68,0);
},
{
angle = 90;
pos = (156,0);
}
);
layerId = m002;
shapes = (
{
closed = 1;
nodes = (
(156,0,l),
(156,720,l),
(68,720,l),
(68,0,l)
);
},
{
closed = 1;
nodes = (
(518,0,l),
(518,80,l),
(136,80,l),
(136,0,l)
);
}
);
width = 540;
},
{
anchors = (
{
name = caron.alt;
pos = (316,520);
},
{
name = top;
pos = (154,720);
}
);
guides = (
{
angle = 90;
pos = (52,0);
},
{
angle = 90;
pos = (256,0);
},
{
pos = (256,520);
}
);
layerId = m003;
shapes = (
{
closed = 1;
nodes = (
(256,0,l),
(256,720,l),
(52,720,l),
(52,0,l)
);
},
{
closed = 1;
nodes = (
(576,0,l),
(576,182,l),
(226,182,l),
(226,0,l)
);
}
);
width = 588;
}
);
unicode = 76;
},
{
glyphname = Lslash;
lastChange = "2022-09-09 17:22:53 +0000";
layers = (
{
guides = (
{
angle = 90;
pos = (92,0);
},
{
angle = 90;
pos = (124,0);
},
{
pos = (124,500);
}
);
layerId = m01;
shapes = (
{
pos = (24,0);
ref = L;
},
{
closed = 1;
nodes = (
(336,470,l),
(336,500,l),
(0,343,l),
(0,313,l)
);
}
);
width = 532;
},
{
guides = (
{
angle = 90;
pos = (86,0);
},
{
angle = 90;
pos = (174,0);
},
{
pos = (174,540);
}
);
layerId = m002;
shapes = (
{
pos = (18,0);
ref = L;
},
{
closed = 1;
nodes = (
(360,460,l),
(360,540,l),
(0,372,l),
(0,292,l)
);
}
);
width = 558;
},
{
guides = (
{
angle = 90;
pos = (76,0);
},
{
angle = 90;
pos = (280,0);
},
{
pos = (280,550);
}
);
layerId = m003;
shapes = (
{
pos = (24,0);
ref = L;
},
{
closed = 1;
nodes = (
(450,440,l),
(450,550,l),
(0,358,l),
(0,248,l)
);
}
);
width = 612;
}
);
unicode = 321;
},
{
color = 4;
glyphname = M;
lastChange = "2022-09-07 15:33:04 +0000";
layers = (
{
anchors = (
{
name = top;
pos = (420,720);
}
);
guides = (
{
angle = 90;
pos = (68,720);
},
{
angle = 90;
pos = (772,720);
}
);
layerId = m01;
shapes = (
{
closed = 1;
nodes = (
(437,0,l),
(764,720,l),
(730,720,l),
(404,0,l)
);
},
{
closed = 1;
nodes = (
(100,0,l),
(100,720,l),
(68,720,l),
(68,0,l)
);
},
{
closed = 1;
nodes = (
(436,0,l),
(110,720,l),
(76,720,l),
(403,0,l)
);
},
{
closed = 1;
nodes = (
(772,0,l),
(772,720,l),
(740,720,l),
(740,0,l)
);
}
);
width = 840;
},
{
anchors = (
{
name = top;
pos = (428,720);
}
);
guides = (
{
angle = 90;
pos = (68,720);
},
{
angle = 90;
pos = (788,720);
}
);
layerId = m002;
shapes = (
{
closed = 1;
nodes = (
(469,0,l),
(766,720,l),
(674,720,l),
(388,0,l)
);
},
{
closed = 1;
nodes = (
(154,0,l),
(154,720,l),
(68,720,l),
(68,0,l)
);
},
{
closed = 1;
nodes = (
(468,0,l),
(182,720,l),
(90,720,l),
(387,0,l)
);
},
{
closed = 1;
nodes = (
(788,0,l),
(788,720,l),
(702,720,l),
(702,0,l)
);
}
);
width = 856;
},
{
anchors = (
{
name = top;
pos = (467,720);
}
);
guides = (
{
angle = 90;
pos = (52,720);
},
{
angle = 90;
pos = (882,720);
}
);
layerId = m003;
shapes = (
{
closed = 1;
nodes = (
(550,0,l),
(748,720,l),
(570,720,l),
(390,0,l)
);
},
{
closed = 1;
nodes = (
(246,0,l),
(246,720,l),
(52,720,l),
(52,0,l)
);
},
{
closed = 1;
nodes = (
(544,0,l),
(364,720,l),
(186,720,l),
(384,0,l)
);
},
{
closed = 1;
nodes = (
(882,0,l),
(882,720,l),
(688,720,l),
(688,0,l)
);
}
);
width = 934;
}
);
unicode = 77;
},
{
color = 4;
glyphname = N;
lastChange = "2022-08-28 12:52:58 +0000";
layers = (
{
anchors = (
{
name = top;
pos = (337,720);
}
);
layerId = m01;
shapes = (
{
closed = 1;
nodes = (
(609,0,l),
(109,720,l),
(69,720,l),
(569,0,l)
);
},
{
closed = 1;
nodes = (
(100,0,l),
(100,720,l),
(68,720,l),
(68,0,l)
);
},
{
closed = 1;
nodes = (
(610,0,l),
(610,720,l),
(578,720,l),
(578,0,l)
);
}
);
width = 678;
},
{
anchors = (
{
name = top;
pos = (359,720);
}
);
layerId = m002;
shapes = (
{
closed = 1;
nodes = (
(640,0,l),
(174,720,l),
(78,720,l),
(544,0,l)
);
},
{
closed = 1;
nodes = (
(156,0,l),
(156,720,l),
(68,720,l),
(68,0,l)
);
},
{
closed = 1;
nodes = (
(650,0,l),
(650,720,l),
(562,720,l),
(562,0,l)
);
}
);
width = 718;
},
{
anchors = (
{
name = top;
pos = (378,720);
}
);
layerId = m003;
shapes = (
{
closed = 1;
nodes = (
(676,0,l),
(268,720,l),
(80,720,l),
(488,0,l)
);
},
{
closed = 1;
nodes = (
(246,0,l),
(246,720,l),
(52,720,l),
(52,0,l)
);
},
{
closed = 1;
nodes = (
(704,0,l),
(704,720,l),
(510,720,l),
(510,0,l)
);
}
);
width = 756;
}
);
unicode = 78;
},
{
color = 4;
glyphname = O;
lastChange = "2022-09-08 15:17:30 +0000";
layers = (
{
anchors = (
{
name = ogonek;
pos = (460,0);
},
{
name = top;
pos = (367,732);
}
);
layerId = m01;
shapes = (
{
closed = 1;
nodes = (
(587,-12,o),
(692,164,o),
(692,360,cs),
(692,556,o),
(587,732,o),
(367,732,cs),
(147,732,o),
(42,556,o),
(42,360,cs),
(42,164,o),
(147,-12,o),
(367,-12,cs)
);
},
{
closed = 1;
nodes = (
(167,18,o),
(75,180,o),
(75,360,cs),
(75,540,o),
(167,702,o),
(367,702,cs),
(567,702,o),
(659,540,o),
(659,360,cs),
(659,180,o),
(567,18,o),
(367,18,cs)
);
}
);
width = 734;
},
{
anchors = (
{
name = ogonek;
pos = (479,0);
},
{
name = top;
pos = (381,732);
}
);
layerId = m002;
shapes = (
{
closed = 1;
nodes = (
(609,-12,o),
(724,160,o),
(724,360,cs),
(724,560,o),
(609,732,o),
(381,732,cs),
(153,732,o),
(38,560,o),
(38,360,cs),
(38,160,o),
(153,-12,o),
(381,-12,cs)
);
},
{
closed = 1;
nodes = (
(209,70,o),
(130,202,o),
(130,360,cs),
(130,518,o),
(209,650,o),
(381,650,cs),
(553,650,o),
(632,518,o),
(632,360,cs),
(632,202,o),
(553,70,o),
(381,70,cs)
);
}
);
width = 762;
},
{
anchors = (
{
name = ogonek;
pos = (504,0);
},
{
name = top;
pos = (398,732);
}
);
layerId = m003;
shapes = (
{
closed = 1;
nodes = (
(640,-12,o),
(774,154,o),
(774,360,cs),
(774,566,o),
(640,732,o),
(398,732,cs),
(156,732,o),
(22,566,o),
(22,360,cs),
(22,154,o),
(156,-12,o),
(398,-12,cs)
);
},
{
closed = 1;
nodes = (
(278,166,o),
(234,256,o),
(234,360,cs),
(234,464,o),
(278,554,o),
(398,554,cs),
(518,554,o),
(562,464,o),
(562,360,cs),
(562,256,o),
(518,166,o),
(398,166,cs)
);
}
);
width = 796;
}
);
unicode = 79;
},
{
color = 4;
glyphname = P;
lastChange = "2022-09-09 14:11:17 +0000";
layers = (
{
anchors = (
{
name = top;
pos = (303,720);
}
);
guides = (
{
angle = 270;
pos = (537,527);
},
{
angle = 270;
pos = (68,527);
}
);
layerId = m01;
shapes = (
{
closed = 1;
nodes = (
(340,308,ls),
(488,308,o),
(570,396,o),
(570,514,cs),
(570,632,o),
(488,720,o),
(340,720,cs),
(90,720,l),
(90,690,l),
(340,690,ls),
(466,690,o),
(537,616,o),
(537,514,cs),
(537,412,o),
(466,338,o),
(340,338,cs),
(90,338,l),
(90,308,l)
);
},
{
closed = 1;
nodes = (
(100,0,l),
(100,720,l),
(68,720,l),
(68,0,l)
);
}
);
width = 628;
},
{
anchors = (
{
name = top;
pos = (313,720);
}
);
guides = (
{
angle = 270;
pos = (558,527);
},
{
angle = 270;
pos = (68,527);
}
);
layerId = m002;
shapes = (
{
closed = 1;
nodes = (
(356,278,ls),
(526,278,o),
(604,379,o),
(604,499,cs),
(604,619,o),
(526,720,o),
(356,720,cs),
(136,720,l),
(136,640,l),
(356,640,ls),
(466,640,o),
(513,579,o),
(513,499,cs),
(513,419,o),
(466,358,o),
(356,358,cs),
(136,358,l),
(136,278,l)
);
},
{
closed = 1;
nodes = (
(156,0,l),
(156,720,l),
(68,720,l),
(68,0,l)
);
}
);
width = 640;
},
{
anchors = (
{
name = top;
pos = (353,720);
}
);
guides = (
{
angle = 270;
pos = (450,470);
},
{
angle = 270;
pos = (256,470);
}
);
layerId = m003;
shapes = (
{
closed = 1;
nodes = (
(378,220,ls),
(562,220,o),
(663,322,o),
(663,470,cs),
(663,618,o),
(562,720,o),
(378,720,cs),
(226,720,l),
(226,548,l),
(362,548,ls),
(424,548,o),
(460,530,o),
(460,470,cs),
(460,410,o),
(424,392,o),
(362,392,cs),
(226,392,l),
(226,220,l)
);
},
{
closed = 1;
nodes = (
(256,0,l),
(256,720,l),
(52,720,l),
(52,0,l)
);
}
);
width = 685;
}
);
unicode = 80;
},
{
color = 4;
glyphname = Q;
lastChange = "2022-08-12 15:11:44 +0000";
layers = (
{
layerId = m01;
shapes = (
{
closed = 1;
nodes = (
(632,-84,l),
(440,180,l),
(400,180,l),
(592,-84,l)
);
},
{
ref = O;
}
);
width = 734;
},
{
layerId = m002;
shapes = (
{
closed = 1;
nodes = (
(674,-84,l),
(456,216,l),
(354,216,l),
(572,-84,l)
);
},
{
ref = O;
}
);
width = 762;
},
{
layerId = m003;
shapes = (
{
closed = 1;
nodes = (
(724,-74,l),
(481,306,l),
(313,306,l),
(556,-74,l)
);
},
{
ref = O;
}
);
width = 796;
}
);
unicode = 81;
},
{
color = 4;
glyphname = R;
lastChange = "2022-09-15 10:48:28 +0000";
layers = (
{
anchors = (
{
name = top;
pos = (306,720);
}
);
guides = (
{
angle = 270;
pos = (543,527);
},
{
angle = 270;
pos = (68,527);
}
);
layerId = m01;
shapes = (
{
closed = 1;
nodes = (
(318,334,ls),
(496,334,o),
(576,412,o),
(576,527,cs),
(576,642,o),
(494,720,o),
(346,720,cs),
(90,720,l),
(90,690,l),
(346,690,ls),
(472,690,o),
(543,626,o),
(543,527,cs),
(543,428,o),
(472,364,o),
(346,364,cs),
(90,364,l),
(90,334,l)
);
},
{
closed = 1;
nodes = (
(100,0,l),
(100,720,l),
(68,720,l),
(68,0,l)
);
},
{
closed = 1;
nodes = (
(584,0,l),
(544,226,ls),
(534,285,o),
(501,339,o),
(414,352,c),
(302,352,l),
(302,334,l),
(350,334,ls),
(479,334,o),
(504,275,o),
(518,192,cs),
(551,0,l)
);
}
);
width = 616;
},
{
anchors = (
{
name = top;
pos = (318,720);
}
);
guides = (
{
angle = 270;
pos = (68,514);
},
{
angle = 270;
pos = (568,514);
}
);
layerId = m002;
shapes = (
{
closed = 1;
nodes = (
(316,308,ls),
(526,308,o),
(614,408,o),
(614,514,cs),
(614,640,o),
(536,720,o),
(366,720,cs),
(136,720,l),
(136,640,l),
(366,640,ls),
(476,640,o),
(523,590,o),
(523,514,cs),
(523,438,o),
(476,388,o),
(366,388,cs),
(136,388,l),
(136,308,l)
);
},
{
closed = 1;
nodes = (
(156,0,l),
(156,720,l),
(68,720,l),
(68,0,l)
);
},
{
closed = 1;
nodes = (
(624,0,l),
(590,226,ls),
(580,294,o),
(543,340,o),
(471,352,c),
(289,352,l),
(289,308,l),
(370,308,ls),
(453,308,o),
(495,275,o),
(507,189,cs),
(533,0,l)
);
}
);
width = 652;
},
{
anchors = (
{
name = top;
pos = (357,720);
}
);
guides = (
{
angle = 270;
pos = (459,480);
},
{
angle = 270;
pos = (256,480);
}
);
layerId = m003;
shapes = (
{
closed = 1;
nodes = (
(288,250,ls),
(482,250,o),
(673,336,o),
(673,500,cs),
(673,624,o),
(592,720,o),
(408,720,cs),
(226,720,l),
(226,560,l),
(365,560,ls),
(427,560,o),
(463,540,o),
(463,480,cs),
(463,420,o),
(427,400,o),
(365,400,cs),
(226,400,l),
(226,250,l)
);
},
{
closed = 1;
nodes = (
(256,0,l),
(256,720,l),
(52,720,l),
(52,0,l)
);
},
{
closed = 1;
nodes = (
(689,0,l),
(664,170,ls),
(651,255,o),
(613,316,o),
(485,350,c),
(269,350,l),
(269,250,l),
(360,250,ls),
(421,250,o),
(449,215,o),
(459,150,cs),
(481,0,l)
);
}
);
width = 707;
}
);
unicode = 82;
},
{
color = 4;
glyphname = S;
lastChange = "2022-09-07 10:20:03 +0000";
layers = (
{
anchors = (
{
name = bottom;
pos = (305,-12);
},
{
name = cedilla;
pos = (305,-12);
},
{
name = top;
pos = (305,732);
}
);
layerId = m01;
shapes = (
{
closed = 1;
nodes = (
(479,-12,o),
(574,71,o),
(574,185,cs),
(574,282,o),
(535,345,o),
(320,385,cs),
(130,420,o),
(93,466,o),
(93,553,cs),
(93,639,o),
(169,702,o),
(299,702,cs),
(430,702,o),
(516,636,o),
(520,505,c),
(553,505,l),
(550,643,o),
(458,732,o),
(299,732,cs),
(152,732,o),
(60,657,o),
(60,553,cs),
(60,449,o),
(113,390,o),
(306,356,cs),
(508,320,o),
(541,268,o),
(541,185,cs),
(541,88,o),
(462,18,o),
(318,18,cs),
(177,18,o),
(78,77,o),
(69,234,c),
(36,234,l),
(46,59,o),
(154,-12,o),
(318,-12,cs)
);
}
);
width = 606;
},
{
anchors = (
{
name = bottom;
pos = (315,-12);
},
{
name = cedilla;
pos = (315,-12);
},
{
name = top;
pos = (315,732);
}
);
layerId = m002;
shapes = (
{
closed = 1;
nodes = (
(491,-12,o),
(598,71,o),
(598,198,cs),
(598,301,o),
(549,366,o),
(339,410,cs),
(170,445,o),
(148,478,o),
(148,545,cs),
(148,611,o),
(209,652,o),
(301,652,cs),
(432,652,o),
(488,598,o),
(494,496,c),
(584,496,l),
(581,623,o),
(503,732,o),
(301,732,cs),
(163,732,o),
(57,660,o),
(57,545,cs),
(57,414,o),
(143,366,o),
(304,332,cs),
(471,296,o),
(507,264,o),
(507,198,cs),
(507,111,o),
(433,68,o),
(330,68,cs),
(224,68,o),
(128,110,o),
(123,242,c),
(32,242,l),
(38,62,o),
(169,-12,o),
(330,-12,cs)
);
}
);
width = 626;
},
{
anchors = (
{
name = bottom;
pos = (338,-12);
},
{
name = cedilla;
pos = (338,-12);
},
{
name = top;
pos = (338,732);
}
);
layerId = m003;
shapes = (
{
closed = 1;
nodes = (
(518,-12,o),
(659,60,o),
(659,220,cs),
(659,347,o),
(588,417,o),
(372,448,cs),
(261,464,o),
(236,489,o),
(236,520,cs),
(236,554,o),
(272,576,o),
(328,576,cs),
(400,576,o),
(440,550,o),
(443,484,c),
(635,484,l),
(627,652,o),
(511,732,o),
(328,732,cs),
(134,732,o),
(28,635,o),
(28,511,cs),
(28,382,o),
(105,305,o),
(302,276,cs),
(432,257,o),
(449,234,o),
(449,205,cs),
(449,168,o),
(409,144,o),
(348,144,cs),
(277,144,o),
(215,157,o),
(214,241,c),
(18,241,l),
(17,93,o),
(128,-12,o),
(338,-12,cs)
);
}
);
width = 677;
}
);
unicode = 83;
},
{
color = 4;
glyphname = T;
lastChange = "2022-09-07 13:12:40 +0000";
layers = (
{
anchors = (
{
name = cedilla;
pos = (309,0);
},
{
name = top;
pos = (308,720);
}
);
layerId = m01;
shapes = (
{
closed = 1;
nodes = (
(325,0,l),
(325,700,l),
(292,700,l),
(292,0,l)
);
},
{
closed = 1;
nodes = (
(591,690,l),
(591,720,l),
(26,720,l),
(26,690,l)
);
}
);
width = 617;
},
{
anchors = (
{
name = cedilla;
pos = (308,0);
},
{
name = top;
pos = (309,720);
}
);
layerId = m002;
shapes = (
{
closed = 1;
nodes = (
(354,0,l),
(354,690,l),
(263,690,l),
(263,0,l)
);
},
{
closed = 1;
nodes = (
(597,640,l),
(597,720,l),
(20,720,l),
(20,640,l)
);
}
);
width = 617;
},
{
anchors = (
{
name = cedilla;
pos = (323,0);
},
{
name = top;
pos = (323,720);
}
);
layerId = m003;
shapes = (
{
closed = 1;
nodes = (
(425,0,l),
(425,670,l),
(221,670,l),
(221,0,l)
);
},
{
closed = 1;
nodes = (
(636,538,l),
(636,720,l),
(10,720,l),
(10,538,l)
);
}
);
width = 646;
}
);
unicode = 84;
},
{
color = 4;
glyphname = U;
lastChange = "2022-09-08 14:56:11 +0000";
layers = (
{
anchors = (
{
name = ogonek;
pos = (413,0);
},
{
name = top;
pos = (320,720);
}
);
layerId = m01;
shapes = (
{
closed = 1;
nodes = (
(474,-12,o),
(582,72,o),
(582,258,cs),
(582,720,l),
(550,720,l),
(550,258,ls),
(550,88,o),
(454,18,o),
(320,18,cs),
(186,18,o),
(90,88,o),
(90,258,cs),
(90,720,l),
(58,720,l),
(58,258,ls),
(58,72,o),
(166,-12,o),
(320,-12,cs)
);
}
);
width = 640;
},
{
anchors = (
{
name = ogonek;
pos = (438,0);
},
{
name = top;
pos = (340,720);
}
);
layerId = m002;
shapes = (
{
closed = 1;
nodes = (
(520,-12,o),
(622,89,o),
(622,269,cs),
(622,720,l),
(534,720,l),
(534,269,ls),
(534,129,o),
(464,68,o),
(340,68,cs),
(216,68,o),
(146,129,o),
(146,269,cs),
(146,720,l),
(58,720,l),
(58,269,ls),
(58,89,o),
(160,-12,o),
(340,-12,cs)
);
}
);
width = 680;
},
{
anchors = (
{
name = ogonek;
pos = (468,0);
},
{
name = top;
pos = (364,720);
}
);
layerId = m003;
shapes = (
{
closed = 1;
nodes = (
(544,-12,o),
(686,85,o),
(686,279,cs),
(686,720,l),
(482,720,l),
(482,279,ls),
(482,203,o),
(436,163,o),
(364,163,cs),
(292,163,o),
(246,203,o),
(246,279,cs),
(246,720,l),
(42,720,l),
(42,279,ls),
(42,85,o),
(184,-12,o),
(364,-12,cs)
);
}
);
width = 728;
}
);
unicode = 85;
},
{
color = 4;
glyphname = V;
lastChange = "2022-09-10 13:23:36 +0000";
layers = (
{
anchors = (
{
name = top;
pos = (321,720);
}
);
guides = (
{
angle = 90;
pos = (49,720);
},
{
angle = 90;
pos = (593,720);
}
);
layerId = m01;
shapes = (
{
closed = 1;
nodes = (
(336,0,l),
(49,720,l),
(14,720,l),
(303,0,l)
);
},
{
closed = 1;
nodes = (
(339,0,l),
(628,720,l),
(593,720,l),
(307,0,l)
);
}
);
width = 642;
},
{
anchors = (
{
name = top;
pos = (340,720);
}
);
guides = (
{
angle = 90;
pos = (111,720);
},
{
angle = 90;
pos = (569,720);
}
);
layerId = m002;
shapes = (
{
closed = 1;
nodes = (
(377,0,l),
(111,720,l),
(18,720,l),
(292,0,l)
);
},
{
closed = 1;
nodes = (
(388,0,l),
(662,720,l),
(569,720,l),
(304,0,l)
);
}
);
width = 680;
},
{
anchors = (
{
name = top;
pos = (378,720);
}
);
guides = (
{
angle = 90;
pos = (216,720);
},
{
angle = 90;
pos = (540,720);
}
);
layerId = m003;
shapes = (
{
closed = 1;
nodes = (
(435,0,l),
(216,720,l),
(-2,720,l),
(256,0,l)
);
},
{
closed = 1;
nodes = (
(500,0,l),
(758,720,l),
(540,720,l),
(331,0,l)
);
}
);
width = 756;
}
);
unicode = 86;
},
{
color = 4;
glyphname = W;
lastChange = "2022-09-01 12:17:19 +0000";
layers = (
{
anchors = (
{
name = top;
pos = (498,720);
}
);
guides = (
{
angle = 90;
pos = (480,720);
},
{
angle = 90;
pos = (516,720);
}
);
layerId = m01;
shapes = (
{
closed = 1;
nodes = (
(745,0,l),
(982,720,l),
(948,720,l),
(712,0,l)
);
},
{
closed = 1;
nodes = (
(284,0,l),
(48,720,l),
(14,720,l),
(251,0,l)
);
},
{
closed = 1;
nodes = (
(287,0,l),
(512,720,l),
(480,720,l),
(255,0,l)
);
},
{
closed = 1;
nodes = (
(741,0,l),
(516,720,l),
(484,720,l),
(709,0,l)
);
}
);
width = 996;
},
{
anchors = (
{
name = top;
pos = (491,720);
}
);
guides = (
{
angle = 90;
pos = (442,720);
},
{
angle = 90;
pos = (540,720);
}
);
layerId = m002;
shapes = (
{
closed = 1;
nodes = (
(755,0,l),
(964,720,l),
(872,720,l),
(669,0,l)
);
},
{
closed = 1;
nodes = (
(313,0,l),
(110,720,l),
(18,720,l),
(227,0,l)
);
},
{
closed = 1;
nodes = (
(325,0,l),
(524,720,l),
(442,720,l),
(240,0,l)
);
},
{
closed = 1;
nodes = (
(742,0,l),
(540,720,l),
(458,720,l),
(657,0,l)
);
}
);
width = 982;
},
{
anchors = (
{
name = top;
pos = (512,720);
}
);
guides = (
{
angle = 90;
pos = (411,720);
},
{
angle = 90;
pos = (613,720);
}
);
layerId = m003;
shapes = (
{
closed = 1;
nodes = (
(828,0,l),
(1026,720,l),
(810,720,l),
(648,0,l)
);
},
{
closed = 1;
nodes = (
(376,0,l),
(214,720,l),
(-2,720,l),
(196,0,l)
);
},
{
closed = 1;
nodes = (
(426,0,l),
(567,720,l),
(411,720,l),
(278,0,l)
);
},
{
closed = 1;
nodes = (
(746,0,l),
(613,720,l),
(457,720,l),
(598,0,l)
);
}
);
width = 1024;
}
);
unicode = 87;
},
{
color = 4;
glyphname = X;
lastChange = "2022-09-09 14:19:03 +0000";
layers = (
{
anchors = (
{
name = top;
pos = (314,720);
}
);
guides = (
{
angle = 90;
pos = (72,720);
},
{
angle = 90;
pos = (556,720);
}
);
layerId = m01;
shapes = (
{
closed = 1;
nodes = (
(614,0,l),
(72,720,l),
(34,720,l),
(576,0,l)
);
},
{
closed = 1;
nodes = (
(51,0,l),
(593,720,l),
(556,720,l),
(14,0,l)
);
}
);
width = 628;
},
{
anchors = (
{
name = top;
pos = (327,720);
}
);
guides = (
{
angle = 90;
pos = (131,720);
},
{
angle = 90;
pos = (522,720);
}
);
layerId = m002;
shapes = (
{
closed = 1;
nodes = (
(635,0,l),
(131,720,l),
(28,720,l),
(532,0,l)
);
},
{
closed = 1;
nodes = (
(117,0,l),
(621,720,l),
(522,720,l),
(18,0,l)
);
}
);
width = 653;
},
{
anchors = (
{
name = top;
pos = (354,720);
}
);
guides = (
{
angle = 90;
pos = (243,720);
},
{
angle = 90;
pos = (465,720);
}
);
layerId = m003;
shapes = (
{
closed = 1;
nodes = (
(710,0,l),
(243,720,l),
(8,720,l),
(475,0,l)
);
},
{
closed = 1;
nodes = (
(228,0,l),
(695,720,l),
(465,720,l),
(-2,0,l)
);
}
);
width = 708;
}
);
unicode = 88;
},
{
color = 4;
glyphname = Y;
lastChange = "2022-09-01 12:21:30 +0000";
layers = (
{
anchors = (
{
name = top;
pos = (321,720);
}
);
guides = (
{
angle = 90;
pos = (52,720);
},
{
angle = 90;
pos = (590,720);
}
);
layerId = m01;
shapes = (
{
closed = 1;
nodes = (
(327,337,l),
(52,720,l),
(14,720,l),
(321,293,l)
);
},
{
closed = 1;
nodes = (
(337,0,l),
(337,330,l),
(305,330,l),
(305,0,l)
);
},
{
closed = 1;
nodes = (
(628,720,l),
(590,720,l),
(315,337,l),
(321,293,l)
);
}
);
width = 642;
},
{
anchors = (
{
name = top;
pos = (344,720);
}
);
guides = (
{
angle = 90;
pos = (119,720);
},
{
angle = 90;
pos = (568,720);
}
);
layerId = m002;
shapes = (
{
closed = 1;
nodes = (
(362,337,l),
(119,720,l),
(18,720,l),
(343,219,l)
);
},
{
closed = 1;
nodes = (
(387,0,l),
(387,320,l),
(299,320,l),
(299,0,l)
);
},
{
closed = 1;
nodes = (
(668,720,l),
(568,720,l),
(325,337,l),
(343,219,l)
);
}
);
width = 686;
},
{
anchors = (
{
name = top;
pos = (376,720);
}
);
guides = (
{
angle = 270;
pos = (1491,310);
},
{
angle = 90;
pos = (232,720);
},
{
angle = 90;
pos = (520,720);
}
);
layerId = m003;
shapes = (
{
closed = 1;
nodes = (
(403,415,l),
(232,720,l),
(-2,720,l),
(376,110,l)
);
},
{
closed = 1;
nodes = (
(478,0,l),
(478,346,l),
(274,346,l),
(274,0,l)
);
},
{
closed = 1;
nodes = (
(744,720,l),
(520,720,l),
(349,415,l),
(376,110,l)
);
}
);
width = 742;
}
);
locked = 1;
unicode = 89;
},
{
color = 4;
glyphname = Z;
lastChange = "2022-08-09 14:15:09 +0000";
layers = (
{
anchors = (
{
name = top;
pos = (301,720);
}
);
layerId = m01;
shapes = (
{
closed = 1;
nodes = (
(552,691,l),
(523,703,l),
(32,29,l),
(59,14,l)
);
},
{
closed = 1;
nodes = (
(556,0,l),
(556,30,l),
(200,30,l),
(60,28,l),
(32,29,l),
(32,0,l)
);
},
{
closed = 1;
nodes = (
(384,690,l),
(524,692,l),
(552,691,l),
(552,720,l),
(50,720,l),
(50,690,l)
);
}
);
width = 588;
},
{
anchors = (
{
name = top;
pos = (312,720);
}
);
layerId = m002;
shapes = (
{
closed = 1;
nodes = (
(578,642,l),
(497,676,l),
(28,78,l),
(107,41,l)
);
},
{
closed = 1;
nodes = (
(584,0,l),
(584,80,l),
(296,80,l),
(116,78,l),
(28,78,l),
(28,0,l)
);
},
{
closed = 1;
nodes = (
(310,640,l),
(490,642,l),
(578,642,l),
(578,720,l),
(46,720,l),
(46,640,l)
);
}
);
width = 612;
},
{
anchors = (
{
name = top;
pos = (339,720);
}
);
layerId = m003;
shapes = (
{
closed = 1;
nodes = (
(640,568,l),
(450,633,l),
(28,160,l),
(210,86,l)
);
},
{
closed = 1;
nodes = (
(644,0,l),
(644,182,l),
(490,182,l),
(260,178,l),
(28,160,l),
(28,0,l)
);
},
{
closed = 1;
nodes = (
(178,538,l),
(408,542,l),
(640,568,l),
(640,720,l),
(38,720,l),
(38,538,l)
);
}
);
width = 672;
}
);
unicode = 90;
},
{
color = 6;
glyphname = G.ss06;
lastChange = "2022-09-15 13:32:14 +0000";
layers = (
{
anchors = (
{
name = top;
pos = (367,732);
}
);
guides = (
{
pos = (367,477);
},
{
pos = (367,361);
}
);
layerId = m01;
shapes = (
{
closed = 1;
nodes = (
(581,-12,o),
(686,155,o),
(683,341,cs),
(683,348,o),
(683,354,o),
(682,361,c),
(649,361,l),
(650,354,o),
(650,348,o),
(650,341,cs),
(654,174,o),
(564,18,o),
(367,18,cs),
(167,18,o),
(75,180,o),
(75,360,cs),
(75,540,o),
(167,702,o),
(367,702,cs),
(522,702,o),
(610,605,o),
(643,477,c),
(676,477,l),
(641,621,o),
(542,732,o),
(367,732,cs),
(147,732,o),
(42,556,o),
(42,360,cs),
(42,164,o),
(147,-12,o),
(367,-12,cs)
);
},
{
closed = 1;
nodes = (
(667,331,l),
(667,361,l),
(337,361,l),
(337,331,l)
);
}
);
width = 725;
},
{
anchors = (
{
name = top;
pos = (381,732);
}
);
guides = (
{
pos = (381,479);
},
{
pos = (381,385);
}
);
layerId = m002;
shapes = (
{
closed = 1;
nodes = (
(609,-12,o),
(717,160,o),
(717,360,cs),
(717,368,o),
(717,377,o),
(716,385,c),
(627,385,l),
(628,377,o),
(628,368,o),
(628,360,cs),
(628,202,o),
(557,70,o),
(381,70,cs),
(209,70,o),
(130,202,o),
(130,360,cs),
(130,518,o),
(209,650,o),
(381,650,cs),
(507,650,o),
(583,579,o),
(614,479,c),
(705,479,l),
(668,624,o),
(562,732,o),
(381,732,cs),
(153,732,o),
(38,560,o),
(38,360,cs),
(38,160,o),
(153,-12,o),
(381,-12,cs)
);
},
{
closed = 1;
nodes = (
(670,305,l),
(670,385,l),
(351,385,l),
(351,305,l)
);
}
);
width = 755;
},
{
anchors = (
{
name = top;
pos = (398,732);
}
);
guides = (
{
pos = (398,474);
},
{
pos = (398,414);
}
);
layerId = m003;
shapes = (
{
closed = 1;
nodes = (
(640,-12,o),
(762,154,o),
(762,360,cs),
(762,378,o),
(761,396,o),
(759,414,c),
(558,414,l),
(561,397,o),
(562,379,o),
(562,360,cs),
(562,256,o),
(518,166,o),
(398,166,cs),
(278,166,o),
(234,256,o),
(234,360,cs),
(234,464,o),
(278,554,o),
(398,554,cs),
(469,554,o),
(520,522,o),
(544,474,c),
(750,474,l),
(712,624,o),
(593,732,o),
(398,732,cs),
(156,732,o),
(22,566,o),
(22,360,cs),
(22,154,o),
(156,-12,o),
(398,-12,cs)
);
},
{
closed = 1;
nodes = (
(678,258,l),
(678,414,l),
(368,414,l),
(368,258,l)
);
}
);
width = 784;
}
);
},
{
color = 6;
glyphname = J.ss07;
lastChange = "2022-09-15 13:32:44 +0000";
layers = (
{
anchors = (
{
name = top;
pos = (266,720);
}
);
guides = (
{
angle = 90;
pos = (250,720);
},
{
angle = 90;
pos = (282,720);
}
);
layerId = m01;
shapes = (
{
closed = 1;
nodes = (
(138,0,ls),
(252,0,o),
(282,78,o),
(282,162,cs),
(282,720,l),
(250,720,l),
(250,162,ls),
(250,88,o),
(222,30,o),
(138,30,cs),
(48,30,l),
(48,0,l)
);
}
);
width = 340;
},
{
anchors = (
{
name = top;
pos = (270,720);
}
);
guides = (
{
angle = 90;
pos = (226,720);
},
{
angle = 90;
pos = (314,720);
}
);
layerId = m002;
shapes = (
{
closed = 1;
nodes = (
(130,0,ls),
(260,0,o),
(314,62,o),
(314,192,cs),
(314,720,l),
(226,720,l),
(226,208,ls),
(226,118,o),
(204,80,o),
(114,80,cs),
(32,80,l),
(32,0,l)
);
}
);
width = 372;
},
{
anchors = (
{
name = top;
pos = (309,720);
}
);
guides = (
{
angle = 90;
pos = (207,720);
},
{
angle = 90;
pos = (411,720);
}
);
layerId = m003;
shapes = (
{
closed = 1;
nodes = (
(196,0,ls),
(310,0,o),
(411,49,o),
(411,219,cs),
(411,720,l),
(207,720,l),
(207,239,ls),
(207,179,o),
(181,156,o),
(121,156,cs),
(22,156,l),
(22,0,l)
);
}
);
width = 453;
}
);
},
{
color = 6;
glyphname = R.ss08;
lastChange = "2022-09-15 13:32:54 +0000";
layers = (
{
anchors = (
{
name = top;
pos = (306,720);
}
);
guides = (
{
angle = 270;
pos = (543,514);
},
{
angle = 270;
pos = (68,514);
}
);
layerId = m01;
shapes = (
{
closed = 1;
nodes = (
(346,308,ls),
(494,308,o),
(576,396,o),
(576,514,cs),
(576,632,o),
(494,720,o),
(346,720,cs),
(90,720,l),
(90,690,l),
(346,690,ls),
(472,690,o),
(543,616,o),
(543,514,cs),
(543,412,o),
(472,338,o),
(346,338,cs),
(90,338,l),
(90,308,l)
);
},
{
closed = 1;
nodes = (
(100,0,l),
(100,720,l),
(68,720,l),
(68,0,l)
);
},
{
closed = 1;
nodes = (
(596,-1,l),
(385,323,l),
(349,323,l),
(558,-1,l)
);
}
);
width = 622;
},
{
anchors = (
{
name = top;
pos = (318,720);
}
);
guides = (
{
angle = 270;
pos = (68,499);
},
{
angle = 270;
pos = (568,499);
}
);
layerId = m002;
shapes = (
{
closed = 1;
nodes = (
(366,278,ls),
(536,278,o),
(614,379,o),
(614,499,cs),
(614,619,o),
(536,720,o),
(366,720,cs),
(136,720,l),
(136,640,l),
(366,640,ls),
(476,640,o),
(523,579,o),
(523,499,cs),
(523,419,o),
(476,358,o),
(366,358,cs),
(136,358,l),
(136,278,l)
);
},
{
closed = 1;
nodes = (
(156,0,l),
(156,720,l),
(68,720,l),
(68,0,l)
);
},
{
closed = 1;
nodes = (
(634,0,l),
(407,324,l),
(305,324,l),
(530,0,l)
);
}
);
width = 648;
},
{
anchors = (
{
name = top;
pos = (358,720);
}
);
guides = (
{
angle = 270;
pos = (460,480);
},
{
angle = 270;
pos = (256,480);
}
);
layerId = m003;
shapes = (
{
closed = 1;
nodes = (
(358,240,ls),
(542,240,o),
(673,332,o),
(673,480,cs),
(673,618,o),
(572,720,o),
(388,720,cs),
(226,720,l),
(226,558,l),
(372,558,ls),
(434,558,o),
(470,540,o),
(470,480,cs),
(470,420,o),
(434,402,o),
(372,402,cs),
(226,402,l),
(226,240,l)
);
},
{
closed = 1;
nodes = (
(256,0,l),
(256,720,l),
(52,720,l),
(52,0,l)
);
},
{
closed = 1;
nodes = (
(703,0,l),
(505,324,l),
(299,324,l),
(477,0,l)
);
}
);
width = 703;
}
);
},
{
color = 4;
glyphname = a;
lastChange = "2022-09-08 13:24:34 +0000";
layers = (
{
anchors = (
{
name = ogonek;
pos = (434,0);
},
{
name = top;
pos = (242,520);
}
);
layerId = m01;
shapes = (
{
closed = 1;
nodes = (
(434,0,l),
(434,384,ls),
(434,476,o),
(372,532,o),
(252,532,cs),
(142,532,o),
(50,476,o),
(50,360,c),
(82,360,l),
(82,464,o),
(162,502,o),
(252,502,cs),
(352,502,o),
(403,464,o),
(403,380,cs),
(403,323,l),
(412,314,l),
(412,174,l),
(403,143,l),
(403,0,l)
);
},
{
closed = 1;
nodes = (
(300,-12,o),
(389,41,o),
(421,162,c),
(421,337,l),
(216,291,ls),
(82,261,o),
(28,218,o),
(28,134,cs),
(28,51,o),
(84,-12,o),
(194,-12,cs)
);
},
{
closed = 1;
nodes = (
(104,18,o),
(60,68,o),
(60,135,cs),
(60,209,o),
(110,237,o),
(220,263,cs),
(403,306,l),
(403,228,ls),
(403,86,o),
(312,18,o),
(195,18,cs)
);
}
);
width = 478;
},
{
anchors = (
{
name = ogonek;
pos = (464,0);
},
{
name = top;
pos = (257,520);
}
);
layerId = m002;
shapes = (
{
closed = 1;
nodes = (
(464,0,l),
(464,382,ls),
(464,474,o),
(402,532,o),
(268,532,cs),
(158,532,o),
(54,486,o),
(50,360,c),
(134,360,l),
(138,439,o),
(206,458,o),
(268,458,cs),
(340,458,o),
(382,436,o),
(382,374,cs),
(382,306,l),
(395,291,l),
(395,136,l),
(386,111,l),
(386,0,l)
);
},
{
closed = 1;
nodes = (
(292,-12,o),
(362,14,o),
(409,100,c),
(409,339,l),
(219,303,ls),
(103,281,o),
(32,233,o),
(32,141,cs),
(32,43,o),
(103,-12,o),
(220,-12,cs)
);
},
{
closed = 1;
nodes = (
(150,62,o),
(119,95,o),
(119,143,cs),
(119,202,o),
(164,218,o),
(231,232,cs),
(382,263,l),
(382,206,ls),
(382,105,o),
(300,62,o),
(224,62,cs)
);
}
);
width = 512;
},
{
anchors = (
{
name = ogonek;
pos = (553,0);
},
{
name = top;
pos = (301,520);
}
);
layerId = m003;
shapes = (
{
closed = 1;
nodes = (
(553,0,l),
(553,369,ls),
(553,469,o),
(469,532,o),
(301,532,cs),
(153,532,o),
(49,466,o),
(49,346,c),
(235,346,l),
(235,370,o),
(253,400,o),
(303,400,cs),
(363,400,o),
(369,370,o),
(369,346,cs),
(369,279,l),
(384,265,l),
(384,138,l),
(373,115,l),
(373,0,l)
);
},
{
closed = 1;
nodes = (
(295,-12,o),
(350,12,o),
(400,85,c),
(400,337,l),
(236,311,ls),
(74,285,o),
(18,244,o),
(18,151,cs),
(18,45,o),
(102,-12,o),
(210,-12,cs)
);
},
{
closed = 1;
nodes = (
(233,110,o),
(209,128,o),
(209,158,cs),
(209,188,o),
(228,199,o),
(276,208,cs),
(369,226,l),
(369,195,ls),
(369,133,o),
(326,110,o),
(273,110,cs)
);
}
);
width = 583;
}
);
unicode = 97;
},
{
color = 4;
glyphname = c;
lastChange = "2022-09-07 10:20:37 +0000";
layers = (
{
anchors = (
{
name = bottom;
pos = (273,0);
},
{
name = cedilla;
pos = (273,-12);
},
{
name = top;
pos = (273,520);
}
);
guides = (
{
pos = (273,354);
},
{
pos = (273,178);
}
);
layerId = m01;
shapes = (
{
closed = 1;
nodes = (
(387,-12,o),
(464,69,o),
(482,178,c),
(450,178,l),
(433,86,o),
(368,18,o),
(273,18,cs),
(141,18,o),
(74,128,o),
(74,260,cs),
(74,392,o),
(141,502,o),
(273,502,cs),
(364,502,o),
(428,439,o),
(447,354,c),
(479,354,l),
(458,457,o),
(383,532,o),
(273,532,cs),
(121,532,o),
(42,410,o),
(42,260,cs),
(42,110,o),
(121,-12,o),
(273,-12,cs)
);
}
);
width = 514;
},
{
anchors = (
{
name = bottom;
pos = (284,0);
},
{
name = cedilla;
pos = (284,-12);
},
{
name = top;
pos = (284,520);
}
);
guides = (
{
pos = (284,344);
},
{
pos = (284,178);
}
);
layerId = m002;
shapes = (
{
closed = 1;
nodes = (
(403,-12,o),
(492,65,o),
(507,178,c),
(420,178,l),
(407,108,o),
(357,64,o),
(284,64,cs),
(184,64,o),
(130,146,o),
(130,260,cs),
(130,374,o),
(184,456,o),
(284,456,cs),
(357,456,o),
(406,413,o),
(420,344,c),
(507,344,l),
(491,456,o),
(412,532,o),
(284,532,cs),
(138,532,o),
(42,416,o),
(42,260,cs),
(42,104,o),
(138,-12,o),
(284,-12,cs)
);
}
);
width = 539;
},
{
anchors = (
{
name = bottom;
pos = (297,0);
},
{
name = cedilla;
pos = (297,-12);
},
{
name = top;
pos = (297,520);
}
);
guides = (
{
pos = (297,319);
},
{
pos = (297,213);
}
);
layerId = m003;
shapes = (
{
closed = 1;
nodes = (
(467,-12,o),
(549,82,o),
(565,213,c),
(380,213,l),
(373,163,o),
(346,136,o),
(297,136,cs),
(234,136,o),
(210,182,o),
(210,260,cs),
(210,338,o),
(234,384,o),
(297,384,cs),
(341,384,o),
(371,361,o),
(380,319,c),
(565,319,l),
(549,444,o),
(462,532,o),
(297,532,cs),
(118,532,o),
(22,414,o),
(22,260,cs),
(22,106,o),
(118,-12,o),
(297,-12,cs)
);
}
);
width = 577;
}
);
unicode = 99;
},
{
glyphname = dcroat;
lastChange = "2022-08-01 17:50:21 +0000";
layers = (
{
layerId = m01;
shapes = (
{
closed = 1;
nodes = (
(594,608,l),
(594,636,l),
(332,636,l),
(332,608,l)
);
},
{
alignment = -1;
ref = d;
}
);
width = 594;
},
{
layerId = m002;
shapes = (
{
closed = 1;
nodes = (
(624,587,l),
(624,657,l),
(338,657,l),
(338,587,l)
);
},
{
alignment = -1;
ref = d;
}
);
width = 624;
},
{
layerId = m003;
shapes = (
{
closed = 1;
nodes = (
(658,573,l),
(658,671,l),
(292,671,l),
(292,573,l)
);
},
{
alignment = -1;
ref = d;
}
);
width = 658;
}
);
unicode = 273;
},
{
color = 4;
glyphname = e;
lastChange = "2022-09-08 14:59:34 +0000";
layers = (
{
anchors = (
{
name = cedilla;
pos = (270,-12);
},
{
name = ogonek;
pos = (346,0);
},
{
name = top;
pos = (270,520);
}
);
guides = (
{
pos = (270,251);
},
{
pos = (270,173);
}
);
layerId = m01;
shapes = (
{
closed = 1;
nodes = (
(389,-12,o),
(464,64,o),
(490,173,c),
(459,173,l),
(435,82,o),
(369,18,o),
(270,18,cs),
(141,18,o),
(74,128,o),
(74,260,cs),
(74,392,o),
(141,502,o),
(270,502,cs),
(399,502,o),
(466,392,o),
(466,260,cs),
(466,251,l),
(498,251,l),
(498,260,ls),
(498,410,o),
(419,532,o),
(270,532,cs),
(121,532,o),
(42,410,o),
(42,260,cs),
(42,110,o),
(121,-12,o),
(270,-12,cs)
);
},
{
closed = 1;
nodes = (
(483,251,l),
(483,281,l),
(57,281,l),
(57,251,l)
);
}
);
width = 540;
},
{
anchors = (
{
name = cedilla;
pos = (281,-12);
},
{
name = ogonek;
pos = (360,0);
},
{
name = top;
pos = (281,520);
}
);
guides = (
{
pos = (281,230);
},
{
pos = (281,158);
}
);
layerId = m002;
shapes = (
{
closed = 1;
nodes = (
(394,-12,o),
(480,55,o),
(513,158,c),
(426,158,l),
(402,99,o),
(349,64,o),
(281,64,cs),
(180,64,o),
(126,146,o),
(126,260,cs),
(126,374,o),
(180,456,o),
(281,456,cs),
(382,456,o),
(436,374,o),
(436,260,cs),
(436,230,l),
(524,230,l),
(524,260,ls),
(524,416,o),
(428,532,o),
(281,532,cs),
(134,532,o),
(38,416,o),
(38,260,cs),
(38,104,o),
(134,-12,o),
(281,-12,cs)
);
},
{
closed = 1;
nodes = (
(493,230,l),
(493,306,l),
(69,306,l),
(69,230,l)
);
}
);
width = 562;
},
{
anchors = (
{
name = cedilla;
pos = (300,-12);
},
{
name = ogonek;
pos = (395,0);
},
{
name = top;
pos = (300,520);
}
);
guides = (
{
pos = (300,205);
},
{
pos = (300,161);
}
);
layerId = m003;
shapes = (
{
closed = 1;
nodes = (
(442,-12,o),
(536,58,o),
(570,161,c),
(393,161,l),
(375,135,o),
(351,122,o),
(300,122,cs),
(234,122,o),
(196,172,o),
(196,260,cs),
(196,348,o),
(234,398,o),
(300,398,cs),
(366,398,o),
(404,348,o),
(404,260,cs),
(404,205,l),
(578,205,l),
(578,235,ls),
(578,424,o),
(482,532,o),
(300,532,cs),
(118,532,o),
(22,414,o),
(22,260,cs),
(22,106,o),
(118,-12,o),
(300,-12,cs)
);
},
{
closed = 1;
nodes = (
(512,205,l),
(512,317,l),
(88,317,l),
(88,205,l)
);
}
);
width = 600;
}
);
unicode = 101;
},
{
color = 4;
glyphname = g;
lastChange = "2022-09-07 15:29:55 +0000";
layers = (
{
anchors = (
{
name = top;
pos = (272,520);
}
);
guides = (
{
angle = 90;
pos = (469,158);
},
{
angle = 90;
pos = (501,520);
},
{
angle = 90;
pos = (42,520);
}
);
layerId = m01;
shapes = (
{
closed = 1;
nodes = (
(433,-212,o),
(501,-114,o),
(501,10,cs),
(501,520,l),
(470,520,l),
(470,355,l),
(482,259,l),
(469,158,l),
(469,10,ls),
(469,-105,o),
(413,-182,o),
(287,-182,cs),
(173,-182,o),
(119,-139,o),
(107,-56,c),
(75,-56,l),
(87,-152,o),
(153,-212,o),
(287,-212,cs)
);
},
{
alignment = -1;
pos = (494,0);
ref = _part_b_bowl;
scale = (-1,1);
}
);
width = 563;
},
{
anchors = (
{
name = top;
pos = (287,520);
}
);
guides = (
{
angle = 90;
pos = (452,158);
},
{
angle = 90;
pos = (536,520);
},
{
angle = 90;
pos = (38,520);
}
);
layerId = m002;
shapes = (
{
closed = 1;
nodes = (
(428,-212,o),
(536,-146,o),
(536,14,cs),
(536,520,l),
(456,520,l),
(456,355,l),
(465,259,l),
(452,158,l),
(452,14,ls),
(452,-114,o),
(368,-140,o),
(290,-140,cs),
(212,-140,o),
(160,-113,o),
(148,-41,c),
(65,-41,l),
(77,-147,o),
(152,-212,o),
(290,-212,cs)
);
},
{
alignment = -1;
pos = (502,0);
ref = _part_b_bowl;
scale = (-1,1);
}
);
width = 598;
},
{
anchors = (
{
name = top;
pos = (298,520);
}
);
guides = (
{
angle = 90;
pos = (385,158);
},
{
angle = 90;
pos = (573,520);
},
{
angle = 90;
pos = (22,520);
}
);
layerId = m003;
shapes = (
{
closed = 1;
nodes = (
(446,-212,o),
(573,-136,o),
(573,13,cs),
(573,520,l),
(389,520,l),
(389,355,l),
(398,259,l),
(385,158,l),
(385,13,ls),
(385,-57,o),
(338,-74,o),
(296,-74,cs),
(254,-74,o),
(221,-57,o),
(219,-16,c),
(35,-16,l),
(37,-136,o),
(126,-212,o),
(286,-212,cs)
);
},
{
alignment = -1;
pos = (442,32);
ref = _part_b_bowl;
scale = (-1,0.94);
}
);
width = 615;
}
);
unicode = 103;
},
{
color = 4;
glyphname = h;
lastChange = "2022-09-10 13:18:27 +0000";
layers = (
{
anchors = (
{
name = cedilla;
pos = (78,0);
},
{
name = top;
pos = (78,720);
}
);
guides = (
{
angle = 90;
pos = (62,720);
},
{
angle = 90;
pos = (462,720);
},
{
angle = 90;
pos = (94,720);
}
);
layerId = m01;
shapes = (
{
closed = 1;
nodes = (
(94,0,l),
(94,720,l),
(62,720,l),
(62,0,l)
);
},
{
alignment = -1;
pos = (75,0);
ref = _part_n_shoulder;
}
);
width = 524;
},
{
anchors = (
{
name = cedilla;
pos = (104,0);
},
{
name = top;
pos = (104,720);
}
);
guides = (
{
angle = 90;
pos = (62,720);
},
{
angle = 90;
pos = (494,720);
},
{
angle = 90;
pos = (146,720);
}
);
layerId = m002;
shapes = (
{
closed = 1;
nodes = (
(146,0,l),
(146,720,l),
(62,720,l),
(62,0,l)
);
},
{
pos = (93,0);
ref = _part_n_shoulder;
}
);
width = 556;
},
{
anchors = (
{
name = cedilla;
pos = (136,0);
},
{
name = top;
pos = (136,720);
}
);
guides = (
{
angle = 90;
pos = (42,720);
},
{
angle = 90;
pos = (572,720);
},
{
angle = 90;
pos = (230,720);
}
);
layerId = m003;
shapes = (
{
closed = 1;
nodes = (
(230,0,l),
(230,720,l),
(42,720,l),
(42,0,l)
);
},
{
pos = (164,0);
ref = _part_n_shoulder;
}
);
width = 614;
}
);
unicode = 104;
},
{
glyphname = idotless;
lastChange = "2022-09-14 15:51:42 +0000";
layers = (
{
anchors = (
{
name = ogonek;
pos = (94,0);
},
{
name = top;
pos = (78,520);
}
);
guides = (
{
angle = 90;
pos = (62,520);
},
{
angle = 90;
pos = (94,520);
}
);
layerId = m01;
shapes = (
{
closed = 1;
nodes = (
(94,0,l),
(94,520,l),
(62,520,l),
(62,0,l)
);
}
);
width = 156;
},
{
anchors = (
{
name = ogonek;
pos = (144,0);
},
{
name = top;
pos = (102,520);
}
);
guides = (
{
angle = 90;
pos = (60,520);
},
{
angle = 90;
pos = (144,520);
}
);
layerId = m002;
shapes = (
{
closed = 1;
nodes = (
(144,0,l),
(144,520,l),
(60,520,l),
(60,0,l)
);
}
);
width = 204;
},
{
anchors = (
{
name = ogonek;
pos = (230,0);
},
{
name = top;
pos = (136,520);
}
);
guides = (
{
angle = 90;
pos = (42,520);
},
{
angle = 90;
pos = (230,520);
}
);
layerId = m003;
shapes = (
{
closed = 1;
nodes = (
(230,0,l),
(230,520,l),
(42,520,l),
(42,0,l)
);
}
);
width = 272;
}
);
unicode = 305;
},
{
color = 4;
glyphname = k;
lastChange = "2022-09-08 15:35:46 +0000";
layers = (
{
anchors = (
{
name = top;
pos = (78,720);
}
);
guides = (
{
angle = 90;
pos = (62,720);
},
{
angle = 90;
pos = (455,720);
},
{
angle = 90;
pos = (94,720);
}
);
layerId = m01;
shapes = (
{
closed = 1;
nodes = (
(455,520,l),
(412,520,l),
(82,210,l),
(82,170,l)
);
},
{
closed = 1;
nodes = (
(94,0,l),
(94,720,l),
(62,720,l),
(62,0,l)
);
},
{
closed = 1;
nodes = (
(469,0,l),
(232,327,l),
(210,306,l),
(432,0,l)
);
}
);
width = 487;
},
{
anchors = (
{
name = top;
pos = (106,720);
}
);
guides = (
{
angle = 90;
pos = (62,720);
},
{
angle = 90;
pos = (495,720);
},
{
angle = 90;
pos = (150,720);
}
);
layerId = m002;
shapes = (
{
closed = 1;
nodes = (
(495,520,l),
(385,520,l),
(136,262,l),
(136,156,l)
);
},
{
closed = 1;
nodes = (
(150,0,l),
(150,720,l),
(62,720,l),
(62,0,l)
);
},
{
closed = 1;
nodes = (
(513,0,l),
(274,346,l),
(215,284,l),
(410,0,l)
);
}
);
width = 517;
},
{
anchors = (
{
name = top;
pos = (134,720);
}
);
guides = (
{
angle = 90;
pos = (42,720);
},
{
angle = 90;
pos = (608,720);
},
{
angle = 90;
pos = (226,720);
}
);
layerId = m003;
shapes = (
{
closed = 1;
nodes = (
(608,520,l),
(396,520,l),
(202,318,l),
(202,110,l)
);
},
{
closed = 1;
nodes = (
(226,0,l),
(226,720,l),
(42,720,l),
(42,0,l)
);
},
{
closed = 1;
nodes = (
(616,0,l),
(388,372,l),
(259,247,l),
(402,0,l)
);
}
);
width = 618;
}
);
unicode = 107;
},
{
color = 4;
glyphname = m;
lastChange = "2022-09-07 15:34:09 +0000";
layers = (
{
anchors = (
{
name = top;
pos = (427,520);
}
);
guides = (
{
angle = 90;
pos = (62,520);
},
{
angle = 90;
pos = (792,520);
}
);
layerId = m01;
shapes = (
{
closed = 1;
nodes = (
(792,0,l),
(792,333,ls),
(792,462,o),
(714,532,o),
(615,532,cs),
(477,532,o),
(421,421,o),
(422,291,c),
(443,291,l),
(443,406,o),
(500,502,o),
(611,502,cs),
(692,502,o),
(760,446,o),
(760,329,cs),
(760,0,l)
);
},
{
alignment = -1;
pos = (62,0);
ref = _part_n_stem;
},
{
closed = 1;
nodes = (
(443,0,l),
(443,333,ls),
(443,462,o),
(365,532,o),
(266,532,cs),
(128,532,o),
(74,421,o),
(75,291,c),
(94,291,l),
(94,406,o),
(151,502,o),
(262,502,cs),
(343,502,o),
(411,446,o),
(411,329,cs),
(411,0,l)
);
}
);
width = 854;
},
{
anchors = (
{
name = top;
pos = (429,520);
}
);
guides = (
{
angle = 90;
pos = (62,520);
},
{
angle = 90;
pos = (796,520);
}
);
layerId = m002;
shapes = (
{
closed = 1;
nodes = (
(796,0,l),
(796,342,ls),
(796,434,o),
(742,532,o),
(622,532,cs),
(470,532,o),
(418,387,o),
(418,291,c),
(471,291,l),
(471,439,o),
(570,456,o),
(606,456,cs),
(674,456,o),
(712,406,o),
(712,334,cs),
(712,0,l)
);
},
{
alignment = -1;
pos = (62,0);
ref = _part_n_stem;
},
{
closed = 1;
nodes = (
(471,0,l),
(471,342,ls),
(471,434,o),
(417,532,o),
(297,532,cs),
(145,532,o),
(103,387,o),
(103,291,c),
(146,291,l),
(146,439,o),
(245,456,o),
(281,456,cs),
(349,456,o),
(387,406,o),
(387,334,cs),
(387,0,l)
);
}
);
width = 858;
},
{
anchors = (
{
name = top;
pos = (462,520);
}
);
guides = (
{
angle = 90;
pos = (42,520);
},
{
angle = 90;
pos = (882,520);
}
);
layerId = m003;
shapes = (
{
closed = 1;
nodes = (
(882,0,l),
(882,306,ls),
(882,474,o),
(799,532,o),
(706,532,cs),
(562,532,o),
(470,376,o),
(470,278,c),
(556,278,l),
(556,326,o),
(570,372,o),
(630,372,cs),
(681,372,o),
(694,330,o),
(694,282,cs),
(694,0,l)
);
},
{
alignment = -1;
pos = (42,0);
ref = _part_n_stem;
},
{
closed = 1;
nodes = (
(556,0,l),
(556,306,ls),
(556,474,o),
(473,532,o),
(380,532,cs),
(236,532,o),
(174,376,o),
(174,278,c),
(230,278,l),
(230,326,o),
(244,372,o),
(304,372,cs),
(355,372,o),
(368,330,o),
(368,282,cs),
(368,0,l)
);
}
);
width = 924;
}
);
unicode = 109;
},
{
color = 4;
glyphname = o;
lastChange = "2022-09-08 15:21:39 +0000";
layers = (
{
anchors = (
{
name = ogonek;
pos = (350,0);
},
{
name = top;
pos = (273,520);
}
);
layerId = m01;
shapes = (
{
closed = 1;
nodes = (
(425,-12,o),
(504,110,o),
(504,260,cs),
(504,410,o),
(425,532,o),
(273,532,cs),
(121,532,o),
(42,410,o),
(42,260,cs),
(42,110,o),
(121,-12,o),
(273,-12,cs)
);
},
{
closed = 1;
nodes = (
(141,18,o),
(74,128,o),
(74,260,cs),
(74,392,o),
(141,502,o),
(273,502,cs),
(405,502,o),
(472,392,o),
(472,260,cs),
(472,128,o),
(405,18,o),
(273,18,cs)
);
}
);
width = 546;
},
{
anchors = (
{
name = ogonek;
pos = (372,0);
},
{
name = top;
pos = (290,520);
}
);
layerId = m002;
shapes = (
{
closed = 1;
nodes = (
(446,-12,o),
(542,104,o),
(542,260,cs),
(542,416,o),
(446,532,o),
(290,532,cs),
(134,532,o),
(38,416,o),
(38,260,cs),
(38,104,o),
(134,-12,o),
(290,-12,cs)
);
},
{
closed = 1;
nodes = (
(180,64,o),
(126,146,o),
(126,260,cs),
(126,374,o),
(180,456,o),
(290,456,cs),
(400,456,o),
(454,374,o),
(454,260,cs),
(454,146,o),
(400,64,o),
(290,64,cs)
);
}
);
width = 580;
},
{
anchors = (
{
name = ogonek;
pos = (396,0);
},
{
name = top;
pos = (302,520);
}
);
layerId = m003;
shapes = (
{
closed = 1;
nodes = (
(486,-12,o),
(582,106,o),
(582,260,cs),
(582,414,o),
(486,532,o),
(302,532,cs),
(118,532,o),
(22,414,o),
(22,260,cs),
(22,106,o),
(118,-12,o),
(302,-12,cs)
);
},
{
closed = 1;
nodes = (
(234,136,o),
(210,182,o),
(210,260,cs),
(210,338,o),
(234,384,o),
(302,384,cs),
(370,384,o),
(394,338,o),
(394,260,cs),
(394,182,o),
(370,136,o),
(302,136,cs)
);
}
);
width = 604;
}
);
unicode = 111;
},
{
color = 4;
glyphname = r;
lastChange = "2022-09-07 12:57:39 +0000";
layers = (
{
anchors = (
{
name = top;
pos = (193,520);
}
);
guides = (
{
angle = 270;
pos = (324,520);
},
{
angle = 270;
pos = (62,520);
}
);
layerId = m01;
shapes = (
{
closed = 1;
nodes = (
(94,286,l),
(95,426,o),
(186,495,o),
(278,495,cs),
(324,495,l),
(324,526,l),
(283,526,ls),
(204,526,o),
(112,488,o),
(80,355,c),
(80,286,l)
);
},
{
alignment = -1;
pos = (62,0);
ref = _part_n_stem;
}
);
width = 346;
},
{
anchors = (
{
name = top;
pos = (205,520);
}
);
guides = (
{
angle = 270;
pos = (347,520);
},
{
angle = 270;
pos = (62,520);
}
);
layerId = m002;
shapes = (
{
closed = 1;
nodes = (
(146,278,l),
(146,408,o),
(218,445,o),
(306,445,c),
(347,445,l),
(347,526,l),
(308,526,l),
(237,526,o),
(169,502,o),
(127,403,c),
(127,278,l)
);
},
{
alignment = -1;
pos = (62,0);
ref = _part_n_stem;
}
);
width = 375;
},
{
anchors = (
{
name = top;
pos = (228,520);
}
);
guides = (
{
angle = 270;
pos = (414,520);
},
{
angle = 270;
pos = (42,520);
}
);
layerId = m003;
shapes = (
{
closed = 1;
nodes = (
(230,212,l),
(230,320,o),
(272,357,o),
(360,357,cs),
(414,357,l),
(414,526,l),
(370,526,ls),
(281,526,o),
(226,471,o),
(207,355,c),
(207,212,l)
);
},
{
alignment = -1;
pos = (42,0);
ref = _part_n_stem;
}
);
width = 436;
}
);
unicode = 114;
},
{
color = 4;
glyphname = s;
lastChange = "2022-09-07 10:20:52 +0000";
layers = (
{
anchors = (
{
name = bottom;
pos = (239,0);
},
{
name = cedilla;
pos = (239,-12);
},
{
name = top;
pos = (239,520);
}
);
layerId = m01;
shapes = (
{
closed = 1;
nodes = (
(346,-12,o),
(444,29,o),
(444,135,cs),
(444,211,o),
(405,255,o),
(256,278,cs),
(119,299,o),
(82,327,o),
(82,397,cs),
(82,467,o),
(148,504,o),
(235,504,cs),
(346,504,o),
(395,452,o),
(400,360,c),
(432,360,l),
(427,466,o),
(366,532,o),
(235,532,cs),
(128,532,o),
(50,482,o),
(50,396,cs),
(50,312,o),
(96,273,o),
(245,250,cs),
(384,229,o),
(412,196,o),
(412,134,cs),
(412,50,o),
(336,16,o),
(245,16,cs),
(134,16,o),
(71,74,o),
(66,170,c),
(34,170,l),
(38,62,o),
(112,-12,o),
(245,-12,cs)
);
}
);
width = 478;
},
{
anchors = (
{
name = bottom;
pos = (239,0);
},
{
name = cedilla;
pos = (239,-12);
},
{
name = top;
pos = (239,520);
}
);
layerId = m002;
shapes = (
{
closed = 1;
nodes = (
(365,-12,o),
(454,44,o),
(454,144,cs),
(454,230,o),
(412,274,o),
(259,301,cs),
(150,320,o),
(124,337,o),
(124,385,cs),
(124,433,o),
(172,459,o),
(231,459,cs),
(302,459,o),
(357,438,o),
(360,360,c),
(444,360,l),
(443,470,o),
(362,532,o),
(231,532,cs),
(120,532,o),
(40,474,o),
(40,384,cs),
(40,302,o),
(79,250,o),
(238,224,cs),
(353,205,o),
(369,185,o),
(369,139,cs),
(369,89,o),
(323,61,o),
(246,61,cs),
(163,61,o),
(117,90,o),
(109,170,c),
(24,170,l),
(31,44,o),
(121,-12,o),
(246,-12,cs)
);
}
);
width = 478;
},
{
anchors = (
{
name = bottom;
pos = (274,0);
},
{
name = cedilla;
pos = (274,-12);
},
{
name = top;
pos = (274,520);
}
);
layerId = m003;
shapes = (
{
closed = 1;
nodes = (
(430,-12,o),
(536,45,o),
(536,155,cs),
(536,243,o),
(485,302,o),
(317,326,cs),
(221,340,o),
(200,352,o),
(200,376,cs),
(200,400,o),
(226,415,o),
(268,415,cs),
(306,415,o),
(350,404,o),
(352,348,c),
(520,348,l),
(515,452,o),
(446,532,o),
(268,532,cs),
(112,532,o),
(18,473,o),
(18,363,cs),
(18,275,o),
(74,224,o),
(242,194,cs),
(338,177,o),
(351,166,o),
(351,142,cs),
(351,118,o),
(318,105,o),
(284,105,cs),
(232,105,o),
(197,118,o),
(190,172,c),
(12,172,l),
(21,34,o),
(116,-12,o),
(274,-12,cs)
);
}
);
width = 548;
}
);
unicode = 115;
},
{
glyphname = germandbls;
lastChange = "2022-09-02 14:59:16 +0000";
layers = (
{
guides = (
{
pos = (0,732);
},
{
pos = (0,720);
}
);
layerId = m01;
shapes = (
{
closed = 1;
nodes = (
(94,0,l),
(94,520,ls),
(94,635,o),
(156,703,o),
(252,703,cs),
(348,703,o),
(410,635,o),
(410,548,cs),
(410,458,o),
(349,394,o),
(223,394,cs),
(196,394,l),
(196,368,l),
(222,368,ls),
(370,368,o),
(442,442,o),
(442,548,cs),
(442,651,o),
(370,732,o),
(252,732,cs),
(134,732,o),
(62,651,o),
(62,520,cs),
(62,0,l)
);
},
{
closed = 1;
nodes = (
(402,-12,o),
(484,72,o),
(484,191,cs),
(484,310,o),
(402,390,o),
(254,390,cs),
(196,390,l),
(196,364,l),
(254,364,ls),
(380,364,o),
(451,294,o),
(451,191,cs),
(451,88,o),
(380,18,o),
(254,18,cs),
(228,18,o),
(202,19,o),
(176,25,c),
(176,-3,l),
(202,-9,o),
(228,-12,o),
(254,-12,cs)
);
}
);
width = 526;
},
{
guides = (
{
pos = (-825,732);
},
{
pos = (-825,720);
}
);
layerId = m002;
shapes = (
{
closed = 1;
nodes = (
(146,0,l),
(146,520,ls),
(146,605,o),
(192,656,o),
(270,656,cs),
(348,656,o),
(394,605,o),
(394,538,cs),
(394,467,o),
(349,419,o),
(270,419,cs),
(232,419,l),
(232,363,l),
(270,363,ls),
(386,363,o),
(480,427,o),
(480,538,cs),
(480,645,o),
(403,732,o),
(270,732,cs),
(137,732,o),
(62,645,o),
(62,520,cs),
(62,0,l)
);
},
{
closed = 1;
nodes = (
(442,-12,o),
(520,83,o),
(520,201,cs),
(520,322,o),
(442,407,o),
(274,407,cs),
(232,407,l),
(232,341,l),
(277,341,ls),
(385,341,o),
(432,282,o),
(432,201,cs),
(432,123,o),
(385,62,o),
(277,62,cs),
(255,62,o),
(234,64,o),
(212,68,c),
(212,-6,l),
(233,-10,o),
(256,-12,o),
(277,-12,cs)
);
}
);
width = 558;
},
{
guides = (
{
pos = (-370,732);
},
{
pos = (-370,720);
}
);
layerId = m003;
shapes = (
{
closed = 1;
nodes = (
(230,0,l),
(230,498,ls),
(230,546,o),
(264,572,o),
(306,572,cs),
(348,572,o),
(382,546,o),
(382,498,cs),
(382,450,o),
(348,424,o),
(306,424,cs),
(278,424,l),
(278,332,l),
(306,332,ls),
(454,332,o),
(550,412,o),
(550,534,cs),
(550,652,o),
(448,732,o),
(306,732,cs),
(138,732,o),
(42,652,o),
(42,498,cs),
(42,0,l)
);
},
{
closed = 1;
nodes = (
(500,-12,o),
(598,64,o),
(598,220,cs),
(598,346,o),
(500,420,o),
(306,420,cs),
(278,420,l),
(278,306,l),
(306,306,ls),
(360,306,o),
(406,284,o),
(406,220,cs),
(406,158,o),
(360,134,o),
(316,134,cs),
(303,134,o),
(289,135,o),
(276,138,c),
(276,-8,l),
(293,-11,o),
(309,-12,o),
(326,-12,cs)
);
}
);
width = 620;
}
);
unicode = 223;
},
{
color = 4;
glyphname = v;
lastChange = "2022-09-10 13:24:19 +0000";
layers = (
{
anchors = (
{
name = top;
pos = (255,520);
}
);
guides = (
{
angle = 90;
pos = (54,520);
},
{
angle = 90;
pos = (456,520);
}
);
layerId = m01;
shapes = (
{
closed = 1;
nodes = (
(269,0,l),
(54,520,l),
(20,520,l),
(239,0,l)
);
},
{
closed = 1;
nodes = (
(271,0,l),
(490,520,l),
(456,520,l),
(242,0,l)
);
}
);
width = 510;
},
{
anchors = (
{
name = top;
pos = (259,520);
}
);
guides = (
{
angle = 90;
pos = (99,520);
},
{
angle = 90;
pos = (419,520);
}
);
layerId = m002;
shapes = (
{
closed = 1;
nodes = (
(296,0,l),
(99,520,l),
(8,520,l),
(216,0,l)
);
},
{
closed = 1;
nodes = (
(302,0,l),
(510,520,l),
(419,520,l),
(223,0,l)
);
}
);
width = 518;
},
{
anchors = (
{
name = top;
pos = (298,520);
}
);
guides = (
{
angle = 90;
pos = (204,520);
},
{
angle = 90;
pos = (392,520);
}
);
layerId = m003;
shapes = (
{
closed = 1;
nodes = (
(345,0,l),
(204,520,l),
(2,520,l),
(185,0,l)
);
},
{
closed = 1;
nodes = (
(411,0,l),
(594,520,l),
(392,520,l),
(261,0,l)
);
}
);
width = 596;
}
);
unicode = 118;
},
{
color = 4;
glyphname = w;
lastChange = "2022-09-01 12:18:21 +0000";
layers = (
{
anchors = (
{
name = top;
pos = (411,520);
}
);
guides = (
{
pos = (1147,38);
},
{
angle = 90;
pos = (394,520);
},
{
angle = 90;
pos = (428,520);
}
);
layerId = m01;
shapes = (
{
closed = 1;
nodes = (
(606,0,l),
(804,520,l),
(772,520,l),
(575,0,l)
);
},
{
closed = 1;
nodes = (
(247,0,l),
(50,520,l),
(18,520,l),
(216,0,l)
);
},
{
closed = 1;
nodes = (
(250,0,l),
(424,520,l),
(394,520,l),
(220,0,l)
);
},
{
closed = 1;
nodes = (
(602,0,l),
(428,520,l),
(398,520,l),
(572,0,l)
);
}
);
width = 822;
},
{
anchors = (
{
name = top;
pos = (405,520);
}
);
guides = (
{
angle = 90;
pos = (361,520);
},
{
angle = 90;
pos = (448,520);
}
);
layerId = m002;
shapes = (
{
closed = 1;
nodes = (
(613,0,l),
(801,520,l),
(710,520,l),
(535,0,l)
);
},
{
closed = 1;
nodes = (
(274,0,l),
(99,520,l),
(8,520,l),
(196,0,l)
);
},
{
closed = 1;
nodes = (
(282,0,l),
(438,520,l),
(361,520,l),
(205,0,l)
);
},
{
closed = 1;
nodes = (
(604,0,l),
(448,520,l),
(371,520,l),
(527,0,l)
);
}
);
width = 809;
},
{
anchors = (
{
name = top;
pos = (452,520);
}
);
guides = (
{
angle = 90;
pos = (366,520);
},
{
angle = 90;
pos = (538,520);
}
);
layerId = m003;
shapes = (
{
closed = 1;
nodes = (
(729,0,l),
(902,520,l),
(700,520,l),
(553,0,l)
);
},
{
closed = 1;
nodes = (
(351,0,l),
(204,520,l),
(2,520,l),
(175,0,l)
);
},
{
closed = 1;
nodes = (
(373,0,l),
(514,520,l),
(366,520,l),
(235,0,l)
);
},
{
closed = 1;
nodes = (
(669,0,l),
(538,520,l),
(390,520,l),
(531,0,l)
);
}
);
width = 904;
}
);
unicode = 119;
},
{
color = 4;
glyphname = x;
lastChange = "2022-09-09 14:19:57 +0000";
layers = (
{
anchors = (
{
name = top;
pos = (240,520);
}
);
guides = (
{
angle = 90;
pos = (64,520);
},
{
angle = 90;
pos = (416,520);
}
);
layerId = m01;
shapes = (
{
closed = 1;
nodes = (
(462,0,l),
(64,520,l),
(27,520,l),
(425,0,l)
);
},
{
closed = 1;
nodes = (
(55,0,l),
(453,520,l),
(416,520,l),
(18,0,l)
);
}
);
width = 480;
},
{
anchors = (
{
name = top;
pos = (249,520);
}
);
guides = (
{
angle = 90;
pos = (114,520);
},
{
angle = 90;
pos = (384,520);
}
);
layerId = m002;
shapes = (
{
closed = 1;
nodes = (
(492,0,l),
(114,520,l),
(15,520,l),
(393,0,l)
);
},
{
closed = 1;
nodes = (
(104,0,l),
(482,520,l),
(384,520,l),
(6,0,l)
);
}
);
width = 498;
},
{
anchors = (
{
name = top;
pos = (290,520);
}
);
guides = (
{
angle = 90;
pos = (222,520);
},
{
angle = 90;
pos = (358,520);
}
);
layerId = m003;
shapes = (
{
closed = 1;
nodes = (
(580,0,l),
(222,520,l),
(10,520,l),
(368,0,l)
);
},
{
closed = 1;
nodes = (
(208,0,l),
(566,520,l),
(358,520,l),
(0,0,l)
);
}
);
width = 580;
}
);
unicode = 120;
},
{
color = 4;
glyphname = y;
lastChange = "2022-09-01 12:21:16 +0000";
layers = (
{
anchors = (
{
name = top;
pos = (245,520);
}
);
guides = (
{
angle = 68.2309;
pos = (192,-91);
},
{
angle = 68.119;
pos = (221,-100);
},
{
angle = 90;
pos = (54,520);
},
{
angle = 90;
pos = (436,520);
}
);
layerId = m01;
shapes = (
{
closed = 1;
nodes = (
(106,-200,ls),
(180,-200,o),
(198,-158,o),
(221,-100,cs),
(470,520,l),
(436,520,l),
(240,25,l),
(233,11,l),
(192,-91,ls),
(172,-141,o),
(159,-172,o),
(99,-172,cs),
(30,-172,l),
(30,-200,l)
);
},
{
closed = 1;
nodes = (
(254,14,l),
(54,520,l),
(20,520,l),
(238,-23,l)
);
}
);
width = 490;
},
{
anchors = (
{
name = top;
pos = (249,520);
}
);
guides = (
{
angle = 90;
pos = (99,520);
},
{
angle = 90;
pos = (399,520);
}
);
layerId = m002;
shapes = (
{
closed = 1;
nodes = (
(137,-200,ls),
(213,-200,o),
(236,-150,o),
(260,-86,cs),
(490,520,l),
(399,520,l),
(236,68,l),
(219,36,l),
(181,-65,ls),
(165,-109,o),
(153,-126,o),
(106,-126,cs),
(28,-126,l),
(28,-200,l)
);
},
{
closed = 1;
nodes = (
(276,28,l),
(99,520,l),
(8,520,l),
(234,-73,l)
);
}
);
width = 498;
},
{
anchors = (
{
name = top;
pos = (298,520);
}
);
guides = (
{
angle = 90;
pos = (204,520);
},
{
angle = 90;
pos = (392,520);
}
);
layerId = m003;
shapes = (
{
closed = 1;
nodes = (
(171,-200,ls),
(305,-200,o),
(365,-128,o),
(404,-18,cs),
(594,520,l),
(392,520,l),
(292,121,l),
(218,43,l),
(207,10,ls),
(190,-42,o),
(179,-54,o),
(122,-54,cs),
(32,-54,l),
(32,-200,l)
);
},
{
closed = 1;
nodes = (
(345,0,l),
(204,520,l),
(2,520,l),
(253,-165,l)
);
}
);
width = 596;
}
);
unicode = 121;
},
{
color = 4;
glyphname = z;
lastChange = "2022-08-07 12:16:23 +0000";
layers = (
{
anchors = (
{
name = top;
pos = (239,520);
}
);
layerId = m01;
shapes = (
{
closed = 1;
nodes = (
(434,493,l),
(408,503,l),
(34,27,l),
(57,13,l)
);
},
{
closed = 1;
nodes = (
(444,0,l),
(444,28,l),
(51,28,l),
(34,27,l),
(34,0,l)
);
},
{
closed = 1;
nodes = (
(417,492,l),
(434,493,l),
(434,520,l),
(44,520,l),
(44,492,l)
);
}
);
width = 478;
},
{
anchors = (
{
name = top;
pos = (248,520);
}
);
layerId = m002;
shapes = (
{
closed = 1;
nodes = (
(448,456,l),
(366,474,l),
(38,64,l),
(119,44,l)
);
},
{
closed = 1;
nodes = (
(458,0,l),
(458,74,l),
(88,74,l),
(38,64,l),
(38,0,l)
);
},
{
closed = 1;
nodes = (
(386,446,l),
(448,456,l),
(448,520,l),
(48,520,l),
(48,446,l)
);
}
);
width = 496;
},
{
anchors = (
{
name = top;
pos = (273,520);
}
);
layerId = m003;
shapes = (
{
closed = 1;
nodes = (
(498,402,l),
(322,444,l),
(38,118,l),
(201,61,l)
);
},
{
closed = 1;
nodes = (
(508,0,l),
(508,138,l),
(145,138,l),
(38,118,l),
(38,0,l)
);
},
{
closed = 1;
nodes = (
(396,382,l),
(498,402,l),
(498,520,l),
(38,520,l),
(38,382,l)
);
}
);
width = 546;
}
);
unicode = 122;
},
{
color = 6;
glyphname = l.ss02;
lastChange = "2022-09-15 13:28:58 +0000";
layers = (
{
anchors = (
{
name = caron.alt;
pos = (134,520);
},
{
name = slash;
pos = (78,375);
},
{
name = top;
pos = (78,720);
}
);
guides = (
{
angle = 90;
pos = (94,720);
},
{
angle = 90;
pos = (62,720);
},
{
angle = 180;
pos = (94,520);
}
);
layerId = m01;
shapes = (
{
closed = 1;
nodes = (
(94,0,l),
(94,720,l),
(62,720,l),
(62,0,l)
);
}
);
width = 156;
},
{
anchors = (
{
name = caron.alt;
pos = (186,520);
},
{
name = slash;
pos = (104,370);
},
{
name = top;
pos = (104,720);
}
);
guides = (
{
angle = 90;
pos = (146,720);
},
{
angle = 90;
pos = (62,720);
},
{
angle = 180;
pos = (146,520);
}
);
layerId = m002;
shapes = (
{
closed = 1;
nodes = (
(146,0,l),
(146,720,l),
(62,720,l),
(62,0,l)
);
}
);
width = 208;
},
{
anchors = (
{
name = caron.alt;
pos = (270,520);
},
{
name = slash;
pos = (136,364);
},
{
name = top;
pos = (136,720);
}
);
guides = (
{
angle = 90;
pos = (230,720);
},
{
angle = 90;
pos = (42,720);
},
{
angle = 180;
pos = (230,520);
}
);
layerId = m003;
shapes = (
{
closed = 1;
nodes = (
(230,0,l),
(230,720,l),
(42,720,l),
(42,0,l)
);
}
);
width = 272;
}
);
},
{
color = 6;
glyphname = t.ss03;
lastChange = "2022-09-15 13:29:34 +0000";
layers = (
{
anchors = (
{
name = caron.alt;
pos = (186,520);
},
{
name = cedilla;
pos = (130,0);
},
{
name = top;
pos = (130,680);
}
);
guides = (
{
angle = 90;
pos = (272,0);
},
{
angle = 90;
pos = (114,0);
},
{
angle = 90;
pos = (146,0);
},
{
angle = 90;
pos = (14,0);
}
);
layerId = m01;
shapes = (
{
closed = 1;
nodes = (
(146,0,l),
(146,680,l),
(114,680,l),
(114,0,l)
);
},
{
alignment = -1;
piece = {
"width-L" = -54;
"width-R" = -60;
};
pos = (-40,0);
ref = _part_f_crossbar;
}
);
width = 296;
},
{
anchors = (
{
name = caron.alt;
pos = (230,520);
},
{
name = cedilla;
pos = (156,0);
},
{
name = top;
pos = (156,680);
}
);
guides = (
{
angle = 90;
pos = (114,0);
},
{
angle = 90;
pos = (198,0);
},
{
angle = 90;
pos = (18,0);
},
{
angle = 90;
pos = (318,0);
}
);
layerId = m002;
shapes = (
{
closed = 1;
nodes = (
(198,0,l),
(198,680,l),
(114,680,l),
(114,0,l)
);
},
{
alignment = -1;
piece = {
"width-L" = -52;
"width-R" = -58;
};
pos = (-34,0);
ref = _part_f_crossbar;
}
);
width = 346;
},
{
anchors = (
{
name = caron.alt;
pos = (316,520);
},
{
name = cedilla;
pos = (190,0);
},
{
name = top;
pos = (190,680);
}
);
guides = (
{
angle = 90;
pos = (96,0);
},
{
angle = 90;
pos = (284,0);
},
{
angle = 90;
pos = (12,0);
},
{
angle = 90;
pos = (384,0);
}
);
layerId = m003;
shapes = (
{
closed = 1;
nodes = (
(284,0,l),
(284,680,l),
(96,680,l),
(96,0,l)
);
},
{
alignment = -1;
piece = {
"width-L" = -54;
"width-R" = -64;
};
pos = (-42,0);
ref = _part_f_crossbar;
}
);
width = 406;
}
);
},
{
color = 6;
glyphname = u.ss04;
lastChange = "2022-09-17 09:15:54 +0000";
layers = (
{
anchors = (
{
name = bottom;
pos = (262,0);
},
{
name = ogonek;
pos = (342,0);
},
{
name = top;
pos = (262,520);
}
);
guides = (
{
angle = 90;
pos = (94,520);
},
{
angle = 90;
pos = (430,520);
},
{
angle = 90;
pos = (62,520);
},
{
angle = 90;
pos = (462,520);
}
);
layerId = m01;
shapes = (
{
closed = 1;
nodes = (
(385,-12,o),
(462,57,o),
(462,197,cs),
(462,520,l),
(430,520,l),
(430,201,ls),
(430,73,o),
(363,16,o),
(262,16,cs),
(161,16,o),
(94,73,o),
(94,201,cs),
(94,520,l),
(62,520,l),
(62,197,ls),
(62,57,o),
(139,-12,o),
(262,-12,cs)
);
}
);
width = 524;
},
{
anchors = (
{
name = bottom;
pos = (278,0);
},
{
name = ogonek;
pos = (362,0);
},
{
name = top;
pos = (278,520);
}
);
guides = (
{
angle = 90;
pos = (494,520);
},
{
angle = 90;
pos = (62,520);
},
{
angle = 90;
pos = (146,520);
},
{
angle = 90;
pos = (410,520);
}
);
layerId = m002;
shapes = (
{
closed = 1;
nodes = (
(431,-12,o),
(494,86,o),
(494,188,cs),
(494,520,l),
(410,520,l),
(410,196,ls),
(410,114,o),
(363,62,o),
(278,62,cs),
(193,62,o),
(146,114,o),
(146,196,cs),
(146,520,l),
(62,520,l),
(62,188,ls),
(62,86,o),
(125,-12,o),
(278,-12,cs)
);
}
);
width = 556;
},
{
anchors = (
{
name = bottom;
pos = (307,0);
},
{
name = ogonek;
pos = (411,0);
},
{
name = top;
pos = (307,520);
}
);
guides = (
{
angle = 90;
pos = (572,520);
},
{
angle = 90;
pos = (42,520);
},
{
angle = 90;
pos = (228,520);
},
{
angle = 90;
pos = (386,520);
}
);
layerId = m003;
shapes = (
{
closed = 1;
nodes = (
(467,-12,o),
(572,54,o),
(572,230,cs),
(572,520,l),
(386,520,l),
(386,234,ls),
(386,172,o),
(371,134,o),
(307,134,cs),
(243,134,o),
(228,172,o),
(228,234,cs),
(228,520,l),
(42,520,l),
(42,230,ls),
(42,54,o),
(147,-12,o),
(307,-12,cs)
);
}
);
width = 614;
}
);
},
{
color = 6;
glyphname = y.ss05;
lastChange = "2022-09-15 13:30:59 +0000";
layers = (
{
anchors = (
{
name = top;
pos = (255,520);
}
);
guides = (
{
angle = 90;
pos = (54,520);
},
{
angle = 90;
pos = (456,520);
}
);
layerId = m01;
shapes = (
{
closed = 1;
nodes = (
(187,-200,l),
(490,520,l),
(456,520,l),
(249,24,l),
(243,11,l),
(155,-200,l)
);
},
{
closed = 1;
nodes = (
(265,10,l),
(54,520,l),
(20,520,l),
(249,-24,l)
);
}
);
width = 510;
},
{
anchors = (
{
name = top;
pos = (259,520);
}
);
guides = (
{
angle = 90;
pos = (99,520);
},
{
angle = 90;
pos = (419,520);
}
);
layerId = m002;
shapes = (
{
closed = 1;
nodes = (
(222,-200,l),
(510,520,l),
(419,520,l),
(247,76,l),
(231,37,l),
(139,-200,l)
);
},
{
closed = 1;
nodes = (
(288,46,l),
(99,520,l),
(8,520,l),
(247,-53,l)
);
}
);
width = 518;
},
{
anchors = (
{
name = top;
pos = (303,520);
}
);
guides = (
{
angle = 90;
pos = (204,520);
},
{
angle = 90;
pos = (402,520);
}
);
layerId = m003;
shapes = (
{
closed = 1;
nodes = (
(295,-200,l),
(604,520,l),
(402,520,l),
(286,178,l),
(247,105,l),
(115,-200,l)
);
},
{
closed = 1;
nodes = (
(361,44,l),
(204,520,l),
(2,520,l),
(271,-137,l)
);
}
);
width = 606;
}
);
},
{
color = 4;
glyphname = zero;
lastChange = "2022-08-30 12:50:44 +0000";
layers = (
{
layerId = m01;
shapes = (
{
closed = 1;
nodes = (
(465,-12,o),
(522,154,o),
(522,360,cs),
(522,566,o),
(465,732,o),
(289,732,cs),
(113,732,o),
(56,566,o),
(56,360,cs),
(56,154,o),
(113,-12,o),
(289,-12,cs)
);
},
{
closed = 1;
nodes = (
(133,18,o),
(88,172,o),
(88,360,cs),
(88,548,o),
(133,702,o),
(289,702,cs),
(445,702,o),
(490,548,o),
(490,360,cs),
(490,172,o),
(445,18,o),
(289,18,cs)
);
}
);
width = 578;
},
{
layerId = m002;
shapes = (
{
closed = 1;
nodes = (
(487,-12,o),
(552,144,o),
(552,360,cs),
(552,576,o),
(487,732,o),
(301,732,cs),
(115,732,o),
(50,576,o),
(50,360,cs),
(50,144,o),
(115,-12,o),
(301,-12,cs)
);
},
{
closed = 1;
nodes = (
(181,68,o),
(142,184,o),
(142,360,cs),
(142,536,o),
(181,652,o),
(301,652,cs),
(421,652,o),
(460,536,o),
(460,360,cs),
(460,184,o),
(421,68,o),
(301,68,cs)
);
}
);
width = 602;
},
{
layerId = m003;
shapes = (
{
closed = 1;
nodes = (
(569,-12,o),
(658,144,o),
(658,360,cs),
(658,576,o),
(569,732,o),
(345,732,cs),
(121,732,o),
(32,576,o),
(32,360,cs),
(32,144,o),
(121,-12,o),
(345,-12,cs)
);
},
{
closed = 1;
nodes = (
(263,154,o),
(244,232,o),
(244,360,cs),
(244,488,o),
(263,566,o),
(345,566,cs),
(427,566,o),
(446,488,o),
(446,360,cs),
(446,232,o),
(427,154,o),
(345,154,cs)
);
}
);
width = 690;
}
);
unicode = 48;
},
{
color = 4;
glyphname = one;
lastChange = "2022-08-15 13:20:45 +0000";
layers = (
{
layerId = m01;
shapes = (
{
closed = 1;
nodes = (
(247,0,l),
(247,720,l),
(216,720,l),
(215,695,l),
(215,0,l)
);
},
{
closed = 1;
nodes = (
(234,696,l),
(216,720,l),
(46,590,l),
(46,552,l)
);
}
);
width = 313;
},
{
layerId = m002;
shapes = (
{
closed = 1;
nodes = (
(299,0,l),
(299,720,l),
(217,720,l),
(211,659,l),
(211,0,l)
);
},
{
closed = 1;
nodes = (
(255,647,l),
(217,720,l),
(48,596,l),
(48,495,l)
);
}
);
width = 367;
},
{
layerId = m003;
shapes = (
{
closed = 1;
nodes = (
(366,0,l),
(366,720,l),
(174,720,l),
(162,594,l),
(162,0,l)
);
},
{
closed = 1;
nodes = (
(238,565,l),
(174,720,l),
(22,619,l),
(22,419,l)
);
}
);
width = 418;
}
);
locked = 1;
unicode = 49;
},
{
color = 4;
glyphname = two;
lastChange = "2022-08-14 12:55:10 +0000";
layers = (
{
layerId = m01;
shapes = (
{
closed = 1;
nodes = (
(351,307,ls),
(424,384,o),
(473,461,o),
(473,543,cs),
(473,646,o),
(397,732,o),
(267,732,cs),
(143,732,o),
(54,645,o),
(48,517,c),
(80,517,l),
(84,631,o),
(168,702,o),
(268,702,cs),
(368,702,o),
(442,639,o),
(442,545,cs),
(442,463,o),
(389,392,o),
(332,332,cs),
(48,30,l),
(74,17,l)
);
},
{
closed = 1;
nodes = (
(486,0,l),
(486,31,l),
(72,31,l),
(48,30,l),
(48,0,l)
);
}
);
width = 524;
},
{
layerId = m002;
shapes = (
{
closed = 1;
nodes = (
(390,301,ls),
(453,363,o),
(510,445,o),
(510,533,cs),
(510,639,o),
(426,732,o),
(285,732,cs),
(144,732,o),
(49,645,o),
(48,493,c),
(136,493,l),
(135,601,o),
(199,652,o),
(285,652,cs),
(371,652,o),
(424,606,o),
(424,533,cs),
(424,464,o),
(382,408,o),
(330,356,cs),
(48,78,l),
(127,45,l)
);
},
{
closed = 1;
nodes = (
(520,0,l),
(520,80,l),
(111,80,l),
(48,78,l),
(48,0,l)
);
}
);
width = 554;
},
{
layerId = m003;
shapes = (
{
closed = 1;
nodes = (
(451,289,ls),
(515,341,o),
(582,409,o),
(582,515,cs),
(582,649,o),
(465,732,o),
(309,732,cs),
(117,732,o),
(29,636,o),
(30,476,c),
(224,476,l),
(223,535,o),
(253,566,o),
(309,566,cs),
(353,566,o),
(384,542,o),
(384,500,cs),
(384,456,o),
(360,421,o),
(325,393,cs),
(30,156,l),
(216,96,l)
);
},
{
closed = 1;
nodes = (
(588,0,l),
(588,166,l),
(197,166,l),
(30,156,l),
(30,0,l)
);
}
);
width = 626;
}
);
unicode = 50;
},
{
color = 4;
glyphname = three;
lastChange = "2022-08-15 13:14:15 +0000";
layers = (
{
layerId = m01;
shapes = (
{
closed = 1;
nodes = (
(408,-12,o),
(500,68,o),
(500,186,cs),
(500,301,o),
(421,380,o),
(271,380,cs),
(207,380,l),
(207,355,l),
(249,355,ls),
(385,355,o),
(468,301,o),
(468,186,cs),
(468,84,o),
(391,18,o),
(274,18,cs),
(147,18,o),
(85,90,o),
(76,201,c),
(44,201,l),
(55,64,o),
(135,-12,o),
(274,-12,cs)
);
},
{
closed = 1;
nodes = (
(271,361,ls),
(421,361,o),
(480,460,o),
(480,549,cs),
(480,647,o),
(399,732,o),
(274,732,cs),
(145,732,o),
(68,649,o),
(59,519,c),
(91,519,l),
(98,636,o),
(163,702,o),
(275,702,cs),
(373,702,o),
(448,641,o),
(448,549,cs),
(448,460,o),
(389,383,o),
(249,383,cs),
(207,383,l),
(207,361,l)
);
}
);
width = 538;
},
{
layerId = m002;
shapes = (
{
closed = 1;
nodes = (
(443,-12,o),
(535,79,o),
(535,200,cs),
(535,313,o),
(458,389,o),
(282,389,cs),
(214,389,l),
(214,327,l),
(272,327,ls),
(382,327,o),
(447,296,o),
(447,200,cs),
(447,120,o),
(388,68,o),
(293,68,cs),
(182,68,o),
(139,122,o),
(136,214,c),
(48,214,l),
(50,72,o),
(134,-12,o),
(293,-12,cs)
);
},
{
closed = 1;
nodes = (
(255,342,ls),
(447,342,o),
(515,454,o),
(515,537,cs),
(515,641,o),
(431,732,o),
(289,732,cs),
(129,732,o),
(58,645,o),
(52,506,c),
(140,506,l),
(143,601,o),
(188,652,o),
(287,652,cs),
(368,652,o),
(427,610,o),
(427,537,cs),
(427,460,o),
(370,405,o),
(265,405,cs),
(214,405,l),
(214,342,l)
);
}
);
width = 573;
},
{
layerId = m003;
shapes = (
{
closed = 1;
nodes = (
(513,-12,o),
(611,83,o),
(611,212,cs),
(611,313,o),
(534,397,o),
(389,397,c),
(242,397,l),
(242,300,l),
(301,300,ls),
(366,300,o),
(411,287,o),
(411,224,cs),
(411,174,o),
(376,144,o),
(321,144,cs),
(268,144,o),
(229,174,o),
(226,233,c),
(32,233,l),
(34,75,o),
(135,-12,o),
(325,-12,cs)
);
},
{
closed = 1;
nodes = (
(410,367,l),
(547,367,o),
(592,443,o),
(592,526,cs),
(592,635,o),
(500,732,o),
(321,732,cs),
(141,732,o),
(47,647,o),
(47,496,c),
(241,496,l),
(241,550,o),
(271,576,o),
(318,576,cs),
(365,576,o),
(394,550,o),
(394,505,cs),
(394,448,o),
(355,438,o),
(286,438,cs),
(242,438,l),
(242,367,l)
);
}
);
width = 639;
}
);
unicode = 51;
},
{
color = 4;
glyphname = four;
lastChange = "2022-08-15 13:01:24 +0000";
layers = (
{
layerId = m01;
shapes = (
{
closed = 1;
nodes = (
(430,696,l),
(412,720,l),
(28,220,l),
(53,201,l)
);
},
{
closed = 1;
nodes = (
(566,188,l),
(566,218,l),
(48,218,l),
(28,220,l),
(28,188,l)
);
},
{
closed = 1;
nodes = (
(448,0,l),
(448,198,l),
(416,198,l),
(416,0,l)
);
},
{
closed = 1;
nodes = (
(448,208,l),
(448,720,l),
(412,720,l),
(416,699,l),
(416,208,l)
);
}
);
width = 584;
},
{
layerId = m002;
shapes = (
{
closed = 1;
nodes = (
(431,659,l),
(384,720,l),
(28,248,l),
(90,201,l)
);
},
{
closed = 1;
nodes = (
(578,164,l),
(578,244,l),
(82,244,l),
(28,248,l),
(28,164,l)
);
},
{
closed = 1;
nodes = (
(478,0,l),
(478,188,l),
(390,188,l),
(390,0,l)
);
},
{
closed = 1;
nodes = (
(478,218,l),
(478,720,l),
(384,720,l),
(390,659,l),
(390,218,l)
);
}
);
width = 600;
},
{
layerId = m003;
shapes = (
{
closed = 1;
nodes = (
(436,604,l),
(354,720,l),
(38,318,l),
(154,234,l)
);
},
{
closed = 1;
nodes = (
(672,132,l),
(672,298,l),
(127,298,l),
(38,318,l),
(38,132,l)
);
},
{
closed = 1;
nodes = (
(578,0,l),
(578,178,l),
(374,178,l),
(374,0,l)
);
},
{
closed = 1;
nodes = (
(578,248,l),
(578,720,l),
(354,720,l),
(380,630,l),
(380,248,l)
);
}
);
width = 704;
}
);
locked = 1;
unicode = 52;
},
{
color = 4;
glyphname = five;
lastChange = "2022-08-15 12:59:54 +0000";
layers = (
{
layerId = m01;
shapes = (
{
closed = 1;
nodes = (
(410,-12,o),
(493,89,o),
(493,224,cs),
(493,359,o),
(411,460,o),
(274,460,cs),
(186,460,o),
(132,428,o),
(87,359,c),
(78,332,l),
(93,314,l),
(125,384,o),
(179,430,o),
(273,430,cs),
(389,430,o),
(460,343,o),
(460,224,cs),
(460,105,o),
(389,18,o),
(273,18,cs),
(163,18,o),
(98,87,o),
(84,179,c),
(52,179,l),
(65,71,o),
(142,-12,o),
(273,-12,cs)
);
},
{
closed = 1;
nodes = (
(93,314,l),
(104,364,l),
(152,702,l),
(123,720,l),
(64,314,l)
);
},
{
closed = 1;
nodes = (
(461,690,l),
(461,720,l),
(123,720,l),
(133,690,l)
);
}
);
width = 527;
},
{
layerId = m002;
shapes = (
{
closed = 1;
nodes = (
(437,-12,o),
(521,94,o),
(521,230,cs),
(521,366,o),
(444,472,o),
(287,472,cs),
(225,472,o),
(177,448,o),
(139,409,c),
(117,333,l),
(144,306,l),
(170,360,o),
(205,392,o),
(280,392,cs),
(374,392,o),
(429,326,o),
(429,230,cs),
(429,134,o),
(374,68,o),
(280,68,cs),
(200,68,o),
(143,116,o),
(136,196,c),
(48,196,l),
(55,76,o),
(138,-12,o),
(280,-12,cs)
);
},
{
closed = 1;
nodes = (
(144,306,l),
(151,364,l),
(196,668,l),
(122,720,l),
(62,306,l)
);
},
{
closed = 1;
nodes = (
(490,640,l),
(490,720,l),
(122,720,l),
(163,640,l)
);
}
);
width = 559;
},
{
layerId = m003;
shapes = (
{
closed = 1;
nodes = (
(461,-12,o),
(593,81,o),
(593,246,cs),
(593,361,o),
(518,480,o),
(352,480,cs),
(306,480,o),
(250,469,o),
(218,429,c),
(187,341,l),
(224,295,l),
(239,323,o),
(270,348,o),
(309,348,cs),
(366,348,o),
(405,305,o),
(405,246,cs),
(405,187,o),
(366,142,o),
(309,142,cs),
(253,142,o),
(226,174,o),
(218,208,c),
(28,208,l),
(49,70,o),
(156,-12,o),
(309,-12,cs)
);
},
{
closed = 1;
nodes = (
(224,295,l),
(226,363,l),
(261,588,l),
(100,720,l),
(36,295,l)
);
},
{
closed = 1;
nodes = (
(556,554,l),
(556,720,l),
(100,720,l),
(172,554,l)
);
}
);
width = 615;
}
);
unicode = 53;
},
{
color = 4;
glyphname = six;
lastChange = "2022-08-15 13:01:50 +0000";
layers = (
{
layerId = m01;
shapes = (
{
closed = 1;
nodes = (
(297,0,l),
(188,32,l),
(117,121,l),
(95,226,l),
(74,417,o),
(90,702,o),
(297,702,cs),
(383,702,o),
(447,637,o),
(465,550,c),
(497,550,l),
(478,652,o),
(403,732,o),
(297,732,cs),
(123,732,o),
(56,570,o),
(56,353,cs),
(56,222,o),
(83,101,o),
(158,36,cs),
(193,6,o),
(238,-12,o),
(297,-12,c)
);
},
{
closed = 1;
nodes = (
(183,18,o),
(111,105,o),
(111,223,cs),
(111,341,o),
(183,428,o),
(297,428,cs),
(411,428,o),
(483,341,o),
(483,223,cs),
(483,105,o),
(411,18,o),
(297,18,cs)
);
},
{
closed = 1;
nodes = (
(433,-12,o),
(516,89,o),
(516,223,cs),
(516,357,o),
(433,458,o),
(297,458,cs),
(161,458,o),
(86,357,o),
(86,223,cs),
(86,79,o),
(191,-12,o),
(297,-12,cs)
);
}
);
width = 568;
},
{
layerId = m002;
shapes = (
{
closed = 1;
nodes = (
(306,14,l),
(205,61,l),
(145,171,l),
(137,339,ls),
(128,535,o),
(189,652,o),
(306,652,cs),
(373,652,o),
(427,611,o),
(442,535,c),
(528,535,l),
(508,656,o),
(419,732,o),
(306,732,cs),
(138,732,o),
(51,584,o),
(51,357,cs),
(51,230,o),
(71,109,o),
(159,39,cs),
(198,8,o),
(242,-12,o),
(306,-12,c)
);
},
{
closed = 1;
nodes = (
(218,68,o),
(161,133,o),
(161,229,cs),
(161,325,o),
(218,390,o),
(306,390,cs),
(394,390,o),
(451,325,o),
(451,229,cs),
(451,133,o),
(394,68,o),
(306,68,cs)
);
},
{
closed = 1;
nodes = (
(458,-12,o),
(542,93,o),
(542,229,cs),
(542,365,o),
(458,470,o),
(306,470,cs),
(178,470,o),
(94,365,o),
(94,229,cs),
(94,93,o),
(198,-12,o),
(306,-12,cs)
);
}
);
width = 590;
},
{
layerId = m003;
shapes = (
{
closed = 1;
nodes = (
(327,48,l),
(269,86,l),
(222,193,l),
(214,375,l),
(216,542,o),
(258,588,o),
(329,588,cs),
(367,588,o),
(398,567,o),
(408,520,c),
(592,520,l),
(574,655,o),
(466,732,o),
(327,732,cs),
(140,732,o),
(32,600,o),
(32,340,cs),
(32,197,o),
(73,96,o),
(154,40,cs),
(202,6,o),
(256,-12,o),
(327,-12,c)
);
},
{
closed = 1;
nodes = (
(260,140,o),
(234,186,o),
(234,240,cs),
(234,293,o),
(260,339,o),
(327,339,cs),
(394,339,o),
(420,293,o),
(420,240,cs),
(420,186,o),
(394,140,o),
(327,140,cs)
);
},
{
closed = 1;
nodes = (
(489,-12,o),
(606,81,o),
(606,245,cs),
(606,359,o),
(541,477,o),
(365,477,cs),
(214,477,o),
(153,359,o),
(153,245,cs),
(153,81,o),
(266,-12,o),
(327,-12,cs)
);
}
);
width = 634;
}
);
unicode = 54;
},
{
color = 4;
glyphname = seven;
lastChange = "2022-08-15 13:08:45 +0000";
layers = (
{
layerId = m01;
shapes = (
{
closed = 1;
nodes = (
(165,0,l),
(466,692,l),
(439,705,l),
(132,0,l)
);
},
{
closed = 1;
nodes = (
(450,690,l),
(466,692,l),
(466,720,l),
(26,720,l),
(26,690,l)
);
}
);
width = 492;
},
{
layerId = m002;
shapes = (
{
closed = 1;
nodes = (
(197,0,l),
(476,646,l),
(400,668,l),
(106,0,l)
);
},
{
closed = 1;
nodes = (
(416,640,l),
(476,646,l),
(476,720,l),
(22,720,l),
(22,640,l)
);
}
);
width = 498;
},
{
layerId = m003;
shapes = (
{
closed = 1;
nodes = (
(296,0,l),
(538,566,l),
(352,595,l),
(88,0,l)
);
},
{
closed = 1;
nodes = (
(373,554,l),
(538,566,l),
(538,720,l),
(12,720,l),
(12,554,l)
);
}
);
width = 550;
}
);
unicode = 55;
},
{
color = 4;
glyphname = eight;
lastChange = "2022-08-07 12:38:55 +0000";
layers = (
{
layerId = m01;
shapes = (
{
closed = 1;
nodes = (
(428,-12,o),
(520,75,o),
(520,194,cs),
(520,313,o),
(418,396,o),
(278,396,cs),
(138,396,o),
(36,313,o),
(36,194,cs),
(36,75,o),
(128,-12,o),
(278,-12,cs)
);
},
{
closed = 1;
nodes = (
(146,18,o),
(69,92,o),
(69,194,cs),
(69,296,o),
(146,370,o),
(278,370,cs),
(410,370,o),
(487,296,o),
(487,194,cs),
(487,92,o),
(410,18,o),
(278,18,cs)
);
},
{
closed = 1;
nodes = (
(390,372,o),
(493,439,o),
(493,550,cs),
(493,661,o),
(400,732,o),
(278,732,cs),
(156,732,o),
(63,661,o),
(63,550,cs),
(63,439,o),
(166,372,o),
(278,372,cs)
);
},
{
closed = 1;
nodes = (
(177,398,o),
(96,456,o),
(96,550,cs),
(96,644,o),
(177,702,o),
(278,702,cs),
(379,702,o),
(460,644,o),
(460,550,cs),
(460,456,o),
(379,398,o),
(278,398,cs)
);
}
);
width = 556;
},
{
layerId = m002;
shapes = (
{
closed = 1;
nodes = (
(430,-12,o),
(536,72,o),
(536,207,cs),
(536,342,o),
(420,406,o),
(287,406,cs),
(154,406,o),
(38,342,o),
(38,207,cs),
(38,72,o),
(144,-12,o),
(287,-12,cs)
);
},
{
closed = 1;
nodes = (
(196,68,o),
(130,117,o),
(130,207,cs),
(130,297,o),
(196,346,o),
(287,346,cs),
(378,346,o),
(444,297,o),
(444,207,cs),
(444,117,o),
(378,68,o),
(287,68,cs)
);
},
{
closed = 1;
nodes = (
(393,360,o),
(508,409,o),
(508,536,cs),
(508,663,o),
(403,732,o),
(287,732,cs),
(171,732,o),
(66,663,o),
(66,536,cs),
(66,409,o),
(181,360,o),
(287,360,cs)
);
},
{
closed = 1;
nodes = (
(216,420,o),
(154,459,o),
(154,536,cs),
(154,613,o),
(216,652,o),
(287,652,cs),
(358,652,o),
(420,613,o),
(420,536,cs),
(420,459,o),
(358,420,o),
(287,420,cs)
);
}
);
width = 574;
},
{
layerId = m003;
shapes = (
{
closed = 1;
nodes = (
(501,-12,o),
(612,82,o),
(612,207,cs),
(612,332,o),
(511,416,o),
(316,416,cs),
(121,416,o),
(20,332,o),
(20,207,cs),
(20,82,o),
(131,-12,o),
(316,-12,cs)
);
},
{
closed = 1;
nodes = (
(242,140,o),
(216,185,o),
(216,228,cs),
(216,273,o),
(245,315,o),
(316,315,cs),
(387,315,o),
(416,273,o),
(416,228,cs),
(416,185,o),
(390,140,o),
(316,140,cs)
);
},
{
closed = 1;
nodes = (
(478,330,o),
(583,410,o),
(583,531,cs),
(583,652,o),
(478,732,o),
(316,732,cs),
(154,732,o),
(49,652,o),
(49,531,cs),
(49,410,o),
(154,330,o),
(316,330,cs)
);
},
{
closed = 1;
nodes = (
(251,435,o),
(227,475,o),
(227,513,cs),
(227,554,o),
(254,594,o),
(316,594,cs),
(378,594,o),
(405,554,o),
(405,513,cs),
(405,475,o),
(381,435,o),
(316,435,cs)
);
}
);
width = 630;
}
);
locked = 1;
unicode = 56;
},
{
color = 6;
glyphname = three.ss09;
lastChange = "2022-09-15 13:34:00 +0000";
layers = (
{
layerId = m01;
shapes = (
{
closed = 1;
nodes = (
(408,-12,o),
(500,78,o),
(500,206,cs),
(500,317,o),
(439,425,o),
(211,425,c),
(197,421,l),
(197,395,l),
(209,395,ls),
(385,395,o),
(468,331,o),
(468,206,cs),
(468,94,o),
(396,18,o),
(274,18,cs),
(152,18,o),
(81,90,o),
(76,201,c),
(44,201,l),
(55,64,o),
(140,-12,o),
(274,-12,cs)
);
},
{
closed = 1;
nodes = (
(480,692,l),
(454,706,l),
(197,421,l),
(222,408,l)
);
},
{
closed = 1;
nodes = (
(458,690,l),
(480,692,l),
(480,720,l),
(64,720,l),
(64,690,l)
);
}
);
width = 538;
},
{
layerId = m002;
shapes = (
{
closed = 1;
nodes = (
(440,-12,o),
(533,89,o),
(533,210,cs),
(533,364,o),
(433,445,o),
(224,445,c),
(200,437,l),
(200,367,l),
(231,367,ls),
(380,367,o),
(445,316,o),
(445,210,cs),
(445,130,o),
(392,68,o),
(292,68,cs),
(192,68,o),
(139,122,o),
(136,214,c),
(48,214,l),
(50,72,o),
(144,-12,o),
(292,-12,cs)
);
},
{
closed = 1;
nodes = (
(520,646,l),
(441,673,l),
(200,437,l),
(274,403,l)
);
},
{
closed = 1;
nodes = (
(460,640,l),
(520,646,l),
(520,720,l),
(68,720,l),
(68,640,l)
);
}
);
width = 571;
},
{
layerId = m003;
shapes = (
{
closed = 1;
nodes = (
(513,-12,o),
(611,95,o),
(611,224,cs),
(611,393,o),
(461,458,o),
(276,458,c),
(212,438,l),
(212,320,l),
(291,320,ls),
(376,320,o),
(411,287,o),
(411,234,cs),
(411,174,o),
(366,144,o),
(321,144,cs),
(268,144,o),
(229,174,o),
(226,233,c),
(32,233,l),
(34,75,o),
(135,-12,o),
(325,-12,cs)
);
},
{
closed = 1;
nodes = (
(581,566,l),
(416,608,l),
(212,438,l),
(369,385,l)
);
},
{
closed = 1;
nodes = (
(446,554,l),
(581,566,l),
(581,720,l),
(58,720,l),
(58,554,l)
);
}
);
width = 639;
}
);
},
{
color = 6;
glyphname = six.ss09;
lastChange = "2022-09-15 13:34:14 +0000";
layers = (
{
layerId = m01;
shapes = (
{
closed = 1;
nodes = (
(411,-12,o),
(494,89,o),
(494,223,cs),
(494,357,o),
(411,458,o),
(275,458,cs),
(139,458,o),
(56,357,o),
(56,223,cs),
(56,89,o),
(139,-12,o),
(275,-12,cs)
);
},
{
closed = 1;
nodes = (
(161,18,o),
(89,105,o),
(89,223,cs),
(89,341,o),
(161,428,o),
(275,428,cs),
(389,428,o),
(461,341,o),
(461,223,cs),
(461,105,o),
(389,18,o),
(275,18,cs)
);
},
{
closed = 1;
nodes = (
(138,371,l),
(392,720,l),
(352,720,l),
(99,371,l)
);
}
);
width = 546;
},
{
layerId = m002;
shapes = (
{
closed = 1;
nodes = (
(440,-12,o),
(524,93,o),
(524,229,cs),
(524,365,o),
(440,470,o),
(288,470,cs),
(136,470,o),
(52,365,o),
(52,229,cs),
(52,93,o),
(136,-12,o),
(288,-12,cs)
);
},
{
closed = 1;
nodes = (
(200,68,o),
(144,133,o),
(144,229,cs),
(144,325,o),
(200,390,o),
(288,390,cs),
(376,390,o),
(432,325,o),
(432,229,cs),
(432,133,o),
(376,68,o),
(288,68,cs)
);
},
{
closed = 1;
nodes = (
(199,378,l),
(450,720,l),
(344,720,l),
(95,378,l)
);
}
);
width = 572;
},
{
layerId = m003;
shapes = (
{
closed = 1;
nodes = (
(473,-12,o),
(590,81,o),
(590,245,cs),
(590,409,o),
(473,502,o),
(311,502,cs),
(149,502,o),
(32,409,o),
(32,245,cs),
(32,81,o),
(149,-12,o),
(311,-12,cs)
);
},
{
closed = 1;
nodes = (
(244,140,o),
(218,186,o),
(218,245,cs),
(218,304,o),
(244,350,o),
(311,350,cs),
(378,350,o),
(404,304,o),
(404,245,cs),
(404,186,o),
(378,140,o),
(311,140,cs)
);
},
{
closed = 1;
nodes = (
(268,396,l),
(508,720,l),
(314,720,l),
(76,396,l)
);
}
);
width = 618;
}
);
},
{
color = 6;
glyphname = one.ss10;
lastChange = "2022-09-15 13:34:58 +0000";
layers = (
{
layerId = m01;
shapes = (
{
closed = 1;
nodes = (
(206,0,l),
(206,720,l),
(174,705,l),
(174,0,l)
);
},
{
closed = 1;
nodes = (
(187,690,l),
(206,720,l),
(46,720,l),
(46,690,l)
);
}
);
width = 272;
},
{
layerId = m002;
shapes = (
{
closed = 1;
nodes = (
(260,0,l),
(260,720,l),
(172,680,l),
(172,0,l)
);
},
{
closed = 1;
nodes = (
(211,640,l),
(260,720,l),
(48,720,l),
(48,640,l)
);
}
);
width = 328;
},
{
layerId = m003;
shapes = (
{
closed = 1;
nodes = (
(336,0,l),
(336,720,l),
(132,618,l),
(132,0,l)
);
},
{
closed = 1;
nodes = (
(203,554,l),
(336,720,l),
(22,720,l),
(22,554,l)
);
}
);
width = 388;
}
);
},
{
color = 6;
glyphname = four.ss10;
lastChange = "2022-09-15 13:35:02 +0000";
layers = (
{
layerId = m01;
shapes = (
{
closed = 1;
nodes = (
(412,720,l),
(374,720,l),
(28,220,l),
(56,204,l)
);
},
{
closed = 1;
nodes = (
(536,188,l),
(536,218,l),
(48,218,l),
(28,220,l),
(28,188,l)
);
},
{
closed = 1;
nodes = (
(418,0,l),
(418,198,l),
(386,198,l),
(386,0,l)
);
},
{
closed = 1;
nodes = (
(418,208,l),
(418,440,l),
(386,440,l),
(386,208,l)
);
}
);
width = 554;
},
{
layerId = m002;
shapes = (
{
closed = 1;
nodes = (
(444,720,l),
(350,720,l),
(28,248,l),
(104,218,l)
);
},
{
closed = 1;
nodes = (
(568,164,l),
(568,244,l),
(88,244,l),
(28,248,l),
(28,164,l)
);
},
{
closed = 1;
nodes = (
(468,0,l),
(468,198,l),
(380,198,l),
(380,0,l)
);
},
{
closed = 1;
nodes = (
(468,208,l),
(468,440,l),
(380,440,l),
(380,208,l)
);
}
);
width = 590;
},
{
layerId = m003;
shapes = (
{
closed = 1;
nodes = (
(509,720,l),
(305,720,l),
(38,318,l),
(214,260,l)
);
},
{
closed = 1;
nodes = (
(665,132,l),
(665,298,l),
(193,298,l),
(38,318,l),
(38,132,l)
);
},
{
closed = 1;
nodes = (
(581,0,l),
(581,198,l),
(377,198,l),
(377,0,l)
);
},
{
closed = 1;
nodes = (
(571,208,l),
(571,440,l),
(387,440,l),
(387,208,l)
);
}
);
width = 697;
}
);
},
{
glyphname = .notdef;
lastChange = "2022-08-14 12:03:15 +0000";
layers = (
{
layerId = m01;
shapes = (
{
attr = {
fill = "1";
};
closed = 1;
nodes = (
(550,0,l),
(550,720,l),
(70,720,l),
(70,0,l)
);
}
);
width = 620;
},
{
layerId = m002;
shapes = (
{
attr = {
fill = "1";
};
closed = 1;
nodes = (
(580,0,l),
(580,720,l),
(70,720,l),
(70,0,l)
);
}
);
width = 650;
},
{
layerId = m003;
shapes = (
{
attr = {
fill = "1";
};
closed = 1;
nodes = (
(650,0,l),
(650,720,l),
(70,720,l),
(70,0,l)
);
}
);
width = 720;
}
);
note = ".notdef";
},
{
color = 4;
glyphname = period;
lastChange = "2022-08-05 08:42:57 +0000";
layers = (
{
layerId = m01;
shapes = (
{
closed = 1;
nodes = (
(84,0,l),
(84,96,l),
(48,96,l),
(48,0,l)
);
}
);
width = 132;
},
{
layerId = m002;
shapes = (
{
closed = 1;
nodes = (
(148,0,l),
(148,124,l),
(48,124,l),
(48,0,l)
);
}
);
width = 196;
},
{
layerId = m003;
shapes = (
{
closed = 1;
nodes = (
(240,0,l),
(240,202,l),
(32,202,l),
(32,0,l)
);
}
);
width = 272;
}
);
unicode = 46;
},
{
color = 4;
glyphname = comma;
lastChange = "2022-08-05 08:43:12 +0000";
layers = (
{
layerId = m01;
shapes = (
{
closed = 1;
nodes = (
(20,-108,l),
(47,-108,l),
(95,96,l),
(59,96,l)
);
}
);
width = 143;
},
{
layerId = m002;
shapes = (
{
closed = 1;
nodes = (
(20,-134,l),
(91,-134,l),
(174,124,l),
(76,124,l)
);
}
);
width = 222;
},
{
layerId = m003;
shapes = (
{
closed = 1;
nodes = (
(16,-166,l),
(160,-166,l),
(288,202,l),
(84,202,l)
);
}
);
width = 320;
}
);
unicode = 44;
},
{
color = 4;
glyphname = exclam;
lastChange = "2022-08-04 16:54:33 +0000";
layers = (
{
guides = (
{
angle = 270;
pos = (49,500);
},
{
angle = 270;
pos = (83,500);
}
);
layerId = m01;
shapes = (
{
closed = 1;
nodes = (
(78,186,l),
(83,500,l),
(83,720,l),
(49,720,l),
(49,500,l),
(54,186,l)
);
},
{
ref = period;
}
);
width = 132;
},
{
guides = (
{
angle = 270;
pos = (48,500);
},
{
angle = 270;
pos = (136,500);
}
);
layerId = m002;
shapes = (
{
closed = 1;
nodes = (
(120,192,l),
(136,500,l),
(136,720,l),
(48,720,l),
(48,500,l),
(64,192,l)
);
},
{
pos = (-6,0);
ref = period;
}
);
width = 184;
},
{
guides = (
{
angle = 270;
pos = (34,500);
},
{
angle = 270;
pos = (238,500);
}
);
layerId = m003;
shapes = (
{
closed = 1;
nodes = (
(186,262,l),
(238,500,l),
(238,720,l),
(34,720,l),
(34,500,l),
(86,262,l)
);
},
{
ref = period;
}
);
width = 272;
}
);
unicode = 33;
},
{
color = 4;
glyphname = question;
lastChange = "2022-08-04 16:50:41 +0000";
layers = (
{
guides = (
{
angle = 270;
pos = (207,186);
},
{
angle = 270;
pos = (237,186);
}
);
layerId = m01;
shapes = (
{
closed = 1;
nodes = (
(237,186,l),
(237,276,o),
(265,310,o),
(344,378,cs),
(415,437,o),
(455,474,o),
(455,560,cs),
(455,657,o),
(376,732,o),
(246,732,cs),
(116,732,o),
(32,665,o),
(32,520,c),
(64,520,l),
(64,645,o),
(139,702,o),
(246,702,cs),
(353,702,o),
(422,644,o),
(422,560,cs),
(422,478,o),
(371,440,o),
(320,397,cs),
(237,326,o),
(207,288,o),
(207,186,c)
);
},
{
pos = (156,0);
ref = period;
}
);
width = 487;
},
{
guides = (
{
angle = 270;
pos = (203,192);
},
{
angle = 270;
pos = (285,192);
}
);
layerId = m002;
shapes = (
{
closed = 1;
nodes = (
(285,192,l),
(285,282,o),
(306,306,o),
(384,370,cs),
(454,429,o),
(488,467,o),
(488,551,cs),
(488,657,o),
(403,732,o),
(259,732,cs),
(115,732,o),
(28,659,o),
(28,503,c),
(116,503,l),
(116,608,o),
(173,652,o),
(259,652,cs),
(345,652,o),
(398,612,o),
(398,549,cs),
(398,482,o),
(358,451,o),
(316,415,cs),
(232,343,o),
(203,306,o),
(203,192,c)
);
},
{
pos = (146,0);
ref = period;
}
);
width = 516;
},
{
guides = (
{
angle = 270;
pos = (186,262);
},
{
angle = 270;
pos = (366,262);
}
);
layerId = m003;
shapes = (
{
closed = 1;
nodes = (
(366,262,l),
(366,308,o),
(400,333,o),
(456,363,cs),
(541,408,o),
(564,457,o),
(564,535,cs),
(564,655,o),
(460,732,o),
(286,732,cs),
(104,732,o),
(19,635,o),
(18,492,c),
(206,492,l),
(206,539,o),
(228,578,o),
(286,578,cs),
(344,578,o),
(360,545,o),
(360,524,cs),
(360,493,o),
(353,472,o),
(286,434,cs),
(206,388,o),
(186,351,o),
(186,262,c)
);
},
{
pos = (140,0);
ref = period;
}
);
width = 582;
}
);
unicode = 63;
},
{
color = 4;
glyphname = asterisk;
lastChange = "2022-08-30 20:16:34 +0000";
layers = (
{
guides = (
{
angle = 90;
pos = (238,720);
}
);
layerId = m01;
shapes = (
{
closed = 1;
nodes = (
(378,354,l),
(251,523,l),
(230,508,l),
(357,339,l)
);
},
{
closed = 1;
nodes = (
(246,508,l),
(225,523,l),
(98,354,l),
(119,339,l)
);
},
{
closed = 1;
nodes = (
(238,533,l),
(50,590,l),
(42,565,l),
(230,508,l)
);
},
{
closed = 1;
nodes = (
(251,508,l),
(251,720,l),
(225,720,l),
(225,508,l)
);
},
{
closed = 1;
nodes = (
(434,565,l),
(426,590,l),
(238,533,l),
(246,508,l)
);
}
);
width = 476;
},
{
guides = (
{
angle = 90;
pos = (245,720);
}
);
layerId = m002;
shapes = (
{
closed = 1;
nodes = (
(401,366,l),
(279,529,l),
(224,488,l),
(347,325,l)
);
},
{
closed = 1;
nodes = (
(266,488,l),
(211,529,l),
(89,366,l),
(143,325,l)
);
},
{
closed = 1;
nodes = (
(245,553,l),
(62,608,l),
(42,543,l),
(225,488,l)
);
},
{
closed = 1;
nodes = (
(279,488,l),
(279,720,l),
(211,720,l),
(211,488,l)
);
},
{
closed = 1;
nodes = (
(448,543,l),
(428,608,l),
(245,553,l),
(265,488,l)
);
}
);
width = 490;
},
{
guides = (
{
angle = 90;
pos = (223,720);
}
);
layerId = m003;
shapes = (
{
closed = 1;
nodes = (
(400,381,l),
(282,538,l),
(188,467,l),
(306,310,l)
);
},
{
closed = 1;
nodes = (
(258,467,l),
(164,538,l),
(46,381,l),
(140,310,l)
);
},
{
closed = 1;
nodes = (
(223,577,l),
(46,632,l),
(12,519,l),
(189,465,l)
);
},
{
closed = 1;
nodes = (
(282,465,l),
(282,720,l),
(164,720,l),
(164,465,l)
);
},
{
closed = 1;
nodes = (
(434,519,l),
(400,632,l),
(223,577,l),
(257,465,l)
);
}
);
width = 446;
}
);
unicode = 42;
},
{
color = 4;
glyphname = numbersign;
lastChange = "2022-08-01 17:50:21 +0000";
layers = (
{
layerId = m01;
shapes = (
{
closed = 1;
nodes = (
(365,0,l),
(505,720,l),
(473,720,l),
(333,0,l)
);
},
{
closed = 1;
nodes = (
(536,237,l),
(542,265,l),
(38,265,l),
(32,237,l)
);
},
{
closed = 1;
nodes = (
(143,0,l),
(283,720,l),
(251,720,l),
(111,0,l)
);
},
{
closed = 1;
nodes = (
(578,455,l),
(584,483,l),
(80,483,l),
(74,455,l)
);
}
);
width = 616;
},
{
layerId = m002;
shapes = (
{
closed = 1;
nodes = (
(424,0,l),
(564,720,l),
(480,720,l),
(340,0,l)
);
},
{
closed = 1;
nodes = (
(568,208,l),
(582,280,l),
(46,280,l),
(32,208,l)
);
},
{
closed = 1;
nodes = (
(180,0,l),
(320,720,l),
(236,720,l),
(96,0,l)
);
},
{
closed = 1;
nodes = (
(614,440,l),
(628,512,l),
(92,512,l),
(78,440,l)
);
}
);
width = 660;
},
{
layerId = m003;
shapes = (
{
closed = 1;
nodes = (
(584,0,l),
(724,720,l),
(558,720,l),
(418,0,l)
);
},
{
closed = 1;
nodes = (
(700,143,l),
(729,295,l),
(91,295,l),
(62,143,l)
);
},
{
closed = 1;
nodes = (
(288,0,l),
(428,720,l),
(262,720,l),
(122,0,l)
);
},
{
closed = 1;
nodes = (
(755,425,l),
(784,577,l),
(146,577,l),
(117,425,l)
);
}
);
width = 846;
}
);
unicode = 35;
},
{
color = 4;
glyphname = slash;
lastChange = "2022-08-04 13:52:20 +0000";
layers = (
{
layerId = m01;
shapes = (
{
closed = 1;
nodes = (
(44,0,l),
(306,720,l),
(274,720,l),
(12,0,l)
);
}
);
width = 318;
},
{
layerId = m002;
shapes = (
{
closed = 1;
nodes = (
(98,0,l),
(360,720,l),
(278,720,l),
(16,0,l)
);
}
);
width = 376;
},
{
layerId = m003;
shapes = (
{
closed = 1;
nodes = (
(178,0,l),
(440,720,l),
(258,720,l),
(-4,0,l)
);
}
);
width = 436;
}
);
unicode = 47;
},
{
color = 4;
glyphname = hyphen;
lastChange = "2022-08-03 14:13:52 +0000";
layers = (
{
layerId = m01;
shapes = (
{
closed = 1;
nodes = (
(322,275,l),
(322,305,l),
(58,305,l),
(58,275,l)
);
}
);
width = 380;
},
{
layerId = m002;
shapes = (
{
closed = 1;
nodes = (
(338,252,l),
(338,328,l),
(42,328,l),
(42,252,l)
);
}
);
width = 380;
},
{
layerId = m003;
shapes = (
{
closed = 1;
nodes = (
(340,211,l),
(340,369,l),
(28,369,l),
(28,211,l)
);
}
);
width = 368;
}
);
unicode = 45;
},
{
color = 4;
glyphname = endash;
lastChange = "2022-08-05 08:50:57 +0000";
layers = (
{
layerId = m01;
shapes = (
{
closed = 1;
nodes = (
(464,275,l),
(464,305,l),
(58,305,l),
(58,275,l)
);
}
);
width = 522;
},
{
layerId = m002;
shapes = (
{
closed = 1;
nodes = (
(498,250,l),
(498,326,l),
(42,326,l),
(42,250,l)
);
}
);
width = 540;
},
{
layerId = m003;
shapes = (
{
closed = 1;
nodes = (
(512,211,l),
(512,369,l),
(28,369,l),
(28,211,l)
);
}
);
width = 540;
}
);
unicode = 8211;
},
{
color = 4;
glyphname = emdash;
lastChange = "2022-08-03 14:22:24 +0000";
layers = (
{
layerId = m01;
shapes = (
{
closed = 1;
nodes = (
(848,275,l),
(848,305,l),
(58,305,l),
(58,275,l)
);
}
);
width = 906;
},
{
layerId = m002;
shapes = (
{
closed = 1;
nodes = (
(928,252,l),
(928,328,l),
(42,328,l),
(42,252,l)
);
}
);
width = 970;
},
{
layerId = m003;
shapes = (
{
closed = 1;
nodes = (
(972,211,l),
(972,369,l),
(28,369,l),
(28,211,l)
);
}
);
width = 1000;
}
);
unicode = 8212;
},
{
color = 4;
glyphname = underscore;
lastChange = "2022-08-03 14:22:44 +0000";
layers = (
{
layerId = m01;
shapes = (
{
closed = 1;
nodes = (
(448,-180,l),
(448,-152,l),
(-2,-152,l),
(-2,-180,l)
);
}
);
width = 446;
},
{
layerId = m002;
shapes = (
{
closed = 1;
nodes = (
(498,-180,l),
(498,-106,l),
(-2,-106,l),
(-2,-180,l)
);
}
);
width = 496;
},
{
layerId = m003;
shapes = (
{
closed = 1;
nodes = (
(548,-180,l),
(548,-48,l),
(-2,-48,l),
(-2,-180,l)
);
}
);
width = 546;
}
);
unicode = 95;
},
{
color = 4;
glyphname = parenright;
lastChange = "2022-08-30 15:41:11 +0000";
layers = (
{
guides = (
{
pos = (16,800);
},
{
pos = (16,300);
},
{
pos = (16,-200);
}
);
layerId = m01;
shapes = (
{
closed = 1;
nodes = (
(46,-200,l),
(138,-33,o),
(191,123,o),
(191,300,cs),
(191,477,o),
(138,633,o),
(46,800,c),
(16,800,l),
(111,623,o),
(157,475,o),
(157,300,cs),
(157,125,o),
(111,-23,o),
(16,-200,c)
);
}
);
width = 251;
},
{
guides = (
{
pos = (12,800);
},
{
pos = (12,300);
},
{
pos = (12,-200);
}
);
layerId = m002;
shapes = (
{
closed = 1;
nodes = (
(90,-200,l),
(192,-33,o),
(244,123,o),
(244,300,cs),
(244,477,o),
(192,633,o),
(90,800,c),
(12,800,l),
(117,623,o),
(158,475,o),
(158,300,cs),
(158,125,o),
(117,-23,o),
(12,-200,c)
);
}
);
width = 296;
},
{
guides = (
{
pos = (0,800);
},
{
pos = (0,300);
},
{
pos = (0,-200);
}
);
layerId = m003;
shapes = (
{
closed = 1;
nodes = (
(172,-200,l),
(248,-33,o),
(300,122,o),
(300,300,cs),
(300,478,o),
(248,633,o),
(172,800,c),
(0,800,l),
(75,623,o),
(110,476,o),
(110,300,cs),
(110,124,o),
(75,-23,o),
(0,-200,c)
);
}
);
width = 338;
}
);
unicode = 41;
},
{
color = 4;
glyphname = braceright;
lastChange = "2022-08-30 17:22:13 +0000";
layers = (
{
guides = (
{
pos = (26,800);
},
{
pos = (26,300);
},
{
pos = (26,-200);
}
);
layerId = m01;
shapes = (
{
closed = 1;
nodes = (
(298,294,l),
(298,314,l),
(219,314,o),
(210,354,o),
(210,408,cs),
(210,678,ls),
(210,742,o),
(201,800,o),
(107,800,cs),
(26,800,l),
(26,772,l),
(107,772,ls),
(171,772,o),
(180,732,o),
(180,678,cs),
(180,408,ls),
(180,344,o),
(189,294,o),
(283,294,cs)
);
},
{
closed = 1;
nodes = (
(107,-200,ls),
(201,-200,o),
(210,-142,o),
(210,-78,cs),
(210,192,ls),
(210,246,o),
(219,286,o),
(298,286,c),
(298,306,l),
(283,306,ls),
(189,306,o),
(180,256,o),
(180,192,cs),
(180,-78,ls),
(180,-132,o),
(171,-172,o),
(107,-172,cs),
(26,-172,l),
(26,-200,l)
);
}
);
width = 360;
},
{
guides = (
{
pos = (22,800);
},
{
pos = (22,300);
},
{
pos = (22,-200);
}
);
layerId = m002;
shapes = (
{
closed = 1;
nodes = (
(348,296,l),
(348,337,l),
(282,337,o),
(260,357,o),
(260,403,cs),
(260,672,ls),
(260,752,o),
(218,800,o),
(128,800,cs),
(22,800,l),
(22,726,l),
(112,726,ls),
(150,726,o),
(176,700,o),
(176,662,cs),
(176,391,ls),
(176,321,o),
(208,296,o),
(298,296,cs)
);
},
{
closed = 1;
nodes = (
(128,-200,ls),
(218,-200,o),
(260,-152,o),
(260,-72,cs),
(260,197,ls),
(260,243,o),
(282,263,o),
(348,263,c),
(348,304,l),
(298,304,ls),
(208,304,o),
(176,279,o),
(176,209,cs),
(176,-62,ls),
(176,-100,o),
(150,-126,o),
(112,-126,cs),
(22,-126,l),
(22,-200,l)
);
}
);
width = 390;
},
{
guides = (
{
pos = (-325,800);
},
{
pos = (-325,-200);
},
{
pos = (-325,300);
}
);
layerId = m003;
shapes = (
{
closed = 1;
nodes = (
(428,296,l),
(428,376,l),
(360,376,o),
(344,400,o),
(344,437,cs),
(344,635,ls),
(344,777,o),
(241,800,o),
(157,800,cs),
(12,800,l),
(12,648,l),
(118,648,ls),
(154,648,o),
(172,624,o),
(172,597,cs),
(172,403,ls),
(172,305,o),
(259,296,o),
(333,296,cs)
);
},
{
closed = 1;
nodes = (
(157,-200,ls),
(241,-200,o),
(344,-177,o),
(344,-35,cs),
(344,163,ls),
(344,200,o),
(360,224,o),
(428,224,c),
(428,304,l),
(333,304,ls),
(259,304,o),
(172,295,o),
(172,197,cs),
(172,3,ls),
(172,-24,o),
(154,-48,o),
(118,-48,cs),
(12,-48,l),
(12,-200,l)
);
}
);
width = 454;
}
);
unicode = 125;
},
{
color = 4;
glyphname = bracketright;
lastChange = "2022-08-30 15:39:56 +0000";
layers = (
{
guides = (
{
pos = (26,800);
},
{
pos = (26,300);
},
{
pos = (26,-200);
}
);
layerId = m01;
shapes = (
{
closed = 1;
nodes = (
(210,-200,l),
(210,800,l),
(180,800,l),
(180,-200,l)
);
},
{
closed = 1;
nodes = (
(190,-200,l),
(190,-172,l),
(26,-172,l),
(26,-200,l)
);
},
{
closed = 1;
nodes = (
(190,772,l),
(190,800,l),
(26,800,l),
(26,772,l)
);
}
);
width = 278;
},
{
guides = (
{
pos = (22,800);
},
{
pos = (22,300);
},
{
pos = (22,-200);
}
);
layerId = m002;
shapes = (
{
closed = 1;
nodes = (
(260,-200,l),
(260,800,l),
(176,800,l),
(176,-200,l)
);
},
{
closed = 1;
nodes = (
(206,-200,l),
(206,-126,l),
(22,-126,l),
(22,-200,l)
);
},
{
closed = 1;
nodes = (
(206,726,l),
(206,800,l),
(22,800,l),
(22,726,l)
);
}
);
width = 328;
},
{
guides = (
{
pos = (12,800);
},
{
pos = (12,300);
},
{
pos = (12,-200);
}
);
layerId = m003;
shapes = (
{
closed = 1;
nodes = (
(344,-200,l),
(344,800,l),
(166,800,l),
(166,-200,l)
);
},
{
closed = 1;
nodes = (
(226,-200,l),
(226,-44,l),
(12,-44,l),
(12,-200,l)
);
},
{
closed = 1;
nodes = (
(226,644,l),
(226,800,l),
(12,800,l),
(12,644,l)
);
}
);
width = 396;
}
);
unicode = 93;
},
{
color = 4;
glyphname = quotesingle;
lastChange = "2022-08-04 16:01:56 +0000";
layers = (
{
layerId = m01;
shapes = (
{
closed = 1;
nodes = (
(72,516,l),
(96,516,l),
(100,720,l),
(68,720,l)
);
}
);
width = 168;
},
{
layerId = m002;
shapes = (
{
closed = 1;
nodes = (
(80,462,l),
(144,462,l),
(156,720,l),
(68,720,l)
);
}
);
width = 224;
},
{
layerId = m003;
shapes = (
{
closed = 1;
nodes = (
(83,352,l),
(223,352,l),
(254,720,l),
(52,720,l)
);
}
);
width = 306;
}
);
unicode = 39;
},
{
color = 4;
glyphname = at;
lastChange = "2022-08-08 10:59:41 +0000";
layers = (
{
layerId = m01;
shapes = (
{
closed = 1;
nodes = (
(539,-116,o),
(612,-96,o),
(675,-58,c),
(675,-28,l),
(612,-68,o),
(537,-88,o),
(461,-88,cs),
(241,-88,o),
(72,79,o),
(72,309,cs),
(72,539,o),
(241,704,o),
(461,704,cs),
(681,704,o),
(854,550,o),
(854,320,cs),
(854,190,o),
(784,113,o),
(710,113,cs),
(653,113,o),
(619,143,o),
(619,195,cs),
(619,410,ls),
(619,486,o),
(568,532,o),
(470,532,cs),
(382,532,o),
(303,486,o),
(304,389,c),
(334,389,l),
(333,473,o),
(401,504,o),
(470,504,cs),
(550,504,o),
(590,474,o),
(590,407,cs),
(590,360,l),
(597,353,l),
(597,243,l),
(591,221,l),
(591,195,ls),
(591,131,o),
(631,87,o),
(710,87,cs),
(800,87,o),
(884,180,o),
(884,320,cs),
(884,570,o),
(701,732,o),
(461,732,cs),
(221,732,o),
(42,559,o),
(42,309,cs),
(42,59,o),
(221,-116,o),
(461,-116,cs)
);
},
{
closed = 1;
nodes = (
(510,87,o),
(583,131,o),
(609,230,c),
(609,373,l),
(441,336,ls),
(331,312,o),
(286,276,o),
(286,207,cs),
(286,139,o),
(333,87,o),
(423,87,cs)
);
},
{
closed = 1;
nodes = (
(351,115,o),
(316,155,o),
(316,208,cs),
(316,267,o),
(356,288,o),
(444,309,cs),
(590,343,l),
(590,283,ls),
(590,169,o),
(517,115,o),
(424,115,cs)
);
}
);
width = 926;
},
{
layerId = m002;
shapes = (
{
closed = 1;
nodes = (
(539,-116,o),
(608,-96,o),
(669,-61,c),
(669,24,l),
(606,-20,o),
(537,-44,o),
(463,-44,cs),
(265,-44,o),
(118,98,o),
(118,308,cs),
(118,518,o),
(265,660,o),
(463,660,cs),
(661,660,o),
(800,532,o),
(800,332,cs),
(800,225,o),
(762,148,o),
(697,148,cs),
(661,148,o),
(635,160,o),
(635,218,cs),
(635,405,ls),
(635,482,o),
(582,532,o),
(471,532,cs),
(381,532,o),
(289,492,o),
(288,383,c),
(365,383,l),
(366,449,o),
(422,463,o),
(471,463,cs),
(529,463,o),
(560,447,o),
(560,398,cs),
(560,332,l),
(571,319,l),
(571,249,l),
(563,221,l),
(563,198,ls),
(563,126,o),
(603,78,o),
(681,78,cs),
(805,78,o),
(880,179,o),
(880,332,cs),
(880,573,o),
(707,732,o),
(463,732,cs),
(219,732,o),
(38,560,o),
(38,308,cs),
(38,56,o),
(219,-116,o),
(463,-116,cs)
);
},
{
closed = 1;
nodes = (
(491,78,o),
(551,100,o),
(590,173,c),
(590,375,l),
(429,344,ls),
(333,326,o),
(272,285,o),
(272,207,cs),
(272,125,o),
(333,78,o),
(431,78,cs)
);
},
{
closed = 1;
nodes = (
(375,147,o),
(352,172,o),
(352,209,cs),
(352,254,o),
(386,267,o),
(441,278,cs),
(560,302,l),
(560,261,ls),
(560,180,o),
(496,147,o),
(435,147,cs)
);
}
);
width = 918;
},
{
layerId = m003;
shapes = (
{
closed = 1;
nodes = (
(568,-116,o),
(632,-95,o),
(691,-69,c),
(691,41,l),
(631,9,o),
(556,-6,o),
(469,-6,cs),
(285,-6,o),
(152,100,o),
(152,308,cs),
(152,516,o),
(285,616,o),
(469,616,cs),
(653,616,o),
(777,540,o),
(777,332,cs),
(777,271,o),
(772,208,o),
(727,208,cs),
(689,208,o),
(679,226,o),
(679,268,cs),
(679,396,ls),
(679,479,o),
(609,532,o),
(470,532,cs),
(351,532,o),
(259,476,o),
(260,376,c),
(416,376,l),
(416,395,o),
(433,420,o),
(472,420,cs),
(519,420,o),
(524,397,o),
(524,378,cs),
(524,320,l),
(536,308,l),
(536,258,l),
(527,239,l),
(527,224,ls),
(527,119,o),
(589,78,o),
(680,78,cs),
(824,78,o),
(905,189,o),
(905,332,cs),
(905,574,o),
(743,732,o),
(469,732,cs),
(195,732,o),
(24,550,o),
(24,308,cs),
(24,66,o),
(195,-116,o),
(469,-116,cs)
);
},
{
closed = 1;
nodes = (
(466,78,o),
(512,99,o),
(553,159,c),
(553,368,l),
(417,347,ls),
(290,327,o),
(243,291,o),
(243,214,cs),
(243,126,o),
(313,78,o),
(396,78,cs)
);
},
{
closed = 1;
nodes = (
(415,182,o),
(397,196,o),
(397,219,cs),
(397,243,o),
(411,250,o),
(450,258,cs),
(524,273,l),
(524,250,ls),
(524,200,o),
(490,182,o),
(447,182,cs)
);
}
);
width = 929;
}
);
unicode = 64;
},
{
color = 4;
glyphname = ampersand;
lastChange = "2022-09-05 17:43:56 +0000";
layers = (
{
guides = (
{
pos = (239,374);
}
);
layerId = m01;
shapes = (
{
closed = 1;
nodes = (
(444,-12,o),
(562,157,o),
(562,374,c),
(534,374,l),
(534,171,o),
(422,18,o),
(255,18,cs),
(144,18,o),
(76,91,o),
(76,175,cs),
(76,379,o),
(423,384,o),
(423,584,cs),
(423,668,o),
(361,732,o),
(271,732,cs),
(181,732,o),
(119,668,o),
(119,584,cs),
(119,510,o),
(159,463,o),
(229,385,cs),
(574,0,l),
(616,0,l),
(255,403,ls),
(189,477,o),
(151,520,o),
(151,584,cs),
(151,648,o),
(199,703,o),
(271,703,cs),
(343,703,o),
(391,648,o),
(391,584,cs),
(391,404,o),
(44,404,o),
(44,174,cs),
(44,76,o),
(122,-12,o),
(255,-12,cs)
);
}
);
width = 634;
},
{
guides = (
{
pos = (250,364);
}
);
layerId = m002;
shapes = (
{
closed = 1;
nodes = (
(473,-12,o),
(596,148,o),
(602,364,c),
(520,364,l),
(518,198,o),
(415,68,o),
(265,68,cs),
(167,68,o),
(121,126,o),
(121,188,cs),
(121,360,o),
(469,372,o),
(469,574,cs),
(469,678,o),
(383,732,o),
(291,732,cs),
(199,732,o),
(113,678,o),
(113,574,cs),
(113,482,o),
(157,448,o),
(221,376,cs),
(557,0,l),
(670,0,l),
(297,416,ls),
(235,485,o),
(201,514,o),
(201,574,cs),
(201,626,o),
(241,656,o),
(291,656,cs),
(341,656,o),
(381,626,o),
(381,574,cs),
(381,424,o),
(32,420,o),
(32,188,cs),
(32,78,o),
(117,-12,o),
(265,-12,cs)
);
}
);
width = 670;
},
{
guides = (
{
pos = (272,364);
}
);
layerId = m003;
shapes = (
{
closed = 1;
nodes = (
(511,-12,o),
(706,127,o),
(712,364,c),
(552,364,l),
(546,216,o),
(445,138,o),
(317,138,cs),
(257,138,o),
(218,170,o),
(218,216,cs),
(218,357,o),
(565,314,o),
(565,544,cs),
(565,658,o),
(478,732,o),
(331,732,cs),
(186,732,o),
(97,658,o),
(97,544,cs),
(97,468,o),
(142,424,o),
(222,337,cs),
(532,0,l),
(748,0,l),
(378,401,ls),
(316,468,o),
(281,496,o),
(281,534,cs),
(281,568,o),
(303,590,o),
(341,590,cs),
(379,590,o),
(401,568,o),
(401,534,cs),
(401,423,o),
(22,454,o),
(22,208,cs),
(22,76,o),
(123,-12,o),
(307,-12,cs)
);
}
);
width = 748;
}
);
unicode = 38;
},
{
color = 4;
glyphname = copyright;
lastChange = "2022-09-19 14:52:31 +0000";
layers = (
{
guides = (
{
pos = (0,580);
},
{
pos = (0,140);
}
);
layerId = m01;
shapes = (
{
closed = 1;
nodes = (
(521,140,o),
(582,206,o),
(596,295,c),
(566,295,l),
(554,221,o),
(503,168,o),
(427,168,cs),
(323,168,o),
(270,255,o),
(270,360,cs),
(270,465,o),
(323,552,o),
(427,552,cs),
(500,552,o),
(550,503,o),
(564,435,c),
(593,435,l),
(578,519,o),
(517,580,o),
(427,580,cs),
(305,580,o),
(241,481,o),
(241,360,cs),
(241,239,o),
(305,140,o),
(427,140,cs)
);
},
{
pos = (44,0);
ref = _part_copyright_ring;
}
);
width = 836;
},
{
guides = (
{
pos = (0,140);
},
{
pos = (0,580);
}
);
layerId = m002;
shapes = (
{
closed = 1;
nodes = (
(520,140,o),
(593,204,o),
(604,296,c),
(530,296,l),
(521,240,o),
(482,205,o),
(423,205,cs),
(344,205,o),
(302,270,o),
(302,360,cs),
(302,450,o),
(344,515,o),
(423,515,cs),
(482,515,o),
(520,480,o),
(530,426,c),
(604,426,l),
(592,517,o),
(528,580,o),
(423,580,cs),
(305,580,o),
(228,486,o),
(228,360,cs),
(228,234,o),
(305,140,o),
(423,140,cs)
);
},
{
pos = (40,0);
ref = _part_copyright_ring;
}
);
width = 832;
},
{
guides = (
{
pos = (0,173);
},
{
pos = (0,547);
}
);
layerId = m003;
shapes = (
{
closed = 1;
nodes = (
(533,173,o),
(589,239,o),
(599,329,c),
(469,329,l),
(466,296,o),
(448,277,o),
(415,277,cs),
(373,277,o),
(358,307,o),
(358,360,cs),
(358,413,o),
(373,442,o),
(415,442,cs),
(445,442,o),
(464,426,o),
(469,399,c),
(599,399,l),
(589,485,o),
(529,547,o),
(415,547,cs),
(292,547,o),
(226,466,o),
(226,360,cs),
(226,254,o),
(292,173,o),
(415,173,cs)
);
},
{
pos = (24,0);
ref = _part_copyright_ring;
}
);
width = 824;
}
);
unicode = 169;
},
{
color = 4;
glyphname = registered;
lastChange = "2022-09-19 14:58:01 +0000";
layers = (
{
guides = (
{
pos = (0,151);
},
{
pos = (0,569);
}
);
layerId = m01;
shapes = (
{
closed = 1;
nodes = (
(305,151,l),
(305,354,l),
(291,340,l),
(444,340,ls),
(509,340,o),
(527,311,o),
(535,262,cs),
(553,151,l),
(582,151,l),
(560,282,ls),
(555,317,o),
(535,346,o),
(489,355,c),
(490,348,l),
(550,366,o),
(577,406,o),
(577,455,cs),
(577,523,o),
(530,569,o),
(440,569,cs),
(277,569,l),
(277,151,l)
);
},
{
pos = (44,0);
ref = _part_copyright_ring;
},
{
closed = 1;
nodes = (
(305,556,l),
(291,542,l),
(440,542,ls),
(510,542,o),
(548,507,o),
(548,455,cs),
(548,401,o),
(510,367,o),
(440,367,cs),
(291,367,l),
(305,353,l)
);
}
);
width = 836;
},
{
guides = (
{
pos = (0,151);
},
{
pos = (0,569);
}
);
layerId = m002;
shapes = (
{
closed = 1;
nodes = (
(331,151,l),
(331,337,l),
(313,319,l),
(436,319,ls),
(480,319,o),
(503,300,o),
(509,254,cs),
(523,151,l),
(597,151,l),
(578,272,ls),
(571,316,o),
(549,346,o),
(495,355,c),
(497,335,l),
(557,356,o),
(590,398,o),
(590,447,cs),
(590,520,o),
(544,569,o),
(443,569,cs),
(259,569,l),
(259,151,l)
);
},
{
pos = (40,0);
ref = _part_copyright_ring;
},
{
closed = 1;
nodes = (
(331,526,l),
(313,508,l),
(436,508,ls),
(491,508,o),
(516,485,o),
(516,444,cs),
(516,402,o),
(491,379,o),
(436,379,cs),
(313,379,l),
(331,361,l)
);
}
);
width = 832;
},
{
guides = (
{
pos = (0,184);
},
{
pos = (0,536);
}
);
layerId = m003;
shapes = (
{
closed = 1;
nodes = (
(370,184,l),
(370,336,l),
(335,301,l),
(411,301,ls),
(437,301,o),
(451,284,o),
(455,254,cs),
(465,184,l),
(578,184,l),
(567,262,ls),
(561,309,o),
(537,343,o),
(458,358,c),
(463,313,l),
(521,330,o),
(570,369,o),
(570,427,cs),
(570,488,o),
(530,536,o),
(438,536,cs),
(258,536,l),
(258,184,l)
);
},
{
pos = (24,0);
ref = _part_copyright_ring;
},
{
closed = 1;
nodes = (
(370,485,l),
(335,450,l),
(414,450,ls),
(440,450,o),
(456,443,o),
(456,416,cs),
(456,388,o),
(440,381,o),
(414,381,cs),
(335,381,l),
(370,346,l)
);
}
);
width = 824;
}
);
unicode = 174;
},
{
color = 4;
glyphname = published;
lastChange = "2022-09-18 18:22:04 +0000";
layers = (
{
guides = (
{
pos = (0,151);
},
{
pos = (0,569);
}
);
layerId = m01;
shapes = (
{
pos = (44,0);
ref = _part_copyright_ring;
},
{
closed = 1;
nodes = (
(293,151,l),
(321,151,l),
(321,334,l),
(311,324,l),
(452,324,ls),
(543,324,o),
(589,377,o),
(589,446,cs),
(589,515,o),
(543,569,o),
(452,569,cs),
(293,569,l)
);
},
{
closed = 1;
nodes = (
(311,351,l),
(321,341,l),
(321,556,l),
(311,542,l),
(452,542,ls),
(523,542,o),
(560,502,o),
(560,446,cs),
(560,391,o),
(523,351,o),
(452,351,cs)
);
}
);
width = 836;
},
{
guides = (
{
pos = (0,151);
},
{
pos = (0,569);
}
);
layerId = m002;
shapes = (
{
pos = (40,0);
ref = _part_copyright_ring;
},
{
closed = 1;
nodes = (
(279,151,l),
(351,151,l),
(351,321,l),
(333,303,l),
(453,303,ls),
(554,303,o),
(605,361,o),
(605,436,cs),
(605,510,o),
(554,569,o),
(453,569,cs),
(279,569,l)
);
},
{
closed = 1;
nodes = (
(333,366,l),
(351,348,l),
(351,524,l),
(333,506,l),
(450,506,ls),
(506,506,o),
(531,479,o),
(531,436,cs),
(531,393,o),
(506,366,o),
(450,366,cs)
);
}
);
width = 832;
},
{
guides = (
{
pos = (0,184);
},
{
pos = (0,536);
}
);
layerId = m003;
shapes = (
{
pos = (24,0);
ref = _part_copyright_ring;
},
{
closed = 1;
nodes = (
(277,184,l),
(389,184,l),
(389,321,l),
(354,286,l),
(441,286,ls),
(533,286,o),
(584,336,o),
(584,411,cs),
(584,486,o),
(533,536,o),
(441,536,cs),
(277,536,l)
);
},
{
closed = 1;
nodes = (
(354,379,l),
(389,344,l),
(389,478,l),
(354,443,l),
(432,443,ls),
(458,443,o),
(474,438,o),
(474,411,cs),
(474,384,o),
(458,379,o),
(432,379,cs)
);
}
);
width = 824;
}
);
unicode = 8471;
},
{
color = 4;
glyphname = trademark;
lastChange = "2022-09-19 10:36:52 +0000";
layers = (
{
layerId = m01;
shapes = (
{
closed = 1;
nodes = (
(330,432,l),
(330,693,l),
(324,692,l),
(437,432,l),
(461,432,l),
(574,692,l),
(568,693,l),
(568,432,l),
(591,432,l),
(591,720,l),
(560,720,l),
(443,445,l),
(455,445,l),
(338,720,l),
(307,720,l),
(307,432,l)
);
},
{
closed = 1;
nodes = (
(175,432,l),
(175,708,l),
(165,698,l),
(277,698,l),
(277,720,l),
(48,720,l),
(48,698,l),
(160,698,l),
(150,708,l),
(150,432,l)
);
}
);
width = 639;
},
{
layerId = m002;
shapes = (
{
closed = 1;
nodes = (
(346,432,l),
(346,690,l),
(333,687,l),
(427,432,l),
(471,432,l),
(565,687,l),
(552,690,l),
(552,432,l),
(600,432,l),
(600,720,l),
(530,720,l),
(436,454,l),
(462,454,l),
(368,720,l),
(298,720,l),
(298,432,l)
);
},
{
closed = 1;
nodes = (
(174,432,l),
(174,694,l),
(155,676,l),
(268,676,l),
(268,720,l),
(30,720,l),
(30,676,l),
(143,676,l),
(124,694,l),
(124,432,l)
);
}
);
width = 630;
},
{
layerId = m003;
shapes = (
{
closed = 1;
nodes = (
(382,432,l),
(382,682,l),
(370,678,l),
(437,432,l),
(503,432,l),
(570,678,l),
(558,682,l),
(558,432,l),
(636,432,l),
(636,720,l),
(511,720,l),
(456,497,l),
(484,497,l),
(429,720,l),
(304,720,l),
(304,432,l)
);
},
{
closed = 1;
nodes = (
(190,432,l),
(190,672,l),
(165,647,l),
(274,647,l),
(274,720,l),
(24,720,l),
(24,647,l),
(133,647,l),
(108,672,l),
(108,432,l)
);
}
);
width = 660;
}
);
unicode = 8482;
},
{
color = 4;
glyphname = degree;
lastChange = "2022-09-19 10:57:07 +0000";
layers = (
{
layerId = m01;
shapes = (
{
closed = 1;
nodes = (
(238,490,o),
(294,542,o),
(294,611,cs),
(294,679,o),
(238,732,o),
(168,732,cs),
(98,732,o),
(42,679,o),
(42,611,cs),
(42,542,o),
(98,490,o),
(168,490,cs)
);
},
{
closed = 1;
nodes = (
(111,516,o),
(70,555,o),
(70,611,cs),
(70,666,o),
(111,706,o),
(168,706,cs),
(225,706,o),
(266,666,o),
(266,611,cs),
(266,555,o),
(225,516,o),
(168,516,cs)
);
}
);
width = 336;
},
{
layerId = m002;
shapes = (
{
closed = 1;
nodes = (
(246,480,o),
(304,537,o),
(304,606,cs),
(304,675,o),
(246,732,o),
(173,732,cs),
(100,732,o),
(42,675,o),
(42,606,cs),
(42,537,o),
(100,480,o),
(173,480,cs)
);
},
{
closed = 1;
nodes = (
(137,544,o),
(111,570,o),
(111,606,cs),
(111,641,o),
(137,668,o),
(173,668,cs),
(208,668,o),
(235,641,o),
(235,606,cs),
(235,570,o),
(208,544,o),
(173,544,cs)
);
}
);
width = 346;
},
{
layerId = m003;
shapes = (
{
closed = 1;
nodes = (
(279,408,o),
(356,475,o),
(356,570,cs),
(356,665,o),
(279,732,o),
(184,732,cs),
(89,732,o),
(12,665,o),
(12,570,cs),
(12,475,o),
(89,408,o),
(184,408,cs)
);
},
{
closed = 1;
nodes = (
(149,510,o),
(124,535,o),
(124,570,cs),
(124,605,o),
(149,630,o),
(184,630,cs),
(219,630,o),
(244,605,o),
(244,570,cs),
(244,535,o),
(219,510,o),
(184,510,cs)
);
}
);
width = 368;
}
);
unicode = 176;
},
{
color = 4;
glyphname = bar;
lastChange = "2022-09-15 14:31:07 +0000";
layers = (
{
guides = (
{
pos = (0,810);
},
{
pos = (0,-220);
}
);
layerId = m01;
shapes = (
{
closed = 1;
nodes = (
(98,-220,l),
(98,810,l),
(68,810,l),
(68,-220,l)
);
}
);
width = 166;
},
{
guides = (
{
pos = (0,-220);
},
{
pos = (0,810);
}
);
layerId = m002;
shapes = (
{
closed = 1;
nodes = (
(144,-220,l),
(144,810,l),
(68,810,l),
(68,-220,l)
);
}
);
width = 212;
},
{
guides = (
{
pos = (0,810);
},
{
pos = (0,-220);
}
);
layerId = m003;
shapes = (
{
closed = 1;
nodes = (
(208,-220,l),
(208,810,l),
(54,810,l),
(54,-220,l)
);
}
);
width = 262;
}
);
unicode = 124;
},
{
color = 4;
glyphname = servicemark;
lastChange = "2022-09-19 10:36:38 +0000";
layers = (
{
layerId = m01;
shapes = (
{
closed = 1;
nodes = (
(321,432,l),
(321,693,l),
(315,692,l),
(428,432,l),
(452,432,l),
(565,692,l),
(559,693,l),
(559,432,l),
(582,432,l),
(582,720,l),
(551,720,l),
(434,445,l),
(446,445,l),
(329,720,l),
(298,720,l),
(298,432,l)
);
},
{
closed = 1;
nodes = (
(228,427,o),
(268,460,o),
(268,509,cs),
(268,549,o),
(251,574,o),
(166,591,cs),
(94,605,o),
(82,621,o),
(82,652,cs),
(82,682,o),
(110,703,o),
(154,703,cs),
(206,703,o),
(235,679,o),
(237,632,c),
(262,632,l),
(260,685,o),
(226,725,o),
(154,725,cs),
(97,725,o),
(58,696,o),
(58,652,cs),
(58,605,o),
(85,583,o),
(156,570,cs),
(230,555,o),
(244,538,o),
(244,509,cs),
(244,472,o),
(213,449,o),
(164,449,cs),
(114,449,o),
(75,470,o),
(72,527,c),
(48,527,l),
(51,456,o),
(99,427,o),
(164,427,cs)
);
}
);
width = 630;
},
{
layerId = m002;
shapes = (
{
closed = 1;
nodes = (
(344,432,l),
(344,690,l),
(331,687,l),
(425,432,l),
(469,432,l),
(563,687,l),
(550,690,l),
(550,432,l),
(598,432,l),
(598,720,l),
(528,720,l),
(434,454,l),
(460,454,l),
(366,720,l),
(296,720,l),
(296,432,l)
);
},
{
closed = 1;
nodes = (
(219,427,o),
(266,459,o),
(266,514,cs),
(266,558,o),
(244,584,o),
(159,600,cs),
(98,612,o),
(89,624,o),
(89,647,cs),
(89,670,o),
(110,684,o),
(143,684,cs),
(188,684,o),
(209,666,o),
(211,629,c),
(259,629,l),
(257,685,o),
(221,725,o),
(143,725,cs),
(81,725,o),
(38,693,o),
(38,646,cs),
(38,594,o),
(72,571,o),
(140,558,cs),
(203,546,o),
(215,534,o),
(215,512,cs),
(215,483,o),
(190,468,o),
(153,468,cs),
(115,468,o),
(81,482,o),
(79,529,c),
(30,529,l),
(32,460,o),
(82,427,o),
(152,427,cs)
);
}
);
width = 628;
},
{
layerId = m003;
shapes = (
{
closed = 1;
nodes = (
(389,432,l),
(389,682,l),
(377,678,l),
(444,432,l),
(510,432,l),
(577,678,l),
(565,682,l),
(565,432,l),
(643,432,l),
(643,720,l),
(518,720,l),
(463,497,l),
(491,497,l),
(436,720,l),
(311,720,l),
(311,432,l)
);
},
{
closed = 1;
nodes = (
(224,427,o),
(281,456,o),
(281,520,cs),
(281,571,o),
(252,599,o),
(166,611,cs),
(121,618,o),
(111,628,o),
(111,640,cs),
(111,654,o),
(126,662,o),
(148,662,cs),
(177,662,o),
(193,652,o),
(194,626,c),
(271,626,l),
(268,693,o),
(221,725,o),
(148,725,cs),
(71,725,o),
(28,686,o),
(28,636,cs),
(28,585,o),
(59,554,o),
(138,542,cs),
(190,535,o),
(197,526,o),
(197,514,cs),
(197,499,o),
(181,490,o),
(156,490,cs),
(128,490,o),
(103,495,o),
(103,528,c),
(24,528,l),
(24,469,o),
(68,427,o),
(152,427,cs)
);
}
);
width = 667;
}
);
unicode = 8480;
},
{
color = 6;
glyphname = at.ss11;
lastChange = "2022-09-15 14:00:43 +0000";
layers = (
{
layerId = m01;
shapes = (
{
closed = 1;
nodes = (
(539,-116,o),
(612,-96,o),
(675,-58,c),
(675,-28,l),
(612,-68,o),
(537,-88,o),
(461,-88,cs),
(241,-88,o),
(72,79,o),
(72,309,cs),
(72,539,o),
(241,704,o),
(461,704,cs),
(681,704,o),
(854,550,o),
(854,320,cs),
(854,190,o),
(788,113,o),
(714,113,cs),
(661,113,o),
(627,143,o),
(627,195,cs),
(627,520,l),
(598,520,l),
(598,387,l),
(608,309,l),
(599,235,l),
(599,195,ls),
(599,131,o),
(639,87,o),
(714,87,cs),
(804,87,o),
(884,180,o),
(884,320,cs),
(884,570,o),
(701,732,o),
(461,732,cs),
(221,732,o),
(42,559,o),
(42,309,cs),
(42,59,o),
(221,-116,o),
(461,-116,cs)
);
},
{
closed = 1;
nodes = (
(558,87,o),
(624,187,o),
(624,309,cs),
(624,431,o),
(558,532,o),
(450,532,cs),
(335,532,o),
(269,431,o),
(269,309,cs),
(269,187,o),
(335,87,o),
(450,87,cs)
);
},
{
closed = 1;
nodes = (
(354,115,o),
(299,204,o),
(299,309,cs),
(299,414,o),
(354,504,o),
(450,504,cs),
(546,504,o),
(600,414,o),
(600,309,cs),
(600,204,o),
(546,115,o),
(450,115,cs)
);
}
);
width = 926;
},
{
layerId = m002;
shapes = (
{
closed = 1;
nodes = (
(539,-116,o),
(608,-96,o),
(669,-61,c),
(669,24,l),
(606,-20,o),
(537,-44,o),
(463,-44,cs),
(265,-44,o),
(118,98,o),
(118,308,cs),
(118,518,o),
(265,660,o),
(463,660,cs),
(661,660,o),
(800,532,o),
(800,332,cs),
(800,225,o),
(766,148,o),
(701,148,cs),
(665,148,o),
(643,160,o),
(643,218,cs),
(643,520,l),
(568,520,l),
(568,410,l),
(589,305,l),
(571,221,l),
(571,198,ls),
(571,126,o),
(611,78,o),
(685,78,cs),
(809,78,o),
(880,179,o),
(880,332,cs),
(880,573,o),
(707,732,o),
(463,732,cs),
(219,732,o),
(38,560,o),
(38,308,cs),
(38,56,o),
(219,-116,o),
(463,-116,cs)
);
},
{
closed = 1;
nodes = (
(550,78,o),
(614,175,o),
(614,305,cs),
(614,434,o),
(550,532,o),
(442,532,cs),
(325,532,o),
(253,434,o),
(253,305,cs),
(253,175,o),
(325,78,o),
(442,78,cs)
);
},
{
closed = 1;
nodes = (
(374,147,o),
(333,212,o),
(333,305,cs),
(333,397,o),
(374,463,o),
(450,463,cs),
(526,463,o),
(570,397,o),
(570,305,cs),
(570,212,o),
(526,147,o),
(450,147,cs)
);
}
);
width = 918;
},
{
layerId = m003;
shapes = (
{
closed = 1;
nodes = (
(568,-116,o),
(632,-95,o),
(691,-69,c),
(691,41,l),
(631,9,o),
(556,-6,o),
(469,-6,cs),
(285,-6,o),
(152,100,o),
(152,308,cs),
(152,516,o),
(285,616,o),
(469,616,cs),
(653,616,o),
(777,540,o),
(777,332,cs),
(777,271,o),
(772,208,o),
(727,208,cs),
(689,208,o),
(679,226,o),
(679,268,cs),
(679,520,l),
(524,520,l),
(524,426,l),
(548,325,l),
(527,246,l),
(527,224,ls),
(527,119,o),
(589,78,o),
(680,78,cs),
(824,78,o),
(905,189,o),
(905,332,cs),
(905,574,o),
(743,732,o),
(469,732,cs),
(195,732,o),
(24,550,o),
(24,308,cs),
(24,66,o),
(195,-116,o),
(469,-116,cs)
);
},
{
closed = 1;
nodes = (
(529,78,o),
(576,177,o),
(576,305,cs),
(576,433,o),
(529,532,o),
(412,532,cs),
(298,532,o),
(234,433,o),
(234,305,cs),
(234,177,o),
(298,78,o),
(412,78,cs)
);
},
{
closed = 1;
nodes = (
(411,205,o),
(392,241,o),
(392,305,cs),
(392,369,o),
(411,405,o),
(459,405,cs),
(507,405,o),
(526,369,o),
(526,305,cs),
(526,241,o),
(507,205,o),
(459,205,cs)
);
}
);
width = 929;
}
);
},
{
color = 6;
glyphname = copyright.ss13;
lastChange = "2022-09-19 15:53:56 +0000";
layers = (
{
guides = (
{
pos = (0,626);
},
{
pos = (0,334);
}
);
layerId = m01;
shapes = (
{
closed = 1;
nodes = (
(364,334,o),
(407,377,o),
(416,436,c),
(390,436,l),
(382,390,o),
(349,358,o),
(302,358,cs),
(236,358,o),
(203,412,o),
(203,480,cs),
(203,548,o),
(236,602,o),
(302,602,cs),
(348,602,o),
(380,571,o),
(389,529,c),
(415,529,l),
(405,586,o),
(364,626,o),
(302,626,cs),
(221,626,o),
(177,562,o),
(177,480,cs),
(177,398,o),
(221,334,o),
(302,334,cs)
);
},
{
pos = (44,0);
ref = _part_copyright_ring_sm;
}
);
width = 594;
},
{
guides = (
{
pos = (0,626);
},
{
pos = (0,334);
}
);
layerId = m002;
shapes = (
{
closed = 1;
nodes = (
(369,334,o),
(415,377,o),
(424,440,c),
(368,440,l),
(362,404,o),
(337,382,o),
(300,382,cs),
(250,382,o),
(223,423,o),
(223,480,cs),
(223,537,o),
(250,578,o),
(300,578,cs),
(336,578,o),
(361,557,o),
(368,522,c),
(424,522,l),
(415,584,o),
(373,626,o),
(300,626,cs),
(218,626,o),
(167,564,o),
(167,480,cs),
(167,396,o),
(218,334,o),
(300,334,cs)
);
},
{
pos = (40,0);
ref = _part_copyright_ring_sm;
}
);
width = 590;
},
{
guides = (
{
pos = (0,599);
},
{
pos = (0,331);
}
);
layerId = m003;
shapes = (
{
closed = 1;
nodes = (
(388,331,o),
(428,377,o),
(436,442,c),
(345,442,l),
(342,417,o),
(328,404,o),
(304,404,cs),
(273,404,o),
(261,427,o),
(261,465,cs),
(261,503,o),
(273,526,o),
(304,526,cs),
(326,526,o),
(341,515,o),
(345,494,c),
(436,494,l),
(428,556,o),
(386,599,o),
(304,599,cs),
(216,599,o),
(169,541,o),
(169,465,cs),
(169,389,o),
(216,331,o),
(304,331,cs)
);
},
{
pos = (24,0);
ref = _part_copyright_ring_sm;
}
);
width = 604;
}
);
},
{
color = 6;
glyphname = registered.ss13;
lastChange = "2022-09-19 15:21:21 +0000";
layers = (
{
guides = (
{
pos = (0,621);
},
{
pos = (0,339);
}
);
layerId = m01;
shapes = (
{
closed = 1;
nodes = (
(223,339,l),
(223,473,l),
(215,465,l),
(313,465,ls),
(355,465,o),
(368,447,o),
(373,414,cs),
(385,339,l),
(409,339,l),
(394,428,ls),
(390,452,o),
(377,472,o),
(344,478,c),
(344,471,l),
(387,483,o),
(405,510,o),
(405,543,cs),
(405,590,o),
(374,621,o),
(312,621,cs),
(199,621,l),
(199,339,l)
);
},
{
pos = (44,0);
ref = _part_copyright_ring_sm;
},
{
closed = 1;
nodes = (
(223,607,l),
(215,599,l),
(312,599,ls),
(358,599,o),
(381,577,o),
(381,543,cs),
(381,509,o),
(358,486,o),
(312,486,cs),
(215,486,l),
(223,478,l)
);
}
);
width = 594;
},
{
guides = (
{
pos = (0,621);
},
{
pos = (0,339);
}
);
layerId = m002;
shapes = (
{
closed = 1;
nodes = (
(239,339,l),
(239,469,l),
(221,451,l),
(306,451,ls),
(335,451,o),
(350,437,o),
(354,407,cs),
(363,339,l),
(417,339,l),
(405,419,ls),
(401,451,o),
(383,473,o),
(336,478,c),
(342,458,l),
(385,472,o),
(412,502,o),
(412,538,cs),
(412,587,o),
(381,621,o),
(313,621,cs),
(187,621,l),
(187,339,l)
);
},
{
pos = (40,0);
ref = _part_copyright_ring_sm;
},
{
closed = 1;
nodes = (
(239,595,l),
(221,577,l),
(306,577,ls),
(341,577,o),
(358,562,o),
(358,535,cs),
(358,508,o),
(341,493,o),
(306,493,cs),
(221,493,l),
(239,475,l)
);
}
);
width = 590;
},
{
guides = (
{
pos = (0,591);
},
{
pos = (0,339);
}
);
layerId = m003;
shapes = (
{
closed = 1;
nodes = (
(270,339,l),
(270,448,l),
(245,423,l),
(299,423,ls),
(318,423,o),
(328,411,o),
(331,389,cs),
(338,339,l),
(419,339,l),
(411,395,ls),
(406,427,o),
(391,450,o),
(338,465,c),
(343,437,l),
(383,447,o),
(413,475,o),
(413,513,cs),
(413,556,o),
(384,591,o),
(319,591,cs),
(190,591,l),
(190,339,l)
);
},
{
pos = (24,0);
ref = _part_copyright_ring_sm;
},
{
closed = 1;
nodes = (
(270,554,l),
(245,529,l),
(301,529,ls),
(320,529,o),
(331,525,o),
(331,505,cs),
(331,485,o),
(320,480,o),
(301,480,cs),
(245,480,l),
(270,455,l)
);
}
);
width = 604;
}
);
},
{
color = 6;
glyphname = published.ss13;
lastChange = "2022-09-19 16:54:09 +0000";
layers = (
{
guides = (
{
pos = (0,621);
},
{
pos = (0,339);
}
);
layerId = m01;
shapes = (
{
closed = 1;
nodes = (
(237,339,l),
(237,461,l),
(229,453,l),
(324,453,ls),
(386,453,o),
(417,491,o),
(417,537,cs),
(417,584,o),
(386,621,o),
(324,621,cs),
(213,621,l),
(213,339,l)
);
},
{
pos = (44,0);
ref = _part_copyright_ring_sm;
},
{
closed = 1;
nodes = (
(237,607,l),
(229,599,l),
(324,599,ls),
(370,599,o),
(393,573,o),
(393,537,cs),
(393,502,o),
(370,475,o),
(324,475,cs),
(229,475,l),
(237,467,l)
);
}
);
width = 594;
},
{
guides = (
{
pos = (0,621);
},
{
pos = (0,339);
}
);
layerId = m002;
shapes = (
{
closed = 1;
nodes = (
(255,339,l),
(255,457,l),
(237,439,l),
(321,439,ls),
(389,439,o),
(425,478,o),
(425,530,cs),
(425,581,o),
(389,621,o),
(321,621,cs),
(201,621,l),
(201,339,l)
);
},
{
pos = (40,0);
ref = _part_copyright_ring_sm;
},
{
closed = 1;
nodes = (
(255,593,l),
(237,575,l),
(318,575,ls),
(354,575,o),
(371,558,o),
(371,530,cs),
(371,502,o),
(354,485,o),
(318,485,cs),
(237,485,l),
(255,467,l)
);
}
);
width = 590;
},
{
guides = (
{
pos = (0,591);
},
{
pos = (0,339);
}
);
layerId = m003;
shapes = (
{
closed = 1;
nodes = (
(285,339,l),
(285,437,l),
(260,412,l),
(322,412,ls),
(388,412,o),
(426,448,o),
(426,501,cs),
(426,555,o),
(388,591,o),
(322,591,cs),
(205,591,l),
(205,339,l)
);
},
{
pos = (24,0);
ref = _part_copyright_ring_sm;
},
{
closed = 1;
nodes = (
(285,550,l),
(260,525,l),
(316,525,ls),
(334,525,o),
(346,521,o),
(346,501,cs),
(346,482,o),
(334,479,o),
(316,479,cs),
(260,479,l),
(285,454,l)
);
}
);
width = 604;
}
);
},
{
color = 6;
glyphname = trademark.ss14;
lastChange = "2022-09-19 17:09:27 +0000";
layers = (
{
guides = (
{
pos = (0,238);
},
{
pos = (0,482);
}
);
layerId = m01;
shapes = (
{
closed = 1;
nodes = (
(423,238,l),
(423,450,l),
(417,449,l),
(506,238,l),
(532,238,l),
(621,448,l),
(615,449,l),
(615,238,l),
(641,238,l),
(641,482,l),
(607,482,l),
(514,255,l),
(524,255,l),
(431,482,l),
(397,482,l),
(397,238,l)
);
},
{
closed = 1;
nodes = (
(283,238,l),
(283,468,l),
(273,458,l),
(367,458,l),
(367,482,l),
(171,482,l),
(171,458,l),
(265,458,l),
(255,468,l),
(255,238,l)
);
},
{
pos = (44,0);
ref = _part_trademark_ring;
}
);
width = 836;
},
{
guides = (
{
pos = (0,238);
},
{
pos = (0,482);
}
);
layerId = m002;
shapes = (
{
closed = 1;
nodes = (
(442,238,l),
(442,455,l),
(431,453,l),
(499,238,l),
(547,238,l),
(615,453,l),
(604,455,l),
(604,238,l),
(658,238,l),
(658,482,l),
(574,482,l),
(512,278,l),
(534,278,l),
(472,482,l),
(388,482,l),
(388,238,l)
);
},
{
closed = 1;
nodes = (
(293,238,l),
(293,450,l),
(275,432,l),
(368,432,l),
(368,482,l),
(162,482,l),
(162,432,l),
(255,432,l),
(237,450,l),
(237,238,l)
);
},
{
pos = (40,0);
ref = _part_trademark_ring;
}
);
width = 832;
},
{
guides = (
{
angle = 180;
pos = (0,468);
},
{
angle = 180;
pos = (0,252);
}
);
layerId = m003;
shapes = (
{
closed = 1;
nodes = (
(450,252,l),
(450,439,l),
(440,435,l),
(485,252,l),
(540,252,l),
(585,435,l),
(575,439,l),
(575,252,l),
(641,252,l),
(641,468,l),
(535,468,l),
(503,319,l),
(524,319,l),
(490,468,l),
(384,468,l),
(384,252,l)
);
},
{
closed = 1;
nodes = (
(306,252,l),
(306,432,l),
(281,407,l),
(368,407,l),
(368,468,l),
(176,468,l),
(176,407,l),
(263,407,l),
(238,432,l),
(238,252,l)
);
},
{
pos = (24,0);
ref = _part_trademark_ring;
}
);
width = 824;
}
);
},
{
color = 6;
glyphname = servicemark.ss14;
lastChange = "2022-09-19 17:11:35 +0000";
layers = (
{
guides = (
{
pos = (0,238);
},
{
pos = (0,482);
}
);
layerId = m01;
shapes = (
{
closed = 1;
nodes = (
(427,238,l),
(427,450,l),
(421,449,l),
(510,238,l),
(536,238,l),
(625,448,l),
(619,449,l),
(619,238,l),
(645,238,l),
(645,482,l),
(611,482,l),
(518,255,l),
(528,255,l),
(435,482,l),
(401,482,l),
(401,238,l)
);
},
{
closed = 1;
nodes = (
(335,234,o),
(371,262,o),
(371,304,cs),
(371,339,o),
(355,361,o),
(283,376,cs),
(224,388,o),
(216,399,o),
(216,423,cs),
(216,447,o),
(238,462,o),
(271,462,cs),
(316,462,o),
(337,443,o),
(338,407,c),
(366,407,l),
(365,450,o),
(338,486,o),
(271,486,cs),
(224,486,o),
(189,462,o),
(189,423,cs),
(189,380,o),
(216,363,o),
(272,352,cs),
(331,340,o),
(343,328,o),
(343,304,cs),
(343,274,o),
(318,258,o),
(280,258,cs),
(242,258,o),
(210,273,o),
(208,320,c),
(180,320,l),
(182,259,o),
(226,234,o),
(280,234,cs)
);
},
{
pos = (44,0);
ref = _part_trademark_ring;
}
);
width = 836;
},
{
guides = (
{
pos = (0,238);
},
{
pos = (0,482);
}
);
layerId = m002;
shapes = (
{
closed = 1;
nodes = (
(445,238,l),
(445,455,l),
(434,453,l),
(502,238,l),
(550,238,l),
(618,453,l),
(607,455,l),
(607,238,l),
(661,238,l),
(661,482,l),
(577,482,l),
(515,278,l),
(537,278,l),
(475,482,l),
(391,482,l),
(391,238,l)
);
},
{
closed = 1;
nodes = (
(326,232,o),
(371,258,o),
(371,309,cs),
(371,351,o),
(349,374,o),
(275,387,cs),
(231,394,o),
(223,403,o),
(223,418,cs),
(223,433,o),
(237,442,o),
(261,442,cs),
(292,442,o),
(307,430,o),
(308,404,c),
(364,404,l),
(362,458,o),
(326,488,o),
(261,488,cs),
(199,488,o),
(163,458,o),
(163,416,cs),
(163,371,o),
(190,347,o),
(255,337,cs),
(303,329,o),
(311,320,o),
(311,306,cs),
(311,288,o),
(294,278,o),
(268,278,cs),
(240,278,o),
(215,285,o),
(215,319,c),
(158,319,l),
(158,265,o),
(198,232,o),
(266,232,cs)
);
},
{
pos = (40,0);
ref = _part_trademark_ring;
}
);
width = 832;
},
{
guides = (
{
angle = 180;
pos = (0,468);
},
{
angle = 180;
pos = (0,252);
}
);
layerId = m003;
shapes = (
{
closed = 1;
nodes = (
(450,252,l),
(450,439,l),
(440,435,l),
(485,252,l),
(540,252,l),
(585,435,l),
(575,439,l),
(575,252,l),
(641,252,l),
(641,468,l),
(535,468,l),
(503,319,l),
(524,319,l),
(490,468,l),
(384,468,l),
(384,252,l)
);
},
{
closed = 1;
nodes = (
(324,247,o),
(368,268,o),
(368,319,cs),
(368,359,o),
(346,380,o),
(280,389,cs),
(249,393,o),
(242,400,o),
(242,407,cs),
(242,416,o),
(251,421,o),
(266,421,cs),
(285,421,o),
(295,415,o),
(296,397,c),
(361,397,l),
(358,450,o),
(321,473,o),
(266,473,cs),
(204,473,o),
(172,442,o),
(172,404,cs),
(172,365,o),
(195,340,o),
(257,331,cs),
(293,326,o),
(298,320,o),
(298,314,cs),
(298,305,o),
(287,299,o),
(272,299,cs),
(253,299,o),
(235,301,o),
(235,324,c),
(169,324,l),
(169,280,o),
(202,247,o),
(268,247,cs)
);
},
{
pos = (24,0);
ref = _part_trademark_ring;
}
);
width = 824;
}
);
},
{
color = 4;
glyphname = bitcoin;
lastChange = "2022-09-15 14:26:26 +0000";
layers = (
{
guides = (
{
pos = (0,-114);
},
{
pos = (0,834);
},
{
angle = 90;
pos = (244,834);
},
{
angle = 90;
pos = (354,834);
},
{
angle = 90;
pos = (214,834);
},
{
angle = 90;
pos = (384,834);
},
{
angle = 90;
pos = (68,834);
},
{
pos = (0,720);
},
{
}
);
layerId = m01;
shapes = (
{
closed = 1;
nodes = (
(384,700,l),
(384,834,l),
(354,834,l),
(354,700,l)
);
},
{
closed = 1;
nodes = (
(244,-114,l),
(244,20,l),
(214,20,l),
(214,-114,l)
);
},
{
closed = 1;
nodes = (
(384,-114,l),
(384,20,l),
(354,20,l),
(354,-114,l)
);
},
{
ref = B;
},
{
closed = 1;
nodes = (
(244,700,l),
(244,834,l),
(214,834,l),
(214,700,l)
);
}
);
width = 616;
},
{
guides = (
{
pos = (0,-114);
},
{
pos = (0,834);
},
{
angle = 90;
pos = (68,834);
},
{
angle = 90;
pos = (188,834);
},
{
angle = 90;
pos = (262,834);
},
{
angle = 90;
pos = (332,834);
},
{
angle = 90;
pos = (406,834);
},
{
pos = (0,720);
},
{
}
);
layerId = m002;
shapes = (
{
closed = 1;
nodes = (
(406,700,l),
(406,834,l),
(332,834,l),
(332,700,l)
);
},
{
closed = 1;
nodes = (
(262,-114,l),
(262,20,l),
(188,20,l),
(188,-114,l)
);
},
{
closed = 1;
nodes = (
(406,-114,l),
(406,20,l),
(332,20,l),
(332,-114,l)
);
},
{
ref = B;
},
{
closed = 1;
nodes = (
(262,700,l),
(262,834,l),
(188,834,l),
(188,700,l)
);
}
);
width = 642;
},
{
guides = (
{
pos = (0,-114);
},
{
pos = (0,834);
},
{
angle = 90;
pos = (52,834);
},
{
angle = 90;
pos = (212,834);
},
{
angle = 90;
pos = (290,834);
},
{
angle = 90;
pos = (380,834);
},
{
angle = 90;
pos = (458,834);
},
{
},
{
pos = (0,720);
}
);
layerId = m003;
shapes = (
{
closed = 1;
nodes = (
(458,700,l),
(458,834,l),
(380,834,l),
(380,700,l)
);
},
{
closed = 1;
nodes = (
(290,-114,l),
(290,20,l),
(212,20,l),
(212,-114,l)
);
},
{
closed = 1;
nodes = (
(458,-114,l),
(458,20,l),
(380,20,l),
(380,-114,l)
);
},
{
ref = B;
},
{
closed = 1;
nodes = (
(290,700,l),
(290,834,l),
(212,834,l),
(212,700,l)
);
}
);
width = 704;
}
);
unicode = 8383;
},
{
color = 4;
glyphname = cent;
lastChange = "2022-09-15 14:24:03 +0000";
layers = (
{
guides = (
{
pos = (0,-114);
},
{
pos = (0,634);
},
{
},
{
pos = (0,520);
}
);
layerId = m01;
shapes = (
{
ref = c;
},
{
closed = 1;
nodes = (
(285,-114,l),
(285,634,l),
(255,634,l),
(255,-114,l)
);
}
);
width = 514;
},
{
guides = (
{
pos = (0,-114);
},
{
pos = (0,634);
},
{
},
{
pos = (0,520);
}
);
layerId = m002;
shapes = (
{
ref = c;
},
{
closed = 1;
nodes = (
(318,-114,l),
(318,634,l),
(244,634,l),
(244,-114,l)
);
}
);
width = 539;
},
{
guides = (
{
pos = (0,-114);
},
{
pos = (0,634);
},
{
pos = (0,520);
},
{
}
);
layerId = m003;
shapes = (
{
ref = c;
},
{
closed = 1;
nodes = (
(337,-114,l),
(337,634,l),
(259,634,l),
(259,-114,l)
);
}
);
width = 577;
}
);
unicode = 162;
},
{
color = 4;
glyphname = dollar;
lastChange = "2022-09-15 14:22:18 +0000";
layers = (
{
guides = (
{
pos = (0,-114);
},
{
pos = (0,834);
},
{
pos = (0,720);
},
{
}
);
layerId = m01;
shapes = (
{
ref = S;
},
{
closed = 1;
nodes = (
(320,-114,l),
(320,834,l),
(290,834,l),
(290,-114,l)
);
}
);
width = 606;
},
{
guides = (
{
pos = (0,-114);
},
{
pos = (0,834);
},
{
pos = (0,720);
},
{
}
);
layerId = m002;
shapes = (
{
ref = S;
},
{
closed = 1;
nodes = (
(352,-114,l),
(352,834,l),
(278,834,l),
(278,-114,l)
);
}
);
width = 626;
},
{
guides = (
{
pos = (0,-114);
},
{
pos = (0,834);
},
{
pos = (0,720);
},
{
}
);
layerId = m003;
shapes = (
{
ref = S;
},
{
closed = 1;
nodes = (
(377,-114,l),
(377,834,l),
(299,834,l),
(299,-114,l)
);
}
);
width = 677;
}
);
unicode = 36;
},
{
color = 4;
glyphname = euro;
lastChange = "2022-09-16 13:33:14 +0000";
layers = (
{
layerId = m01;
shapes = (
{
closed = 1;
nodes = (
(532,-12,o),
(626,111,o),
(642,244,c),
(610,244,l),
(595,127,o),
(512,18,o),
(375,18,cs),
(195,18,o),
(123,180,o),
(123,360,cs),
(123,540,o),
(195,702,o),
(375,702,cs),
(508,702,o),
(590,600,o),
(608,478,c),
(640,478,l),
(621,616,o),
(527,732,o),
(375,732,cs),
(175,732,o),
(90,556,o),
(90,360,cs),
(90,164,o),
(175,-12,o),
(375,-12,cs)
);
},
{
closed = 1;
nodes = (
(406,292,l),
(406,322,l),
(0,322,l),
(0,292,l)
);
},
{
closed = 1;
nodes = (
(406,418,l),
(406,448,l),
(0,448,l),
(0,418,l)
);
}
);
width = 684;
},
{
layerId = m002;
shapes = (
{
closed = 1;
nodes = (
(556,-12,o),
(645,107,o),
(664,248,c),
(575,248,l),
(561,151,o),
(502,70,o),
(383,70,cs),
(231,70,o),
(172,202,o),
(172,360,cs),
(172,518,o),
(231,650,o),
(383,650,cs),
(493,650,o),
(551,581,o),
(569,500,c),
(659,500,l),
(634,625,o),
(547,732,o),
(383,732,cs),
(175,732,o),
(80,560,o),
(80,360,cs),
(80,160,o),
(175,-12,o),
(383,-12,cs)
);
},
{
closed = 1;
nodes = (
(406,264,l),
(406,336,l),
(0,336,l),
(0,264,l)
);
},
{
closed = 1;
nodes = (
(406,408,l),
(406,480,l),
(0,480,l),
(0,408,l)
);
}
);
width = 696;
},
{
layerId = m003;
shapes = (
{
closed = 1;
nodes = (
(629,-12,o),
(737,115,o),
(756,274,c),
(554,274,l),
(536,216,o),
(508,166,o),
(426,166,cs),
(316,166,o),
(292,256,o),
(292,360,cs),
(292,464,o),
(316,554,o),
(426,554,cs),
(503,554,o),
(535,510,o),
(554,452,c),
(756,452,l),
(733,611,o),
(624,732,o),
(426,732,cs),
(194,732,o),
(80,566,o),
(80,360,cs),
(80,154,o),
(194,-12,o),
(426,-12,cs)
);
},
{
closed = 1;
nodes = (
(442,249,l),
(442,331,l),
(0,331,l),
(0,249,l)
);
},
{
closed = 1;
nodes = (
(442,395,l),
(442,477,l),
(0,477,l),
(0,395,l)
);
}
);
width = 778;
}
);
unicode = 8364;
},
{
color = 4;
glyphname = sterling;
lastChange = "2022-09-17 14:20:03 +0000";
layers = (
{
layerId = m01;
shapes = (
{
closed = 1;
nodes = (
(200,119,o),
(235,215,o),
(196,331,cs),
(165,423,o),
(129,462,o),
(129,543,cs),
(129,639,o),
(203,702,o),
(303,702,cs),
(403,702,o),
(487,631,o),
(491,517,c),
(523,517,l),
(517,645,o),
(428,732,o),
(304,732,cs),
(174,732,o),
(98,646,o),
(98,543,cs),
(98,458,o),
(132,423,o),
(164,331,cs),
(204,215,o),
(174,133,o),
(58,30,c),
(88,20,l)
);
},
{
closed = 1;
nodes = (
(543,-1,l),
(543,30,l),
(82,31,l),
(58,30,l),
(58,0,l)
);
},
{
closed = 1;
nodes = (
(454,316,l),
(454,346,l),
(48,346,l),
(48,316,l)
);
}
);
width = 575;
},
{
layerId = m002;
shapes = (
{
closed = 1;
nodes = (
(245,118,o),
(269,228,o),
(230,326,cs),
(205,388,o),
(158,449,o),
(158,533,cs),
(158,607,o),
(211,652,o),
(297,652,cs),
(383,652,o),
(447,601,o),
(446,493,c),
(534,493,l),
(533,645,o),
(438,732,o),
(297,732,cs),
(156,732,o),
(72,639,o),
(72,533,cs),
(72,437,o),
(112,388,o),
(138,326,cs),
(179,228,o),
(175,150,o),
(42,78,c),
(136,58,l)
);
},
{
closed = 1;
nodes = (
(544,0,l),
(544,80,l),
(126,80,l),
(42,78,l),
(42,0,l)
);
},
{
closed = 1;
nodes = (
(448,290,l),
(448,362,l),
(32,362,l),
(32,290,l)
);
}
);
width = 572;
},
{
layerId = m003;
shapes = (
{
closed = 1;
nodes = (
(286,176,o),
(342,268,o),
(300,360,cs),
(276,412,o),
(250,458,o),
(250,500,cs),
(250,542,o),
(281,566,o),
(325,566,cs),
(381,566,o),
(411,535,o),
(410,476,c),
(604,476,l),
(605,636,o),
(517,732,o),
(325,732,cs),
(169,732,o),
(52,649,o),
(52,515,cs),
(52,453,o),
(73,412,o),
(105,344,cs),
(140,268,o),
(124,202,o),
(32,156,c),
(199,116,l)
);
},
{
closed = 1;
nodes = (
(610,0,l),
(610,166,l),
(199,166,l),
(32,156,l),
(32,0,l)
);
},
{
closed = 1;
nodes = (
(494,294,l),
(494,376,l),
(12,376,l),
(12,294,l)
);
}
);
width = 628;
}
);
locked = 1;
unicode = 163;
},
{
color = 4;
glyphname = yen;
lastChange = "2022-09-03 19:14:29 +0000";
layers = (
{
guides = (
{
pos = (0,313);
},
{
pos = (0,211);
},
{
pos = (0,343);
},
{
pos = (0,345);
}
);
layerId = m01;
shapes = (
{
closed = 1;
nodes = (
(548,313,l),
(548,343,l),
(94,343,l),
(94,313,l)
);
},
{
closed = 1;
nodes = (
(548,181,l),
(548,211,l),
(94,211,l),
(94,181,l)
);
},
{
ref = Y;
}
);
width = 642;
},
{
guides = (
{
pos = (0,286);
},
{
pos = (0,212);
},
{
pos = (0,358);
},
{
pos = (0,366);
}
);
layerId = m002;
shapes = (
{
closed = 1;
nodes = (
(566,286,l),
(566,358,l),
(120,358,l),
(120,286,l)
);
},
{
closed = 1;
nodes = (
(566,140,l),
(566,212,l),
(120,212,l),
(120,140,l)
);
},
{
ref = Y;
}
);
width = 686;
},
{
guides = (
{
pos = (0,463);
},
{
pos = (0,323);
},
{
pos = (0,241);
},
{
pos = (0,169);
}
);
layerId = m003;
shapes = (
{
closed = 1;
nodes = (
(618,241,l),
(618,323,l),
(124,323,l),
(124,241,l)
);
},
{
closed = 1;
nodes = (
(618,87,l),
(618,169,l),
(124,169,l),
(124,87,l)
);
},
{
ref = Y;
}
);
width = 742;
}
);
unicode = 165;
},
{
color = 6;
glyphname = cent.ss12;
lastChange = "2022-09-15 14:25:43 +0000";
layers = (
{
guides = (
{
pos = (0,-114);
},
{
pos = (0,634);
},
{
pos = (0,520);
},
{
}
);
layerId = m01;
shapes = (
{
closed = 1;
nodes = (
(285,520,l),
(285,634,l),
(255,634,l),
(255,520,l)
);
},
{
closed = 1;
nodes = (
(285,-114,l),
(285,0,l),
(255,0,l),
(255,-114,l)
);
},
{
ref = c;
}
);
width = 514;
},
{
guides = (
{
pos = (0,-114);
},
{
pos = (0,634);
},
{
pos = (0,520);
},
{
}
);
layerId = m002;
shapes = (
{
closed = 1;
nodes = (
(318,520,l),
(318,634,l),
(244,634,l),
(244,520,l)
);
},
{
closed = 1;
nodes = (
(318,-114,l),
(318,0,l),
(244,0,l),
(244,-114,l)
);
},
{
ref = c;
}
);
width = 539;
},
{
guides = (
{
pos = (0,-114);
},
{
pos = (0,634);
},
{
pos = (0,520);
},
{
}
);
layerId = m003;
shapes = (
{
closed = 1;
nodes = (
(337,520,l),
(337,634,l),
(259,634,l),
(259,520,l)
);
},
{
closed = 1;
nodes = (
(337,-114,l),
(337,0,l),
(259,0,l),
(259,-114,l)
);
},
{
ref = c;
}
);
width = 577;
}
);
},
{
color = 6;
glyphname = dollar.ss12;
lastChange = "2022-09-15 14:29:29 +0000";
layers = (
{
guides = (
{
pos = (0,-114);
},
{
pos = (0,834);
},
{
},
{
pos = (0,720);
}
);
layerId = m01;
shapes = (
{
closed = 1;
nodes = (
(320,720,l),
(320,834,l),
(290,834,l),
(290,720,l)
);
},
{
closed = 1;
nodes = (
(320,-114,l),
(320,0,l),
(290,0,l),
(290,-114,l)
);
},
{
ref = S;
}
);
width = 606;
},
{
guides = (
{
pos = (0,-114);
},
{
pos = (0,834);
},
{
},
{
pos = (0,720);
}
);
layerId = m002;
shapes = (
{
closed = 1;
nodes = (
(355,720,l),
(355,834,l),
(275,834,l),
(275,720,l)
);
},
{
closed = 1;
nodes = (
(355,-114,l),
(355,0,l),
(275,0,l),
(275,-114,l)
);
},
{
ref = S;
}
);
width = 626;
},
{
guides = (
{
pos = (0,-114);
},
{
pos = (0,834);
},
{
pos = (0,720);
},
{
}
);
layerId = m003;
shapes = (
{
closed = 1;
nodes = (
(411,720,l),
(411,834,l),
(265,834,l),
(265,720,l)
);
},
{
closed = 1;
nodes = (
(411,-114,l),
(411,0,l),
(265,0,l),
(265,-114,l)
);
},
{
ref = S;
}
);
width = 677;
}
);
},
{
color = 6;
glyphname = euro.ss12;
lastChange = "2022-09-17 10:48:47 +0000";
layers = (
{
guides = (
{
angle = 90;
pos = (38,732);
},
{
angle = 90;
pos = (158,732);
},
{
angle = 90;
pos = (474,732);
},
{
angle = 90;
pos = (594,732);
}
);
layerId = m01;
shapes = (
{
closed = 1;
nodes = (
(519,-12,o),
(558,-5,o),
(594,9,c),
(594,41,l),
(559,26,o),
(520,18,o),
(474,18,cs),
(274,18,o),
(191,180,o),
(191,360,cs),
(191,540,o),
(274,702,o),
(474,702,cs),
(519,702,o),
(558,694,o),
(594,680,c),
(594,712,l),
(557,725,o),
(519,732,o),
(474,732,cs),
(254,732,o),
(158,556,o),
(158,360,cs),
(158,164,o),
(254,-12,o),
(474,-12,cs)
);
},
{
closed = 1;
nodes = (
(594,272,l),
(594,302,l),
(38,302,l),
(38,272,l)
);
},
{
closed = 1;
nodes = (
(594,419,l),
(594,449,l),
(38,449,l),
(38,419,l)
);
}
);
width = 632;
},
{
guides = (
{
angle = 90;
pos = (28,732);
},
{
angle = 90;
pos = (148,732);
},
{
angle = 90;
pos = (482,732);
},
{
angle = 90;
pos = (602,732);
}
);
layerId = m002;
shapes = (
{
closed = 1;
nodes = (
(525,-12,o),
(565,-6,o),
(602,6,c),
(602,92,l),
(568,78,o),
(528,70,o),
(482,70,cs),
(310,70,o),
(240,202,o),
(240,360,cs),
(240,518,o),
(310,650,o),
(482,650,cs),
(528,650,o),
(568,642,o),
(602,628,c),
(602,714,l),
(565,726,o),
(525,732,o),
(482,732,cs),
(254,732,o),
(148,560,o),
(148,360,cs),
(148,160,o),
(254,-12,o),
(482,-12,cs)
);
},
{
closed = 1;
nodes = (
(602,241,l),
(602,313,l),
(28,313,l),
(28,241,l)
);
},
{
closed = 1;
nodes = (
(602,409,l),
(602,481,l),
(28,481,l),
(28,409,l)
);
}
);
width = 630;
},
{
guides = (
{
angle = 90;
pos = (18,732);
},
{
angle = 90;
pos = (114,732);
},
{
angle = 90;
pos = (474,732);
},
{
angle = 90;
pos = (614,732);
}
);
layerId = m003;
shapes = (
{
closed = 1;
nodes = (
(526,-12,o),
(572,-6,o),
(614,6,c),
(614,174,l),
(589,168,o),
(546,162,o),
(504,162,cs),
(354,162,o),
(318,256,o),
(318,360,cs),
(318,464,o),
(354,558,o),
(504,558,cs),
(546,558,o),
(589,552,o),
(614,546,c),
(614,714,l),
(572,726,o),
(526,732,o),
(474,732,cs),
(232,732,o),
(114,566,o),
(114,360,cs),
(114,154,o),
(232,-12,o),
(474,-12,cs)
);
},
{
closed = 1;
nodes = (
(614,248,l),
(614,330,l),
(18,330,l),
(18,248,l)
);
},
{
closed = 1;
nodes = (
(614,392,l),
(614,474,l),
(18,474,l),
(18,392,l)
);
}
);
width = 632;
}
);
},
{
color = 6;
glyphname = sterling.ss12;
lastChange = "2022-09-19 12:38:53 +0000";
layers = (
{
layerId = m01;
shapes = (
{
closed = 1;
nodes = (
(268,20,l),
(266,248,o),
(129,414,o),
(129,543,cs),
(129,639,o),
(203,702,o),
(303,702,cs),
(403,702,o),
(487,631,o),
(491,517,c),
(523,517,l),
(517,645,o),
(428,732,o),
(304,732,cs),
(174,732,o),
(98,646,o),
(98,543,cs),
(98,404,o),
(237,238,o),
(237,20,c)
);
},
{
closed = 1;
nodes = (
(543,0,l),
(543,31,l),
(38,31,l),
(38,0,l)
);
},
{
closed = 1;
nodes = (
(454,316,l),
(454,346,l),
(58,346,l),
(58,316,l)
);
}
);
width = 575;
},
{
layerId = m002;
shapes = (
{
closed = 1;
nodes = (
(290,60,l),
(290,267,o),
(158,419,o),
(158,533,cs),
(158,607,o),
(211,652,o),
(297,652,cs),
(383,652,o),
(447,601,o),
(446,493,c),
(534,493,l),
(533,645,o),
(438,732,o),
(297,732,cs),
(156,732,o),
(72,639,o),
(72,533,cs),
(72,409,o),
(204,257,o),
(204,60,c)
);
},
{
closed = 1;
nodes = (
(544,0,l),
(544,80,l),
(22,80,l),
(22,0,l)
);
},
{
closed = 1;
nodes = (
(446,290,l),
(446,362,l),
(42,362,l),
(42,290,l)
);
}
);
width = 572;
},
{
layerId = m003;
shapes = (
{
closed = 1;
nodes = (
(357,106,l),
(357,306,o),
(240,408,o),
(240,500,cs),
(240,542,o),
(271,566,o),
(315,566,cs),
(371,566,o),
(401,535,o),
(400,476,c),
(594,476,l),
(595,636,o),
(507,732,o),
(315,732,cs),
(159,732,o),
(42,649,o),
(42,515,cs),
(42,398,o),
(169,296,o),
(169,106,c)
);
},
{
closed = 1;
nodes = (
(600,0,l),
(600,166,l),
(12,166,l),
(12,0,l)
);
},
{
closed = 1;
nodes = (
(484,294,l),
(484,376,l),
(22,376,l),
(22,294,l)
);
}
);
width = 618;
}
);
},
{
color = 4;
glyphname = greater;
lastChange = "2022-08-31 08:41:17 +0000";
layers = (
{
layerId = m01;
shapes = (
{
closed = 1;
nodes = (
(464,377,l),
(58,580,l),
(58,546,l),
(464,345,l)
);
},
{
closed = 1;
nodes = (
(464,343,l),
(464,375,l),
(58,174,l),
(58,140,l)
);
}
);
width = 522;
},
{
guides = (
{
angle = 270;
pos = (42,250);
}
);
layerId = m002;
shapes = (
{
closed = 1;
nodes = (
(498,403,l),
(42,599,l),
(42,509,l),
(498,323,l)
);
},
{
closed = 1;
nodes = (
(498,317,l),
(498,397,l),
(42,211,l),
(42,121,l)
);
}
);
width = 540;
},
{
layerId = m003;
shapes = (
{
closed = 1;
nodes = (
(512,452,l),
(28,634,l),
(28,452,l),
(512,303,l)
);
},
{
closed = 1;
nodes = (
(512,268,l),
(512,417,l),
(28,268,l),
(28,86,l)
);
}
);
width = 540;
}
);
unicode = 62;
},
{
color = 4;
glyphname = northEastArrow;
lastChange = "2022-09-03 18:20:06 +0000";
layers = (
{
guides = (
{
angle = 45;
pos = (742,642);
},
{
angle = 270;
pos = (150,642);
},
{
pos = (0,670);
},
{
pos = (0,50);
}
);
layerId = m01;
shapes = (
{
closed = 1;
nodes = (
(764,644,l),
(744,664,l),
(150,69,l),
(170,49,l)
);
},
{
closed = 1;
nodes = (
(770,78,l),
(770,670,l),
(742,642,l),
(742,50,l)
);
},
{
closed = 1;
nodes = (
(742,642,l),
(770,670,l),
(178,670,l),
(150,642,l)
);
}
);
width = 920;
},
{
guides = (
{
pos = (0,685);
},
{
pos = (0,35);
},
{
angle = 45;
pos = (705,590);
},
{
angle = 270;
pos = (150,605);
},
{
angle = 270;
pos = (160,605);
},
{
pos = (0,45);
}
);
layerId = m002;
shapes = (
{
closed = 1;
nodes = (
(768,596,l),
(712,652,l),
(160,101,l),
(216,45,l)
);
},
{
closed = 1;
nodes = (
(800,115,l),
(800,685,l),
(720,605,l),
(720,35,l)
);
},
{
closed = 1;
nodes = (
(720,605,l),
(800,685,l),
(230,685,l),
(150,605,l)
);
}
);
width = 950;
},
{
guides = (
{
pos = (0,700);
},
{
pos = (0,20);
},
{
angle = 45;
pos = (737,607);
},
{
angle = 270;
pos = (150,524);
},
{
angle = 270;
pos = (180,524);
},
{
pos = (654,50);
}
);
layerId = m003;
shapes = (
{
closed = 1;
nodes = (
(799,544,l),
(675,669,l),
(180,174,l),
(305,50,l)
);
},
{
closed = 1;
nodes = (
(830,196,l),
(830,700,l),
(654,524,l),
(654,20,l)
);
},
{
closed = 1;
nodes = (
(654,524,l),
(830,700,l),
(326,700,l),
(150,524,l)
);
}
);
width = 980;
}
);
locked = 1;
unicode = 8599;
},
{
color = 4;
glyphname = rightArrow;
lastChange = "2022-09-03 17:33:57 +0000";
layers = (
{
layerId = m01;
shapes = (
{
closed = 1;
nodes = (
(854,360,l),
(532,720,l),
(494,720,l),
(816,360,l)
);
},
{
closed = 1;
nodes = (
(831,346,l),
(831,374,l),
(110,374,l),
(110,346,l)
);
},
{
closed = 1;
nodes = (
(532,0,l),
(854,360,l),
(816,360,l),
(494,0,l)
);
}
);
width = 964;
},
{
layerId = m002;
shapes = (
{
closed = 1;
nodes = (
(854,360,l),
(532,720,l),
(424,720,l),
(746,360,l)
);
},
{
closed = 1;
nodes = (
(781,320,l),
(781,400,l),
(110,400,l),
(110,320,l)
);
},
{
closed = 1;
nodes = (
(532,0,l),
(854,360,l),
(746,360,l),
(424,0,l)
);
}
);
width = 964;
},
{
layerId = m003;
shapes = (
{
closed = 1;
nodes = (
(854,360,l),
(532,720,l),
(294,720,l),
(616,360,l)
);
},
{
closed = 1;
nodes = (
(721,272,l),
(721,448,l),
(110,448,l),
(110,272,l)
);
},
{
closed = 1;
nodes = (
(532,0,l),
(854,360,l),
(616,360,l),
(294,0,l)
);
}
);
width = 964;
}
);
locked = 1;
unicode = 8594;
},
{
color = 4;
glyphname = leftRightArrow;
lastChange = "2022-08-28 14:30:07 +0000";
layers = (
{
layerId = m01;
shapes = (
{
closed = 1;
nodes = (
(1090,360,l),
(768,720,l),
(730,720,l),
(1052,360,l)
);
},
{
closed = 1;
nodes = (
(470,0,l),
(148,360,l),
(110,360,l),
(432,0,l)
);
},
{
closed = 1;
nodes = (
(148,360,l),
(470,720,l),
(432,720,l),
(110,360,l)
);
},
{
closed = 1;
nodes = (
(1067,346,l),
(1067,374,l),
(133,374,l),
(133,346,l)
);
},
{
closed = 1;
nodes = (
(768,0,l),
(1090,360,l),
(1052,360,l),
(730,0,l)
);
}
);
width = 1200;
},
{
layerId = m002;
shapes = (
{
closed = 1;
nodes = (
(1090,360,l),
(768,720,l),
(660,720,l),
(982,360,l)
);
},
{
closed = 1;
nodes = (
(540,0,l),
(218,360,l),
(110,360,l),
(432,0,l)
);
},
{
closed = 1;
nodes = (
(218,360,l),
(540,720,l),
(432,720,l),
(110,360,l)
);
},
{
closed = 1;
nodes = (
(1017,320,l),
(1017,400,l),
(183,400,l),
(183,320,l)
);
},
{
closed = 1;
nodes = (
(768,0,l),
(1090,360,l),
(982,360,l),
(660,0,l)
);
}
);
width = 1200;
},
{
layerId = m003;
shapes = (
{
closed = 1;
nodes = (
(1090,360,l),
(858,720,l),
(650,720,l),
(882,360,l)
);
},
{
closed = 1;
nodes = (
(550,0,l),
(318,360,l),
(110,360,l),
(342,0,l)
);
},
{
closed = 1;
nodes = (
(318,360,l),
(550,720,l),
(342,720,l),
(110,360,l)
);
},
{
closed = 1;
nodes = (
(957,272,l),
(957,448,l),
(243,448,l),
(243,272,l)
);
},
{
closed = 1;
nodes = (
(858,0,l),
(1090,360,l),
(882,360,l),
(650,0,l)
);
}
);
width = 1200;
}
);
unicode = 8596;
},
{
color = 4;
glyphname = upDownArrow;
lastChange = "2022-08-28 14:30:07 +0000";
layers = (
{
guides = (
{
pos = (0,-155);
},
{
angle = 180;
pos = (0,875);
},
{
angle = 180;
pos = (0,720);
},
{
}
);
layerId = m01;
shapes = (
{
closed = 1;
nodes = (
(830,553,l),
(470,875,l),
(470,837,l),
(830,515,l)
);
},
{
closed = 1;
nodes = (
(470,-117,l),
(110,205,l),
(110,167,l),
(470,-155,l)
);
},
{
closed = 1;
nodes = (
(830,167,l),
(830,205,l),
(470,-117,l),
(470,-155,l)
);
},
{
closed = 1;
nodes = (
(484,-132,l),
(484,852,l),
(456,852,l),
(456,-132,l)
);
},
{
closed = 1;
nodes = (
(470,837,l),
(470,875,l),
(110,553,l),
(110,515,l)
);
}
);
width = 940;
},
{
guides = (
{
pos = (0,-155);
},
{
angle = 180;
pos = (0,875);
},
{
angle = 180;
pos = (0,720);
},
{
}
);
layerId = m002;
shapes = (
{
closed = 1;
nodes = (
(830,553,l),
(470,875,l),
(470,767,l),
(830,445,l)
);
},
{
closed = 1;
nodes = (
(470,-47,l),
(110,275,l),
(110,167,l),
(470,-155,l)
);
},
{
closed = 1;
nodes = (
(830,167,l),
(830,275,l),
(470,-47,l),
(470,-155,l)
);
},
{
closed = 1;
nodes = (
(510,-82,l),
(510,802,l),
(430,802,l),
(430,-82,l)
);
},
{
closed = 1;
nodes = (
(470,767,l),
(470,875,l),
(110,553,l),
(110,445,l)
);
}
);
width = 940;
},
{
guides = (
{
pos = (0,-155);
},
{
angle = 180;
pos = (0,875);
},
{
angle = 180;
pos = (0,720);
},
{
}
);
layerId = m003;
shapes = (
{
closed = 1;
nodes = (
(830,643,l),
(470,875,l),
(470,667,l),
(830,435,l)
);
},
{
closed = 1;
nodes = (
(470,53,l),
(110,285,l),
(110,77,l),
(470,-155,l)
);
},
{
closed = 1;
nodes = (
(830,77,l),
(830,285,l),
(470,53,l),
(470,-155,l)
);
},
{
closed = 1;
nodes = (
(558,-22,l),
(558,742,l),
(382,742,l),
(382,-22,l)
);
},
{
closed = 1;
nodes = (
(470,667,l),
(470,875,l),
(110,643,l),
(110,435,l)
);
}
);
width = 940;
}
);
unicode = 8597;
},
{
color = 4;
glyphname = blackCircle;
lastChange = "2022-09-05 13:39:52 +0000";
layers = (
{
guides = (
{
pos = (474,822);
},
{
pos = (474,-102);
}
);
layerId = m01;
shapes = (
{
closed = 1;
nodes = (
(736,-102,o),
(948,105,o),
(948,360,cs),
(948,615,o),
(736,822,o),
(474,822,cs),
(212,822,o),
(0,615,o),
(0,360,cs),
(0,105,o),
(212,-102,o),
(474,-102,cs)
);
}
);
width = 948;
},
{
guides = (
{
pos = (474,822);
},
{
pos = (474,-102);
}
);
layerId = m002;
shapes = (
{
closed = 1;
nodes = (
(736,-102,o),
(948,105,o),
(948,360,cs),
(948,615,o),
(736,822,o),
(474,822,cs),
(212,822,o),
(0,615,o),
(0,360,cs),
(0,105,o),
(212,-102,o),
(474,-102,cs)
);
}
);
width = 948;
},
{
guides = (
{
pos = (474,822);
},
{
pos = (474,-102);
}
);
layerId = m003;
shapes = (
{
closed = 1;
nodes = (
(736,-102,o),
(948,105,o),
(948,360,cs),
(948,615,o),
(736,822,o),
(474,822,cs),
(212,822,o),
(0,615,o),
(0,360,cs),
(0,105,o),
(212,-102,o),
(474,-102,cs)
);
}
);
width = 948;
}
);
unicode = 9679;
},
{
color = 4;
glyphname = whiteCircle;
lastChange = "2022-09-05 13:39:44 +0000";
layers = (
{
guides = (
{
pos = (474,822);
},
{
pos = (474,-102);
}
);
layerId = m01;
shapes = (
{
closed = 1;
nodes = (
(736,-102,o),
(948,105,o),
(948,360,cs),
(948,615,o),
(736,822,o),
(474,822,cs),
(212,822,o),
(0,615,o),
(0,360,cs),
(0,105,o),
(212,-102,o),
(474,-102,cs)
);
},
{
closed = 1;
nodes = (
(229,-74,o),
(30,120,o),
(30,360,cs),
(30,600,o),
(229,794,o),
(474,794,cs),
(719,794,o),
(918,600,o),
(918,360,cs),
(918,120,o),
(719,-74,o),
(474,-74,cs)
);
}
);
width = 948;
},
{
guides = (
{
pos = (474,822);
},
{
pos = (474,-102);
}
);
layerId = m002;
shapes = (
{
closed = 1;
nodes = (
(736,-102,o),
(948,105,o),
(948,360,cs),
(948,615,o),
(736,822,o),
(474,822,cs),
(212,822,o),
(0,615,o),
(0,360,cs),
(0,105,o),
(212,-102,o),
(474,-102,cs)
);
},
{
closed = 1;
nodes = (
(258,-24,o),
(84,148,o),
(84,360,cs),
(84,572,o),
(258,744,o),
(474,744,cs),
(690,744,o),
(864,572,o),
(864,360,cs),
(864,148,o),
(690,-24,o),
(474,-24,cs)
);
}
);
width = 948;
},
{
guides = (
{
pos = (474,822);
},
{
pos = (474,-102);
}
);
layerId = m003;
shapes = (
{
closed = 1;
nodes = (
(736,-102,o),
(948,105,o),
(948,360,cs),
(948,615,o),
(736,822,o),
(474,822,cs),
(212,822,o),
(0,615,o),
(0,360,cs),
(0,105,o),
(212,-102,o),
(474,-102,cs)
);
},
{
closed = 1;
nodes = (
(295,38,o),
(150,183,o),
(150,360,cs),
(150,537,o),
(295,682,o),
(474,682,cs),
(653,682,o),
(798,537,o),
(798,360,cs),
(798,183,o),
(653,38,o),
(474,38,cs)
);
}
);
width = 948;
}
);
unicode = 9675;
},
{
color = 4;
glyphname = blackSquare;
lastChange = "2022-09-05 13:17:49 +0000";
layers = (
{
layerId = m01;
shapes = (
{
closed = 1;
nodes = (
(0,-90,l),
(924,-90,l),
(924,810,l),
(0,810,l)
);
}
);
width = 924;
},
{
layerId = m002;
shapes = (
{
closed = 1;
nodes = (
(0,-90,l),
(924,-90,l),
(924,810,l),
(0,810,l)
);
}
);
width = 924;
},
{
layerId = m003;
shapes = (
{
closed = 1;
nodes = (
(0,-90,l),
(924,-90,l),
(924,810,l),
(0,810,l)
);
}
);
width = 924;
}
);
unicode = 9632;
},
{
color = 4;
glyphname = whiteSquare;
lastChange = "2022-09-05 13:00:19 +0000";
layers = (
{
layerId = m01;
shapes = (
{
closed = 1;
nodes = (
(924,-90,l),
(924,810,l),
(0,810,l),
(0,-90,l)
);
},
{
closed = 1;
nodes = (
(30,796,l),
(16,782,l),
(908,782,l),
(894,796,l),
(894,-76,l),
(908,-62,l),
(16,-62,l),
(30,-76,l)
);
}
);
width = 924;
},
{
layerId = m002;
shapes = (
{
closed = 1;
nodes = (
(924,-90,l),
(924,810,l),
(0,810,l),
(0,-90,l)
);
},
{
closed = 1;
nodes = (
(84,772,l),
(46,734,l),
(878,734,l),
(840,772,l),
(840,-52,l),
(878,-14,l),
(46,-14,l),
(84,-52,l)
);
}
);
width = 924;
},
{
layerId = m003;
shapes = (
{
closed = 1;
nodes = (
(924,-90,l),
(924,810,l),
(0,810,l),
(0,-90,l)
);
},
{
closed = 1;
nodes = (
(152,761,l),
(67,676,l),
(857,676,l),
(772,761,l),
(772,-41,l),
(857,44,l),
(67,44,l),
(152,-41,l)
);
}
);
width = 924;
}
);
unicode = 9633;
},
{
color = 4;
glyphname = upBlackTriangle;
lastChange = "2022-09-05 13:26:24 +0000";
layers = (
{
guides = (
{
angle = 90;
pos = (474,-102);
}
);
layerId = m01;
shapes = (
{
closed = 1;
nodes = (
(948,-102,l),
(474,822,l),
(0,-102,l)
);
}
);
width = 948;
},
{
layerId = m002;
shapes = (
{
closed = 1;
nodes = (
(948,-102,l),
(474,822,l),
(0,-102,l)
);
}
);
width = 948;
},
{
layerId = m003;
shapes = (
{
closed = 1;
nodes = (
(948,-102,l),
(474,822,l),
(0,-102,l)
);
}
);
width = 948;
}
);
unicode = 9650;
},
{
color = 4;
glyphname = upWhiteTriangle;
lastChange = "2022-09-05 13:31:53 +0000";
layers = (
{
layerId = m01;
shapes = (
{
closed = 1;
nodes = (
(948,-102,l),
(474,822,l),
(0,-102,l)
);
},
{
closed = 1;
nodes = (
(481,771,l),
(467,771,l),
(905,-85,l),
(912,-72,l),
(36,-72,l),
(43,-85,l)
);
}
);
width = 948;
},
{
layerId = m002;
shapes = (
{
closed = 1;
nodes = (
(948,-102,l),
(474,822,l),
(0,-102,l)
);
},
{
closed = 1;
nodes = (
(492,691,l),
(456,691,l),
(840,-59,l),
(860,-26,l),
(88,-26,l),
(108,-59,l)
);
}
);
width = 948;
},
{
layerId = m003;
shapes = (
{
closed = 1;
nodes = (
(948,-102,l),
(474,822,l),
(0,-102,l)
);
},
{
closed = 1;
nodes = (
(513,609,l),
(435,609,l),
(767,-43,l),
(813,32,l),
(135,32,l),
(181,-43,l)
);
}
);
width = 948;
}
);
unicode = 9651;
},
{
color = 4;
glyphname = dotaccentcomb;
lastChange = "2022-09-06 14:29:57 +0000";
layers = (
{
anchors = (
{
name = _top;
pos = (16,520);
}
);
layerId = m01;
shapes = (
{
closed = 1;
nodes = (
(32,626,l),
(32,720,l),
(0,720,l),
(0,626,l)
);
}
);
width = 32;
},
{
anchors = (
{
name = _top;
pos = (42,520);
}
);
layerId = m002;
shapes = (
{
closed = 1;
nodes = (
(84,618,l),
(84,720,l),
(0,720,l),
(0,618,l)
);
}
);
width = 84;
},
{
anchors = (
{
name = _top;
pos = (94,520);
}
);
layerId = m003;
shapes = (
{
closed = 1;
nodes = (
(188,580,l),
(188,720,l),
(0,720,l),
(0,580,l)
);
}
);
width = 188;
}
);
unicode = 775;
},
{
color = 4;
glyphname = acutecomb;
lastChange = "2022-09-06 14:29:29 +0000";
layers = (
{
anchors = (
{
name = _top;
pos = (15,520);
}
);
guides = (
{
angle = 90;
pos = (30,586);
},
{
pos = (0,732);
},
{
pos = (0,720);
},
{
angle = 90;
pos = (0,586);
},
{
pos = (0,580);
}
);
layerId = m01;
shapes = (
{
closed = 1;
nodes = (
(30,586,l),
(156,732,l),
(116,732,l),
(0,586,l)
);
}
);
width = 156;
},
{
anchors = (
{
name = _top;
pos = (37,520);
}
);
guides = (
{
angle = 90;
pos = (0,586);
},
{
angle = 90;
pos = (74,586);
},
{
pos = (0,732);
},
{
pos = (0,720);
},
{
pos = (0,580);
}
);
layerId = m002;
shapes = (
{
closed = 1;
nodes = (
(74,586,l),
(208,732,l),
(96,732,l),
(0,586,l)
);
}
);
width = 208;
},
{
anchors = (
{
name = _top;
pos = (73,520);
}
);
guides = (
{
angle = 90;
pos = (0,586);
},
{
angle = 90;
pos = (146,586);
},
{
pos = (0,732);
},
{
pos = (0,720);
},
{
pos = (0,580);
}
);
layerId = m003;
shapes = (
{
closed = 1;
nodes = (
(146,586,l),
(295,732,l),
(99,732,l),
(0,586,l)
);
}
);
width = 295;
}
);
unicode = 769;
},
{
color = 4;
glyphname = caroncomb.alt;
lastChange = "2022-09-10 10:17:59 +0000";
layers = (
{
anchors = (
{
name = _caron.alt;
pos = (0,520);
}
);
layerId = m01;
shapes = (
{
closed = 1;
nodes = (
(27,550,l),
(83,720,l),
(49,720,l),
(0,550,l)
);
}
);
width = 83;
},
{
anchors = (
{
name = _caron.alt;
pos = (0,520);
}
);
layerId = m002;
shapes = (
{
closed = 1;
nodes = (
(65,550,l),
(130,720,l),
(32,720,l),
(0,550,l)
);
}
);
width = 130;
},
{
anchors = (
{
name = _caron.alt;
pos = (0,520);
}
);
layerId = m003;
shapes = (
{
closed = 1;
nodes = (
(121,550,l),
(198,720,l),
(18,720,l),
(0,550,l)
);
}
);
width = 198;
}
);
},
{
color = 4;
glyphname = caroncomb;
lastChange = "2022-09-06 14:27:35 +0000";
layers = (
{
anchors = (
{
name = _top;
pos = (151,520);
}
);
guides = (
{
angle = 90;
pos = (128,586);
},
{
angle = 90;
pos = (174,586);
},
{
pos = (0,732);
},
{
pos = (0,720);
},
{
pos = (0,580);
},
{
pos = (0,586);
}
);
layerId = m01;
shapes = (
{
closed = 1;
nodes = (
(174,586,l),
(302,732,l),
(271,732,l),
(130,586,l)
);
},
{
closed = 1;
nodes = (
(172,586,l),
(31,732,l),
(0,732,l),
(128,586,l)
);
}
);
width = 302;
},
{
anchors = (
{
name = _top;
pos = (184,520);
}
);
guides = (
{
angle = 90;
pos = (122,586);
},
{
angle = 90;
pos = (246,586);
},
{
pos = (0,732);
},
{
pos = (0,720);
}
);
layerId = m002;
shapes = (
{
closed = 1;
nodes = (
(246,586,l),
(368,732,l),
(285,732,l),
(132,586,l)
);
},
{
closed = 1;
nodes = (
(236,586,l),
(83,732,l),
(0,732,l),
(122,586,l)
);
}
);
width = 368;
},
{
anchors = (
{
name = _top;
pos = (226,520);
}
);
guides = (
{
angle = 90;
pos = (129,586);
},
{
angle = 90;
pos = (323,586);
},
{
pos = (0,732);
},
{
pos = (0,720);
}
);
layerId = m003;
shapes = (
{
closed = 1;
nodes = (
(323,586,l),
(452,732,l),
(290,732,l),
(139,586,l)
);
},
{
closed = 1;
nodes = (
(313,586,l),
(162,732,l),
(0,732,l),
(129,586,l)
);
}
);
width = 452;
}
);
unicode = 780;
},
{
color = 4;
glyphname = brevecomb;
lastChange = "2022-09-06 14:28:21 +0000";
layers = (
{
anchors = (
{
name = _top;
pos = (142,520);
}
);
guides = (
{
pos = (0,732);
},
{
pos = (0,720);
},
{
pos = (0,580);
},
{
pos = (0,586);
}
);
layerId = m01;
shapes = (
{
closed = 1;
nodes = (
(228,580,o),
(280,635,o),
(284,720,c),
(256,720,l),
(252,649,o),
(210,607,o),
(142,607,cs),
(74,607,o),
(32,649,o),
(28,720,c),
(0,720,l),
(4,635,o),
(56,580,o),
(142,580,cs)
);
}
);
width = 284;
},
{
anchors = (
{
name = _top;
pos = (156,520);
}
);
guides = (
{
pos = (0,732);
},
{
pos = (0,720);
},
{
pos = (0,580);
},
{
pos = (0,586);
}
);
layerId = m002;
shapes = (
{
closed = 1;
nodes = (
(246,580,o),
(308,638,o),
(312,732,c),
(240,732,l),
(236,674,o),
(202,648,o),
(156,648,cs),
(110,648,o),
(76,674,o),
(72,732,c),
(0,732,l),
(4,638,o),
(66,580,o),
(156,580,cs)
);
}
);
width = 312;
},
{
anchors = (
{
name = _top;
pos = (192,520);
}
);
guides = (
{
pos = (0,732);
},
{
pos = (0,720);
},
{
pos = (0,580);
},
{
pos = (0,586);
}
);
layerId = m003;
shapes = (
{
closed = 1;
nodes = (
(294,580,o),
(366,634,o),
(384,732,c),
(250,732,l),
(246,702,o),
(228,685,o),
(192,685,cs),
(156,685,o),
(138,702,o),
(134,732,c),
(0,732,l),
(18,634,o),
(90,580,o),
(192,580,cs)
);
}
);
width = 384;
}
);
unicode = 774;
},
{
color = 4;
glyphname = ringcomb;
lastChange = "2022-09-06 14:30:29 +0000";
layers = (
{
anchors = (
{
name = _top;
pos = (108,520);
}
);
guides = (
{
pos = (0,732);
},
{
pos = (0,720);
},
{
pos = (0,580);
},
{
pos = (0,586);
}
);
layerId = m01;
shapes = (
{
closed = 1;
nodes = (
(168,580,o),
(216,626,o),
(216,686,cs),
(216,746,o),
(168,792,o),
(108,792,cs),
(48,792,o),
(0,746,o),
(0,686,cs),
(0,626,o),
(48,580,o),
(108,580,cs)
);
},
{
closed = 1;
nodes = (
(60,606,o),
(26,638,o),
(26,686,cs),
(26,734,o),
(60,766,o),
(108,766,cs),
(156,766,o),
(190,734,o),
(190,686,cs),
(190,638,o),
(156,606,o),
(108,606,cs)
);
}
);
width = 216;
},
{
anchors = (
{
name = _top;
pos = (129,520);
}
);
guides = (
{
pos = (0,732);
},
{
pos = (0,720);
},
{
pos = (0,580);
},
{
pos = (0,586);
}
);
layerId = m002;
shapes = (
{
closed = 1;
nodes = (
(201,580,o),
(258,636,o),
(258,704,cs),
(258,772,o),
(201,828,o),
(129,828,cs),
(57,828,o),
(0,772,o),
(0,704,cs),
(0,636,o),
(57,580,o),
(129,580,cs)
);
},
{
closed = 1;
nodes = (
(93,642,o),
(66,668,o),
(66,704,cs),
(66,740,o),
(93,766,o),
(129,766,cs),
(165,766,o),
(192,740,o),
(192,704,cs),
(192,668,o),
(165,642,o),
(129,642,cs)
);
}
);
width = 258;
},
{
anchors = (
{
name = _top;
pos = (166,520);
}
);
guides = (
{
pos = (0,732);
},
{
pos = (0,720);
},
{
pos = (0,580);
},
{
pos = (0,586);
}
);
layerId = m003;
shapes = (
{
closed = 1;
nodes = (
(258,580,o),
(332,644,o),
(332,736,cs),
(332,828,o),
(258,892,o),
(166,892,cs),
(74,892,o),
(0,828,o),
(0,736,cs),
(0,644,o),
(74,580,o),
(166,580,cs)
);
},
{
closed = 1;
nodes = (
(134,682,o),
(111,704,o),
(111,736,cs),
(111,768,o),
(134,790,o),
(166,790,cs),
(198,790,o),
(221,768,o),
(221,736,cs),
(221,704,o),
(198,682,o),
(166,682,cs)
);
}
);
width = 332;
}
);
unicode = 778;
},
{
color = 4;
glyphname = tildecomb;
lastChange = "2022-09-06 14:28:37 +0000";
layers = (
{
anchors = (
{
name = _top;
pos = (152,520);
}
);
guides = (
{
pos = (0,732);
},
{
pos = (0,720);
}
);
layerId = m01;
shapes = (
{
closed = 1;
nodes = (
(28,610,l),
(28,662,o),
(38,691,o),
(78,691,cs),
(105,691,o),
(126,668,o),
(152,647,cs),
(173,629,o),
(194,610,o),
(226,610,cs),
(282,610,o),
(304,650,o),
(304,720,c),
(276,720,l),
(276,668,o),
(266,639,o),
(226,639,cs),
(199,639,o),
(178,662,o),
(152,683,cs),
(131,701,o),
(110,720,o),
(78,720,cs),
(22,720,o),
(0,680,o),
(0,610,c)
);
}
);
width = 304;
},
{
anchors = (
{
name = _top;
pos = (171,520);
}
);
guides = (
{
pos = (0,732);
},
{
pos = (0,720);
}
);
layerId = m002;
shapes = (
{
closed = 1;
nodes = (
(72,604,l),
(72,643,o),
(82,656,o),
(106,656,cs),
(124,656,o),
(153,636,o),
(171,628,cs),
(195,616,o),
(220,604,o),
(244,604,cs),
(313,604,o),
(342,647,o),
(342,732,c),
(270,732,l),
(270,693,o),
(260,680,o),
(236,680,cs),
(218,680,o),
(189,700,o),
(171,708,cs),
(147,720,o),
(122,732,o),
(98,732,cs),
(29,732,o),
(0,689,o),
(0,604,c)
);
}
);
width = 342;
},
{
anchors = (
{
name = _top;
pos = (199,520);
}
);
guides = (
{
pos = (0,732);
},
{
pos = (0,720);
}
);
layerId = m003;
shapes = (
{
closed = 1;
nodes = (
(110,582,l),
(110,607,o),
(120,616,o),
(140,616,cs),
(158,616,o),
(183,606,o),
(199,600,cs),
(219,593,o),
(246,582,o),
(276,582,cs),
(340,582,o),
(398,622,o),
(398,732,c),
(288,732,l),
(288,707,o),
(278,698,o),
(258,698,cs),
(240,698,o),
(215,708,o),
(199,714,cs),
(179,721,o),
(152,732,o),
(122,732,cs),
(58,732,o),
(0,692,o),
(0,582,c)
);
}
);
width = 398;
}
);
unicode = 771;
},
{
color = 4;
glyphname = cedillacomb;
lastChange = "2022-09-08 13:53:35 +0000";
layers = (
{
anchors = (
{
name = _cedilla;
pos = (86,0);
}
);
guides = (
{
angle = 90;
pos = (30,-187);
},
{
angle = 90;
pos = (71,0);
},
{
angle = 90;
pos = (101,0);
},
{
pos = (0,6);
},
{
},
{
pos = (0,-212);
},
{
pos = (0,-222);
}
);
layerId = m01;
shapes = (
{
closed = 1;
nodes = (
(134,-212,o),
(178,-187,o),
(178,-135,cs),
(178,-83,o),
(134,-61,o),
(63,-61,cs),
(45,-61,l),
(30,-63,l),
(30,-84,l),
(38,-83,o),
(48,-82,o),
(56,-82,cs),
(119,-82,o),
(148,-99,o),
(148,-135,cs),
(148,-171,o),
(118,-189,o),
(56,-189,cs),
(37,-189,o),
(19,-187,o),
(0,-183,c),
(0,-205,l),
(22,-211,o),
(44,-212,o),
(66,-212,cs)
);
},
{
closed = 1;
nodes = (
(101,2,l),
(75,6,l),
(30,-63,l),
(51,-69,l)
);
}
);
width = 178;
},
{
anchors = (
{
name = _cedilla;
pos = (108,0);
}
);
guides = (
{
angle = 90;
pos = (35,-167);
},
{
pos = (0,6);
},
{
},
{
angle = 90;
pos = (72,0);
},
{
pos = (0,-212);
},
{
pos = (0,-224);
},
{
angle = 90;
pos = (143,0);
}
);
layerId = m002;
shapes = (
{
closed = 1;
nodes = (
(166,-224,o),
(208,-178,o),
(208,-128,cs),
(208,-78,o),
(166,-45,o),
(105,-45,cs),
(66,-45,l),
(35,-50,l),
(35,-91,l),
(45,-89,o),
(56,-89,o),
(66,-89,cs),
(108,-89,o),
(128,-102,o),
(128,-128,cs),
(128,-154,o),
(108,-172,o),
(56,-172,cs),
(44,-172,o),
(22,-170,o),
(0,-166,c),
(0,-216,l),
(25,-222,o),
(51,-224,o),
(76,-224,cs)
);
},
{
closed = 1;
nodes = (
(148,6,l),
(76,6,l),
(35,-50,l),
(88,-59,l)
);
}
);
width = 208;
},
{
anchors = (
{
name = _cedilla;
pos = (112,0);
}
);
guides = (
{
angle = 90;
pos = (35,-154);
},
{
angle = 90;
pos = (74,0);
},
{
angle = 90;
pos = (150,0);
},
{
pos = (0,-212);
},
{
pos = (0,-224);
},
{
pos = (0,6);
},
{
}
);
layerId = m003;
shapes = (
{
closed = 1;
nodes = (
(195,-224,o),
(244,-176,o),
(244,-124,cs),
(244,-72,o),
(195,-44,o),
(119,-44,cs),
(73,-44,l),
(35,-51,l),
(35,-91,l),
(45,-89,o),
(55,-89,o),
(65,-89,cs),
(105,-89,o),
(122,-102,o),
(122,-124,cs),
(122,-146,o),
(105,-160,o),
(57,-160,cs),
(43,-160,o),
(22,-158,o),
(0,-154,c),
(0,-216,l),
(25,-222,o),
(50,-224,o),
(75,-224,cs)
);
},
{
closed = 1;
nodes = (
(156,6,l),
(79,6,l),
(35,-51,l),
(93,-59,l)
);
}
);
width = 244;
}
);
unicode = 807;
},
{
color = 4;
glyphname = ogonekcomb;
lastChange = "2022-09-08 19:46:09 +0000";
layers = (
{
anchors = (
{
name = _ogonek;
pos = (156,0);
}
);
guides = (
{
pos = (1,6);
},
{
pos = (1,0);
},
{
angle = 270;
pos = (156,0);
},
{
angle = 270;
pos = (123,0);
}
);
layerId = m01;
shapes = (
{
closed = 1;
nodes = (
(113,-212,o),
(135,-209,o),
(156,-199,c),
(156,-172,l),
(136,-181,o),
(118,-184,o),
(98,-184,cs),
(60,-184,o),
(31,-168,o),
(31,-130,cs),
(31,-92,o),
(78,-44,o),
(156,0,c),
(147,6,l),
(134,6,l),
(58,-34,o),
(0,-80,o),
(0,-138,cs),
(0,-184,o),
(36,-212,o),
(92,-212,cs)
);
}
);
width = 156;
},
{
anchors = (
{
name = _ogonek;
pos = (184,0);
}
);
guides = (
{
pos = (0,6);
},
{
},
{
angle = 90;
pos = (106,0);
},
{
angle = 90;
pos = (184,0);
}
);
layerId = m002;
shapes = (
{
closed = 1;
nodes = (
(137,-212,o),
(161,-209,o),
(184,-201,c),
(184,-133,l),
(167,-139,o),
(151,-142,o),
(134,-142,cs),
(102,-142,o),
(80,-129,o),
(80,-99,cs),
(80,-69,o),
(118,-36,o),
(184,0,c),
(175,6,l),
(121,6,l),
(63,-16,o),
(0,-57,o),
(0,-119,cs),
(0,-181,o),
(48,-212,o),
(114,-212,cs)
);
}
);
width = 184;
},
{
anchors = (
{
name = _ogonek;
pos = (226,0);
}
);
guides = (
{
pos = (2,6);
},
{
pos = (2,0);
},
{
angle = 90;
pos = (94,0);
},
{
angle = 90;
pos = (226,0);
}
);
layerId = m003;
shapes = (
{
closed = 1;
nodes = (
(169,-212,o),
(203,-209,o),
(226,-202,c),
(226,-110,l),
(212,-114,o),
(198,-116,o),
(184,-116,cs),
(156,-116,o),
(134,-107,o),
(134,-83,cs),
(134,-59,o),
(152,-34,o),
(226,0,c),
(217,6,l),
(109,6,l),
(33,-22,o),
(0,-74,o),
(0,-114,cs),
(0,-186,o),
(64,-212,o),
(146,-212,cs)
);
}
);
width = 226;
}
);
unicode = 808;
},
{
export = 0;
glyphname = _part_b_bowl;
lastChange = "2022-08-02 11:56:49 +0000";
layers = (
{
layerId = m01;
shapes = (
{
closed = 1;
nodes = (
(373,-12,o),
(452,110,o),
(452,260,cs),
(452,410,o),
(373,532,o),
(222,532,cs),
(79,532,o),
(0,410,o),
(0,260,cs),
(0,110,o),
(79,-12,o),
(222,-12,cs)
);
},
{
closed = 1;
nodes = (
(91,18,o),
(24,128,o),
(24,260,cs),
(24,392,o),
(91,502,o),
(222,502,cs),
(353,502,o),
(420,392,o),
(420,260,cs),
(420,128,o),
(353,18,o),
(222,18,cs)
);
}
);
width = 452;
},
{
layerId = m003;
shapes = (
{
closed = 1;
nodes = (
(344,-12,o),
(420,106,o),
(420,260,cs),
(420,414,o),
(344,532,o),
(200,532,cs),
(56,532,o),
(0,414,o),
(0,260,cs),
(0,106,o),
(56,-12,o),
(200,-12,cs)
);
},
{
closed = 1;
nodes = (
(79,136,o),
(55,182,o),
(55,260,cs),
(55,338,o),
(79,384,o),
(143,384,cs),
(207,384,o),
(231,338,o),
(231,260,cs),
(231,182,o),
(207,136,o),
(143,136,cs)
);
}
);
width = 420;
},
{
layerId = m002;
shapes = (
{
closed = 1;
nodes = (
(378,-12,o),
(464,104,o),
(464,260,cs),
(464,416,o),
(378,532,o),
(222,532,cs),
(76,532,o),
(0,416,o),
(0,260,cs),
(0,104,o),
(76,-12,o),
(222,-12,cs)
);
},
{
closed = 1;
nodes = (
(102,64,o),
(48,146,o),
(48,260,cs),
(48,374,o),
(102,456,o),
(212,456,cs),
(322,456,o),
(376,374,o),
(376,260,cs),
(376,146,o),
(322,64,o),
(212,64,cs)
);
}
);
width = 464;
}
);
},
{
export = 0;
glyphname = _part_b_stem;
lastChange = "2022-09-19 16:40:21 +0000";
layers = (
{
layerId = m01;
partSelection = {
height = 2;
};
shapes = (
{
closed = 1;
nodes = (
(31,0,l),
(31,165,l),
(20,260,l),
(32,362,l),
(32,720,l),
(0,720,l),
(0,0,l)
);
}
);
width = 32;
},
{
layerId = m002;
partSelection = {
height = 2;
};
shapes = (
{
closed = 1;
nodes = (
(80,0,l),
(80,138,l),
(61,260,l),
(84,387,l),
(84,720,l),
(0,720,l),
(0,0,l)
);
}
);
width = 84;
},
{
layerId = m003;
partSelection = {
height = 2;
};
shapes = (
{
closed = 1;
nodes = (
(183,0,l),
(183,121,l),
(161,260,l),
(188,400,l),
(188,720,l),
(0,720,l),
(0,0,l)
);
}
);
width = 188;
},
{
associatedMasterId = m01;
layerId = "791A3B9E-1819-4F6E-981C-DD538BDDE2E1";
name = "100-height";
partSelection = {
height = 1;
};
shapes = (
{
closed = 1;
nodes = (
(31,0,l),
(31,165,l),
(20,260,l),
(32,362,l),
(32,520,l),
(0,520,l),
(0,0,l)
);
}
);
width = 32;
},
{
associatedMasterId = m002;
layerId = "7C5BEF0E-FCD7-45C5-8173-0D6BBB319ECB";
name = "400-height";
partSelection = {
height = 1;
};
shapes = (
{
closed = 1;
nodes = (
(80,0,l),
(80,138,l),
(61,260,l),
(84,387,l),
(84,520,l),
(0,520,l),
(0,0,l)
);
}
);
width = 84;
},
{
associatedMasterId = m003;
layerId = "D98DF43B-8F8B-47E6-B2B5-EEF09A7B5292";
name = "900-height";
partSelection = {
height = 1;
};
shapes = (
{
closed = 1;
nodes = (
(183,0,l),
(183,121,l),
(161,260,l),
(188,400,l),
(188,520,l),
(0,520,l),
(0,0,l)
);
}
);
width = 188;
}
);
partsSettings = (
{
bottomValue = -200;
name = height;
topValue = 0;
}
);
},
{
export = 0;
glyphname = _part_copyright_ring;
lastChange = "2022-09-17 12:46:32 +0000";
layers = (
{
layerId = m01;
shapes = (
{
closed = 1;
nodes = (
(590,-12,o),
(748,142,o),
(748,360,cs),
(748,578,o),
(590,732,o),
(374,732,cs),
(158,732,o),
(0,578,o),
(0,360,cs),
(0,142,o),
(158,-12,o),
(374,-12,cs)
);
},
{
closed = 1;
nodes = (
(172,16,o),
(30,156,o),
(30,360,cs),
(30,564,o),
(172,704,o),
(374,704,cs),
(576,704,o),
(718,564,o),
(718,360,cs),
(718,156,o),
(576,16,o),
(374,16,cs)
);
}
);
width = 748;
},
{
layerId = m002;
shapes = (
{
closed = 1;
nodes = (
(592,-12,o),
(752,142,o),
(752,360,cs),
(752,578,o),
(592,732,o),
(376,732,cs),
(160,732,o),
(0,578,o),
(0,360,cs),
(0,142,o),
(160,-12,o),
(376,-12,cs)
);
},
{
closed = 1;
nodes = (
(198,56,o),
(72,176,o),
(72,360,cs),
(72,544,o),
(198,664,o),
(376,664,cs),
(554,664,o),
(680,544,o),
(680,360,cs),
(680,176,o),
(554,56,o),
(376,56,cs)
);
}
);
width = 752;
},
{
layerId = m003;
shapes = (
{
closed = 1;
nodes = (
(606,-12,o),
(776,142,o),
(776,360,cs),
(776,578,o),
(606,732,o),
(388,732,cs),
(170,732,o),
(0,578,o),
(0,360,cs),
(0,142,o),
(170,-12,o),
(388,-12,cs)
);
},
{
closed = 1;
nodes = (
(240,112,o),
(134,206,o),
(134,360,cs),
(134,514,o),
(240,608,o),
(388,608,cs),
(536,608,o),
(642,514,o),
(642,360,cs),
(642,206,o),
(536,112,o),
(388,112,cs)
);
}
);
width = 776;
}
);
},
{
export = 0;
glyphname = _part_copyright_ring_sm;
lastChange = "2022-09-19 15:00:41 +0000";
layers = (
{
layerId = m01;
shapes = (
{
closed = 1;
nodes = (
(399,228,o),
(506,332,o),
(506,480,cs),
(506,628,o),
(399,732,o),
(253,732,cs),
(107,732,o),
(0,628,o),
(0,480,cs),
(0,332,o),
(107,228,o),
(253,228,cs)
);
},
{
closed = 1;
nodes = (
(119,252,o),
(25,345,o),
(25,480,cs),
(25,615,o),
(119,708,o),
(253,708,cs),
(387,708,o),
(481,615,o),
(481,480,cs),
(481,345,o),
(387,252,o),
(253,252,cs)
);
}
);
width = 506;
},
{
layerId = m002;
shapes = (
{
closed = 1;
nodes = (
(401,228,o),
(510,332,o),
(510,480,cs),
(510,628,o),
(401,732,o),
(255,732,cs),
(109,732,o),
(0,628,o),
(0,480,cs),
(0,332,o),
(109,228,o),
(255,228,cs)
);
},
{
closed = 1;
nodes = (
(136,279,o),
(54,357,o),
(54,480,cs),
(54,603,o),
(136,681,o),
(255,681,cs),
(374,681,o),
(456,603,o),
(456,480,cs),
(456,357,o),
(374,279,o),
(255,279,cs)
);
}
);
width = 510;
},
{
layerId = m003;
shapes = (
{
closed = 1;
nodes = (
(434,198,o),
(556,309,o),
(556,465,cs),
(556,621,o),
(434,732,o),
(278,732,cs),
(122,732,o),
(0,621,o),
(0,465,cs),
(0,309,o),
(122,198,o),
(278,198,cs)
);
},
{
closed = 1;
nodes = (
(172,287,o),
(96,354,o),
(96,465,cs),
(96,576,o),
(172,643,o),
(278,643,cs),
(384,643,o),
(460,576,o),
(460,465,cs),
(460,354,o),
(384,287,o),
(278,287,cs)
);
}
);
width = 556;
}
);
},
{
export = 0;
glyphname = _part_dagger_crossbar;
lastChange = "2022-09-04 14:52:09 +0000";
layers = (
{
layerId = m01;
shapes = (
{
closed = 1;
nodes = (
(478,490,l),
(478,520,l),
(0,520,l),
(0,490,l)
);
}
);
width = 478;
},
{
layerId = m002;
shapes = (
{
closed = 1;
nodes = (
(534,440,l),
(534,520,l),
(0,520,l),
(0,440,l)
);
}
);
width = 534;
},
{
layerId = m003;
shapes = (
{
closed = 1;
nodes = (
(610,348,l),
(610,520,l),
(0,520,l),
(0,348,l)
);
}
);
width = 610;
}
);
},
{
export = 0;
glyphname = _part_dagger_stem;
lastChange = "2022-09-04 14:51:15 +0000";
layers = (
{
layerId = m01;
shapes = (
{
closed = 1;
nodes = (
(32,-200,l),
(32,720,l),
(0,720,l),
(0,-200,l)
);
}
);
width = 32;
},
{
layerId = m002;
shapes = (
{
closed = 1;
nodes = (
(88,-200,l),
(88,720,l),
(0,720,l),
(0,-200,l)
);
}
);
width = 88;
},
{
layerId = m003;
shapes = (
{
closed = 1;
nodes = (
(204,-200,l),
(204,720,l),
(0,720,l),
(0,-200,l)
);
}
);
width = 204;
}
);
},
{
export = 0;
glyphname = _part_f_base;
lastChange = "2022-08-05 09:56:36 +0000";
layers = (
{
layerId = m01;
partSelection = {
height = 2;
width = 2;
};
shapes = (
{
closed = 1;
nodes = (
(32,0,l),
(32,598,ls),
(32,652,o),
(40,692,o),
(104,692,cs),
(218,692,l),
(218,720,l),
(104,720,ls),
(10,720,o),
(0,662,o),
(0,598,cs),
(0,0,l)
);
}
);
width = 218;
},
{
associatedMasterId = m01;
layerId = "F945CD20-6843-4521-A78E-1F31CC4E6345";
name = "100-height";
partSelection = {
height = 1;
};
shapes = (
{
closed = 1;
nodes = (
(32,200,l),
(32,598,ls),
(32,652,o),
(40,692,o),
(104,692,cs),
(218,692,l),
(218,720,l),
(104,720,ls),
(10,720,o),
(0,662,o),
(0,598,cs),
(0,200,l)
);
}
);
width = 218;
},
{
associatedMasterId = m01;
layerId = "C798B985-F0F9-4CFE-91D8-4568EFAA47E9";
name = "100-width";
partSelection = {
width = 1;
};
shapes = (
{
closed = 1;
nodes = (
(32,0,l),
(32,598,ls),
(32,652,o),
(40,692,o),
(104,692,cs),
(118,692,l),
(118,720,l),
(104,720,ls),
(10,720,o),
(0,662,o),
(0,598,cs),
(0,0,l)
);
}
);
width = 118;
},
{
layerId = m002;
partSelection = {
height = 2;
width = 2;
};
shapes = (
{
closed = 1;
nodes = (
(84,0,l),
(84,592,ls),
(84,630,o),
(100,646,o),
(138,646,cs),
(262,646,l),
(262,720,l),
(122,720,ls),
(32,720,o),
(0,682,o),
(0,602,cs),
(0,0,l)
);
}
);
width = 262;
},
{
associatedMasterId = m002;
layerId = "DC824D07-9BB2-4144-8378-918DAB04B1A7";
name = "400-height";
partSelection = {
height = 1;
};
shapes = (
{
closed = 1;
nodes = (
(84,200,l),
(84,592,ls),
(84,630,o),
(100,646,o),
(138,646,cs),
(262,646,l),
(262,720,l),
(122,720,ls),
(32,720,o),
(0,682,o),
(0,602,cs),
(0,200,l)
);
}
);
width = 262;
},
{
associatedMasterId = m002;
layerId = "8AB5846C-CC7B-4AB8-B656-49B6B66EEF3C";
name = "400-width";
partSelection = {
width = 1;
};
shapes = (
{
closed = 1;
nodes = (
(84,0,l),
(84,592,ls),
(84,630,o),
(100,646,o),
(138,646,cs),
(162,646,l),
(162,720,l),
(122,720,ls),
(32,720,o),
(0,682,o),
(0,602,cs),
(0,0,l)
);
}
);
width = 162;
},
{
layerId = m003;
partSelection = {
height = 2;
width = 2;
};
shapes = (
{
closed = 1;
nodes = (
(188,0,l),
(188,547,ls),
(188,574,o),
(196,588,o),
(232,588,cs),
(352,588,l),
(352,720,l),
(177,720,ls),
(93,720,o),
(0,707,o),
(0,565,cs),
(0,0,l)
);
}
);
width = 352;
},
{
associatedMasterId = m003;
layerId = "1541FC6D-6834-446D-94B4-2EFC3DE507DA";
name = "900-height";
partSelection = {
height = 1;
};
shapes = (
{
closed = 1;
nodes = (
(188,200,l),
(188,547,ls),
(188,574,o),
(196,588,o),
(232,588,cs),
(352,588,l),
(352,720,l),
(177,720,l),
(93,720,o),
(0,707,o),
(0,565,cs),
(0,200,l)
);
}
);
width = 352;
},
{
associatedMasterId = m003;
layerId = "6DDC0056-58CC-4098-8739-15B7E4D1C1A1";
name = "900-width";
partSelection = {
width = 1;
};
shapes = (
{
closed = 1;
nodes = (
(188,0,l),
(188,547,ls),
(188,574,o),
(196,588,o),
(232,588,cs),
(252,588,l),
(252,720,l),
(177,720,ls),
(93,720,o),
(0,707,o),
(0,565,cs),
(0,0,l)
);
}
);
width = 252;
}
);
partsSettings = (
{
bottomValue = -200;
name = height;
topValue = 0;
},
{
bottomValue = -100;
name = width;
topValue = 0;
}
);
},
{
export = 0;
glyphname = _part_f_crossbar;
lastChange = "2022-07-28 12:43:12 +0000";
layers = (
{
guides = (
{
angle = 90;
pos = (272,720);
},
{
angle = 90;
pos = (372,720);
},
{
angle = 90;
pos = (0,720);
},
{
angle = 90;
pos = (100,720);
}
);
layerId = m01;
partSelection = {
"width-R" = 2;
"width-L" = 2;
};
shapes = (
{
closed = 1;
nodes = (
(372,492,l),
(372,520,l),
(0,520,l),
(0,492,l)
);
}
);
width = 372;
},
{
guides = (
{
angle = 270;
pos = (100,720);
},
{
angle = 270;
pos = (410,720);
},
{
angle = 270;
pos = (310,720);
},
{
angle = 270;
pos = (0,720);
}
);
layerId = m002;
partSelection = {
"width-R" = 2;
"width-L" = 2;
};
shapes = (
{
closed = 1;
nodes = (
(410,446,l),
(410,520,l),
(0,520,l),
(0,446,l)
);
}
);
width = 410;
},
{
guides = (
{
angle = 270;
pos = (490,720);
},
{
angle = 270;
pos = (390,720);
},
{
angle = 270;
pos = (100,720);
},
{
angle = 270;
pos = (0,720);
}
);
layerId = m003;
partSelection = {
"width-R" = 2;
"width-L" = 2;
};
shapes = (
{
closed = 1;
nodes = (
(490,388,l),
(490,520,l),
(0,520,l),
(0,388,l)
);
}
);
width = 490;
},
{
associatedMasterId = m01;
guides = (
{
angle = 90;
pos = (272,720);
},
{
angle = 90;
pos = (372,720);
},
{
angle = 90;
pos = (0,720);
},
{
angle = 90;
pos = (100,720);
}
);
layerId = "865CE1EE-4E91-44EB-8CB0-FFF09852EF01";
name = "100-width-R";
partSelection = {
"width-R" = 1;
};
shapes = (
{
closed = 1;
nodes = (
(272,492,l),
(272,520,l),
(0,520,l),
(0,492,l)
);
}
);
width = 372;
},
{
associatedMasterId = m01;
guides = (
{
angle = 90;
pos = (272,720);
},
{
angle = 90;
pos = (372,720);
},
{
angle = 90;
pos = (0,720);
},
{
angle = 90;
pos = (100,720);
}
);
layerId = "00D46729-F168-4169-A93F-960946C9CF6D";
name = "100-width-L";
partSelection = {
"width-L" = 1;
};
shapes = (
{
closed = 1;
nodes = (
(372,492,l),
(372,520,l),
(100,520,l),
(100,492,l)
);
}
);
width = 372;
},
{
associatedMasterId = m002;
guides = (
{
angle = 270;
pos = (100,720);
},
{
angle = 270;
pos = (410,720);
},
{
angle = 270;
pos = (310,720);
},
{
angle = 270;
pos = (0,720);
}
);
layerId = "4B304C5B-45AE-4177-BA02-F1DC0166FA4A";
name = "400-width-R";
partSelection = {
"width-R" = 1;
};
shapes = (
{
closed = 1;
nodes = (
(310,446,l),
(310,520,l),
(0,520,l),
(0,446,l)
);
}
);
width = 410;
},
{
associatedMasterId = m002;
guides = (
{
angle = 270;
pos = (100,720);
},
{
angle = 270;
pos = (410,720);
},
{
angle = 270;
pos = (310,720);
}
);
layerId = "61EBF490-BDD8-442D-97CD-67261793CF01";
name = "400-width-L";
partSelection = {
"width-L" = 1;
};
shapes = (
{
closed = 1;
nodes = (
(410,446,l),
(410,520,l),
(100,520,l),
(100,446,l)
);
}
);
width = 410;
},
{
associatedMasterId = m003;
guides = (
{
angle = 270;
pos = (490,720);
},
{
angle = 270;
pos = (390,720);
},
{
angle = 270;
pos = (100,720);
},
{
angle = 270;
pos = (0,720);
}
);
layerId = "47AE8E45-CAA3-4FE0-A318-C14649E187E7";
name = "900-width-R";
partSelection = {
"width-R" = 1;
};
shapes = (
{
closed = 1;
nodes = (
(390,388,l),
(390,520,l),
(0,520,l),
(0,388,l)
);
}
);
width = 490;
},
{
associatedMasterId = m003;
guides = (
{
angle = 270;
pos = (490,720);
},
{
angle = 270;
pos = (390,720);
},
{
angle = 270;
pos = (100,720);
},
{
angle = 270;
pos = (0,720);
}
);
layerId = "2B028760-02A9-4001-88F5-082F39EA204F";
name = "900-width-L";
partSelection = {
"width-L" = 1;
};
shapes = (
{
closed = 1;
nodes = (
(490,388,l),
(490,520,l),
(100,520,l),
(100,388,l)
);
}
);
width = 490;
}
);
partsSettings = (
{
bottomValue = -100;
name = "width-R";
topValue = 0;
},
{
bottomValue = -100;
name = "width-L";
topValue = 0;
}
);
},
{
export = 0;
glyphname = _part_l_slash;
lastChange = "2022-09-09 18:08:46 +0000";
layers = (
{
anchors = (
{
name = _slash;
pos = (108,375);
}
);
guides = (
{
angle = 90;
pos = (92,720);
},
{
angle = 90;
pos = (0,720);
},
{
angle = 90;
pos = (216,720);
},
{
pos = (124,520);
},
{
angle = 90;
pos = (124,720);
},
{
pos = (124,398);
},
{
pos = (92,352);
}
);
layerId = m01;
shapes = (
{
closed = 1;
nodes = (
(216,410,l),
(216,440,l),
(0,340,l),
(0,310,l)
);
}
);
width = 216;
},
{
anchors = (
{
name = _slash;
pos = (128,370);
}
);
guides = (
{
pos = (172,520);
},
{
angle = 90;
pos = (0,720);
},
{
angle = 90;
pos = (84,720);
},
{
angle = 90;
pos = (172,720);
},
{
angle = 90;
pos = (256,720);
},
{
pos = (172,431);
},
{
pos = (84,309);
}
);
layerId = m002;
shapes = (
{
closed = 1;
nodes = (
(256,390,l),
(256,470,l),
(0,350,l),
(0,270,l)
);
}
);
width = 256;
},
{
anchors = (
{
name = _slash;
pos = (170,364);
}
);
guides = (
{
angle = 90;
pos = (0,720);
},
{
angle = 90;
pos = (76,720);
},
{
angle = 90;
pos = (264,720);
},
{
angle = 90;
pos = (340,720);
},
{
pos = (264,458);
},
{
pos = (76,268);
},
{
pos = (264,520);
}
);
layerId = m003;
shapes = (
{
closed = 1;
nodes = (
(340,380,l),
(340,490,l),
(0,346,l),
(0,236,l)
);
}
);
width = 340;
}
);
},
{
export = 0;
glyphname = _part_n_shoulder;
lastChange = "2022-07-27 07:52:04 +0000";
layers = (
{
layerId = m01;
partSelection = {
};
shapes = (
{
closed = 1;
nodes = (
(387,0,l),
(387,333,ls),
(387,462,o),
(320,532,o),
(201,532,cs),
(63,532,o),
(-1,421,o),
(0,291,c),
(19,291,l),
(19,406,o),
(86,502,o),
(197,502,cs),
(298,502,o),
(356,446,o),
(356,329,cs),
(356,0,l)
);
}
);
width = 387;
},
{
layerId = m002;
partSelection = {
};
shapes = (
{
closed = 1;
nodes = (
(401,0,l),
(401,342,ls),
(401,434,o),
(348,532,o),
(216,532,cs),
(64,532,o),
(0,387,o),
(0,291,c),
(53,291,l),
(53,439,o),
(164,456,o),
(200,456,cs),
(280,456,o),
(318,406,o),
(318,334,cs),
(318,0,l)
);
}
);
width = 401;
},
{
layerId = m003;
partSelection = {
};
shapes = (
{
closed = 1;
nodes = (
(408,0,l),
(408,306,ls),
(408,474,o),
(325,532,o),
(223,532,cs),
(69,532,o),
(0,376,o),
(0,278,c),
(66,278,l),
(66,326,o),
(87,372,o),
(147,372,cs),
(207,372,o),
(220,330,o),
(220,282,cs),
(220,0,l)
);
}
);
width = 408;
}
);
},
{
export = 0;
glyphname = _part_n_stem;
lastChange = "2022-07-27 07:52:04 +0000";
layers = (
{
layerId = m01;
shapes = (
{
closed = 1;
nodes = (
(32,0,l),
(32,365,l),
(31,381,l),
(31,520,l),
(0,520,l),
(0,0,l)
);
}
);
width = 32;
},
{
layerId = m002;
shapes = (
{
closed = 1;
nodes = (
(84,0,l),
(84,365,l),
(80,381,l),
(80,520,l),
(0,520,l),
(0,0,l)
);
}
);
width = 84;
},
{
layerId = m003;
shapes = (
{
closed = 1;
nodes = (
(188,0,l),
(188,320,l),
(184,352,l),
(184,520,l),
(0,520,l),
(0,0,l)
);
}
);
width = 188;
}
);
},
{
export = 0;
glyphname = _part_percent_slash;
lastChange = "2022-08-30 20:26:54 +0000";
layers = (
{
layerId = m01;
shapes = (
{
closed = 1;
nodes = (
(30,0,l),
(413,720,l),
(383,720,l),
(0,0,l)
);
}
);
width = 413;
},
{
layerId = m002;
shapes = (
{
closed = 1;
nodes = (
(81,0,l),
(462,720,l),
(381,720,l),
(0,0,l)
);
}
);
width = 462;
},
{
layerId = m003;
shapes = (
{
closed = 1;
nodes = (
(112,0,l),
(495,720,l),
(383,720,l),
(0,0,l)
);
}
);
width = 495;
}
);
},
